<svg width="136" height="140" viewBox="0 0 136 140" fill="none" xmlns="http://www.w3.org/2000/svg">
<g id="Group 526">
<g id="Group 525">
<g id="Group 524">
<rect id="Rectangle 111" x="1" y="1.83301" width="134" height="137" fill="#82B2E3" fill-opacity="0.21" stroke="#B5D9FF" stroke-width="2"/>
<rect id="Rectangle 112" x="65.418" y="0.833008" width="2" height="139" fill="#B5D9FF"/>
</g>
<rect id="Rectangle 113" x="0.861328" y="1.83301" width="6.88608" height="137" fill="#4381C0"/>
<rect id="Rectangle 114" x="128.254" y="1.83301" width="6.88608" height="137" fill="#4381C0"/>
</g>
<path id="Ellipse 286" d="M82.9943 70.833C82.9943 73.3913 81.2236 75.333 79.1905 75.333C77.1575 75.333 75.3867 73.3913 75.3867 70.833C75.3867 68.2747 77.1575 66.333 79.1905 66.333C81.2236 66.333 82.9943 68.2747 82.9943 70.833Z" stroke="#B5D9FF"/>
<path id="Ellipse 287" d="M57.1701 70.833C57.1701 73.3913 55.3994 75.333 53.3663 75.333C51.3332 75.333 49.5625 73.3913 49.5625 70.833C49.5625 68.2747 51.3332 66.333 53.3663 66.333C55.3994 66.333 57.1701 68.2747 57.1701 70.833Z" stroke="#B5D9FF"/>
</g>
</svg>
