<svg width="24" height="25" viewBox="0 0 24 25" fill="none" xmlns="http://www.w3.org/2000/svg">
<g id="ic:round-done">
<path id="Vector" d="M9.00006 16.4263L5.50006 12.9263C5.40853 12.8337 5.29953 12.7601 5.17937 12.7099C5.05921 12.6597 4.93028 12.6339 4.80006 12.6339C4.66983 12.6339 4.5409 12.6597 4.42074 12.7099C4.30058 12.7601 4.19158 12.8337 4.10006 12.9263C4.00742 13.0178 3.93387 13.1268 3.88367 13.247C3.83347 13.3672 3.80762 13.4961 3.80762 13.6263C3.80762 13.7566 3.83347 13.8855 3.88367 14.0056C3.93387 14.1258 4.00742 14.2348 4.10006 14.3263L8.29006 18.5163C8.68006 18.9063 9.31006 18.9063 9.70006 18.5163L20.3001 7.92633C20.3927 7.8348 20.4662 7.7258 20.5164 7.60564C20.5666 7.48548 20.5925 7.35655 20.5925 7.22633C20.5925 7.0961 20.5666 6.96717 20.5164 6.84701C20.4662 6.72685 20.3927 6.61785 20.3001 6.52633C20.2085 6.43369 20.0995 6.36013 19.9794 6.30994C19.8592 6.25974 19.7303 6.23389 19.6001 6.23389C19.4698 6.23389 19.3409 6.25974 19.2207 6.30994C19.1006 6.36013 18.9916 6.43369 18.9001 6.52633L9.00006 16.4263Z" fill="black"/>
</g>
</svg>
