<svg width="41" height="40" viewBox="0 0 41 40" fill="none" xmlns="http://www.w3.org/2000/svg">
<g id="ic:round-done">
<path id="Vector" d="M15.4998 27.0001L9.66644 21.1668C9.5139 21.0124 9.33223 20.8898 9.13196 20.8061C8.93169 20.7224 8.71681 20.6794 8.49977 20.6794C8.28273 20.6794 8.06784 20.7224 7.86758 20.8061C7.66731 20.8898 7.48564 21.0124 7.3331 21.1668C7.1787 21.3193 7.05612 21.501 6.97245 21.7012C6.88878 21.9015 6.8457 22.1164 6.8457 22.3334C6.8457 22.5505 6.88878 22.7654 6.97245 22.9656C7.05612 23.1659 7.1787 23.3476 7.3331 23.5001L14.3164 30.4834C14.9664 31.1334 16.0164 31.1334 16.6664 30.4834L34.3331 12.8334C34.4875 12.6809 34.6101 12.4992 34.6938 12.299C34.7774 12.0987 34.8205 11.8838 34.8205 11.6668C34.8205 11.4497 34.7774 11.2348 34.6938 11.0346C34.6101 10.8343 34.4875 10.6526 34.3331 10.5001C34.1806 10.3457 33.9989 10.2231 33.7986 10.1394C33.5984 10.0558 33.3835 10.0127 33.1664 10.0127C32.9494 10.0127 32.7345 10.0558 32.5342 10.1394C32.334 10.2231 32.1523 10.3457 31.9998 10.5001L15.4998 27.0001Z" fill="#0D4D8F"/>
</g>
</svg>
