<svg width="57" height="56" viewBox="0 0 57 56" fill="none" xmlns="http://www.w3.org/2000/svg">
<g id="mdi:facebook">
<path id="Vector" d="M28.4095 4.75977C15.5762 4.75977 5.07617 15.2364 5.07617 28.1398C5.07617 39.8064 13.6162 49.4898 24.7695 51.2398V34.9064H18.8428V28.1398H24.7695V22.9831C24.7695 17.1264 28.2462 13.9064 33.5895 13.9064C36.1328 13.9064 38.7928 14.3498 38.7928 14.3498V20.1131H35.8528C32.9595 20.1131 32.0495 21.9098 32.0495 23.7531V28.1398H38.5362L37.4862 34.9064H32.0495V51.2398C37.5479 50.3714 42.5547 47.566 46.166 43.3299C49.7774 39.0938 51.7553 33.7063 51.7428 28.1398C51.7428 15.2364 41.2428 4.75977 28.4095 4.75977Z" fill="#F6F8FF"/>
</g>
</svg>
