<svg width="240" height="98" viewBox="0 0 240 98" fill="none" xmlns="http://www.w3.org/2000/svg">
<g id="Group 419">
<g id="Group 418">
<g id="Group">
<g id="Group_2">
<path id="Vector" d="M89.4912 22.7988H100.465L105.759 41.9198L111.246 22.7988H121.834L110.187 53.0737H100.85L89.4912 22.7988Z" fill="#FDFDFD"/>
<path id="Vector_2" d="M153.407 40.8572H132.326C132.519 42.7693 133 44.1502 133.674 45.0001C134.733 46.2748 135.984 46.9122 137.621 46.9122C138.679 46.9122 139.642 46.5935 140.605 46.0623C141.182 45.7437 141.76 45.1063 142.434 44.1502L152.83 45.2125C151.289 48.2931 149.364 50.4177 147.054 51.7986C144.84 53.0734 141.567 53.8169 137.428 53.8169C133.77 53.8169 130.979 53.2858 128.861 52.1173C126.743 50.9488 125.011 49.1429 123.663 46.6997C122.315 44.2565 121.642 41.3883 121.642 37.989C121.642 33.2088 122.989 29.3846 125.781 26.5165C128.572 23.6483 132.326 22.1611 137.139 22.1611C141.086 22.1611 144.166 22.7985 146.476 24.0732C148.787 25.348 150.519 27.2601 151.674 29.8095C152.83 32.2528 153.407 35.5458 153.407 39.4762V40.8572ZM142.722 35.2271C142.53 32.9963 141.952 31.4029 141.086 30.4469C140.22 29.4908 139.065 28.9597 137.621 28.9597C135.984 28.9597 134.637 29.7033 133.578 31.1905C132.904 32.1465 132.519 33.4213 132.326 35.2271H142.722Z" fill="#FDFDFD"/>
<path id="Vector_3" d="M178.146 41.1753L188.157 42.4501C187.579 44.7871 186.713 46.6992 185.462 48.3988C184.21 50.0984 182.574 51.3732 180.649 52.3292C178.724 53.2853 176.221 53.7102 173.237 53.7102C170.349 53.7102 167.943 53.3915 166.017 52.8604C164.092 52.223 162.456 51.2669 161.012 49.9922C159.568 48.7175 158.509 47.1241 157.739 45.3182C156.969 43.5123 156.584 41.1753 156.584 38.2009C156.584 35.1203 157.065 32.4647 158.028 30.4463C158.702 28.9592 159.664 27.5782 160.916 26.4097C162.167 25.2412 163.418 24.2851 164.67 23.754C166.691 22.798 169.386 22.373 172.563 22.373C176.991 22.373 180.456 23.2229 182.766 25.0287C185.077 26.8346 186.809 29.3841 187.676 32.7833L177.761 34.2705C177.472 32.9958 176.895 32.0398 176.028 31.4024C175.162 30.765 174.103 30.4463 172.756 30.4463C171.023 30.4463 169.579 31.0837 168.52 32.4647C167.461 33.8456 166.884 35.9702 166.884 38.7321C166.884 41.1753 167.461 43.0874 168.52 44.3621C169.579 45.6369 170.927 46.2742 172.563 46.2742C173.911 46.2742 175.066 45.8493 176.028 45.1057C176.991 44.0435 177.665 42.875 178.146 41.1753Z" fill="#FDFDFD"/>
<path id="Vector_4" d="M191.141 37.989C191.141 33.4213 192.585 29.5971 195.376 26.6227C198.168 23.6483 202.018 22.1611 206.831 22.1611C212.318 22.1611 216.457 23.967 219.248 27.4725C221.462 30.3407 222.617 33.7399 222.617 37.8828C222.617 42.5568 221.173 46.381 218.382 49.3554C215.59 52.3298 211.74 53.8169 206.831 53.8169C202.403 53.8169 198.841 52.5422 196.146 50.099C192.777 47.0184 191.141 42.9817 191.141 37.989ZM201.633 37.989C201.633 40.6447 202.114 42.6631 203.077 43.9378C204.039 45.2125 205.291 45.8499 206.831 45.8499C208.371 45.8499 209.622 45.2125 210.585 43.9378C211.548 42.6631 212.029 40.6447 212.029 37.7766C212.029 35.1209 211.548 33.2088 210.585 31.9341C209.622 30.6593 208.371 30.022 206.927 30.022C205.387 30.022 204.136 30.6593 203.173 31.9341C202.114 33.315 201.633 35.3334 201.633 37.989Z" fill="#FDFDFD"/>
</g>
</g>
<g id="Group_3">
<g id="Group_4">
<path id="Vector_5" d="M77.3723 86.6962L76.6719 69.5614H79.357L79.4737 78.3221C79.4737 80.5122 79.4737 82.0582 79.357 83.3465C79.8239 81.9294 80.2909 80.5122 81.1081 78.3221L84.6104 69.4326H87.5289L87.6457 78.0644C87.6457 80.2546 87.6457 81.8005 87.5289 83.2177C87.9959 81.5429 88.5796 79.9969 89.1633 78.1932L92.5489 69.4326H95.3507L88.3462 86.5673H85.4276L85.1941 78.3221C85.1941 76.3896 85.1941 74.9724 85.3108 73.0399H85.1941C84.6104 74.8436 84.1434 76.3896 83.443 78.1932L80.0574 86.5673H77.3723V86.6962Z" fill="#FDFDFD"/>
<path id="Vector_6" d="M93.833 86.696L95.9344 74.3281H98.6195L96.5181 86.696H93.833ZM96.4014 70.9785C96.4014 69.9478 97.1018 69.1748 98.0357 69.1748C98.8529 69.1748 99.4367 69.819 99.4367 70.7208C99.4367 71.7515 98.7362 72.5244 97.8023 72.5244C96.9851 72.5244 96.4014 71.8803 96.4014 70.9785Z" fill="#FDFDFD"/>
<path id="Vector_7" d="M99.3203 86.6979L100.721 78.1949C100.955 76.7778 101.188 75.4894 101.305 74.3299H103.64L103.406 76.5201C104.457 74.8453 105.858 74.0723 107.376 74.0723C109.01 74.0723 110.177 75.1029 110.177 77.4219C110.177 77.9372 110.061 78.8391 109.944 79.4832L108.66 86.6979H105.975L107.142 79.7409C107.259 79.2256 107.259 78.7102 107.259 78.3237C107.259 77.2931 106.909 76.5201 105.858 76.5201C104.69 76.5201 103.056 78.1949 102.589 81.0292L101.655 86.6979H99.3203Z" fill="#FDFDFD"/>
<path id="Vector_8" d="M124.303 68.6611L121.968 82.3174C121.735 83.7345 121.501 85.4094 121.501 86.6977H119.049L119.283 84.5075C118.232 86.1824 116.948 86.9553 115.43 86.9553C113.446 86.9553 112.045 85.1517 112.045 82.3174C112.045 77.9371 114.963 73.9433 119.049 73.9433C119.633 73.9433 120.334 74.0721 120.801 74.3298L121.735 68.6611H124.303ZM120.334 76.9064C119.983 76.6487 119.516 76.3911 118.816 76.3911C116.481 76.3911 114.847 79.2254 114.847 81.9309C114.847 83.4769 115.43 84.6364 116.598 84.6364C117.765 84.6364 119.166 83.2192 119.633 80.6426L120.334 76.9064Z" fill="#FDFDFD"/>
<path id="Vector_9" d="M135.394 79.2255C135.394 83.3481 132.709 86.9554 128.857 86.9554C126.055 86.9554 124.304 84.7653 124.304 81.8021C124.304 77.6795 126.989 73.9434 130.725 73.9434C133.76 74.0722 135.394 76.52 135.394 79.2255ZM127.106 81.8021C127.106 83.477 127.923 84.6365 129.324 84.6365C131.308 84.6365 132.709 81.5445 132.709 79.0967C132.709 77.8083 132.242 76.2623 130.608 76.2623C128.273 76.3912 127.106 79.4832 127.106 81.8021Z" fill="#FDFDFD"/>
<path id="Vector_10" d="M139.597 74.3301L139.831 80.3852C139.831 81.8024 139.831 82.833 139.831 83.9925C140.181 82.9619 140.648 81.8024 141.115 80.514L143.8 74.3301H146.018L146.485 80.3852C146.602 81.8024 146.602 82.9619 146.602 83.9925C146.952 82.833 147.302 81.6735 147.769 80.3852L150.221 74.3301H152.906L147.419 86.698H144.967L144.5 81.287C144.384 80.1275 144.384 78.968 144.384 77.6797C143.8 79.2257 143.566 80.1275 143.099 81.1582L140.648 86.698H138.196L137.146 74.3301H139.597Z" fill="#FDFDFD"/>
<path id="Vector_11" d="M152.789 83.9924C153.373 84.3789 154.423 84.7654 155.474 84.7654C156.525 84.7654 157.225 83.9924 157.225 83.2194C157.225 82.4464 156.875 81.9311 155.707 81.2869C154.423 80.5139 153.489 79.4832 153.489 78.0661C153.489 75.6183 155.357 74.0723 158.042 74.0723C159.21 74.0723 160.144 74.3299 160.727 74.7164L160.027 76.9066C159.56 76.6489 158.86 76.3913 157.926 76.3913C156.875 76.3913 156.174 77.0354 156.174 77.8084C156.174 78.4526 156.641 78.9679 157.575 79.4832C158.743 80.2562 159.91 81.2869 159.91 82.8329C159.91 85.5384 157.809 87.0844 155.124 87.0844C153.84 87.0844 152.555 86.6979 151.972 86.1825L152.789 83.9924Z" fill="#FDFDFD"/>
<path id="Vector_12" d="M174.97 86.6962C174.62 86.3097 174.386 85.7943 174.036 85.4078C172.869 86.4385 171.584 87.0827 169.833 87.0827C167.031 87.0827 165.28 85.279 165.28 82.7024C165.28 80.1257 167.148 78.3221 169.016 77.2914V77.1626C168.549 76.2607 168.199 75.2301 168.199 74.1994C168.199 71.4939 170.067 69.4326 172.752 69.4326C174.97 69.4326 176.371 70.9786 176.371 73.0399C176.371 75.1013 175.087 76.5184 172.518 77.9356V78.0644C173.219 79.3527 174.153 80.8987 174.853 82.0582C175.787 80.7699 176.488 79.2239 177.071 77.4202H179.523C178.706 80.1257 177.655 82.3159 176.021 83.9907C176.604 84.8925 177.305 85.9232 178.122 86.9538H174.97V86.6962ZM172.869 83.6042C172.168 82.4447 170.884 80.641 169.95 78.8374C169.133 79.4816 167.965 80.5122 167.965 82.0582C167.965 83.4754 168.783 84.6349 170.534 84.6349C171.468 84.7637 172.285 84.2484 172.869 83.6042ZM170.65 73.8129C170.65 74.7148 170.884 75.4877 171.351 76.1319C172.869 75.3589 173.919 74.3283 173.919 72.9111C173.919 72.0093 173.569 71.2363 172.518 71.2363C171.468 71.3651 170.65 72.3958 170.65 73.8129Z" fill="#FDFDFD"/>
<path id="Vector_13" d="M186.644 69.8191C187.928 69.5615 189.329 69.4326 190.73 69.4326C193.181 69.4326 195.166 70.2056 196.45 71.4939C197.501 72.5246 198.201 74.1994 198.201 76.5184C198.201 79.7392 197.034 82.7024 195.049 84.506C193.298 86.1808 190.963 86.825 187.811 86.825C186.177 86.825 184.659 86.6962 183.842 86.5673L186.644 69.8191ZM186.76 84.2484C187.344 84.3772 187.811 84.3772 188.512 84.3772C190.613 84.3772 192.247 83.6042 193.415 82.3159C194.582 80.8987 195.283 78.8374 195.283 76.6472C195.283 73.8129 193.882 71.8804 190.73 71.8804C190.146 71.8804 189.445 71.8804 188.978 72.0093L186.76 84.2484Z" fill="#FDFDFD"/>
<path id="Vector_14" d="M210.227 79.2255C210.227 83.3481 207.542 86.9554 203.69 86.9554C200.888 86.9554 199.137 84.7653 199.137 81.8021C199.137 77.6795 201.822 73.9434 205.558 73.9434C208.593 74.0722 210.227 76.52 210.227 79.2255ZM201.939 81.8021C201.939 83.477 202.756 84.6365 204.157 84.6365C206.141 84.6365 207.542 81.5445 207.542 79.0967C207.542 77.8083 207.075 76.2623 205.441 76.2623C203.106 76.3912 201.939 79.4832 201.939 81.8021Z" fill="#FDFDFD"/>
<path id="Vector_15" d="M222.6 79.2255C222.6 83.3481 219.915 86.9554 216.063 86.9554C213.261 86.9554 211.51 84.7653 211.51 81.8021C211.51 77.6795 214.195 73.9434 217.931 73.9434C220.966 74.0722 222.6 76.52 222.6 79.2255ZM214.195 81.8021C214.195 83.477 215.012 84.6365 216.413 84.6365C218.398 84.6365 219.799 81.5445 219.799 79.0967C219.799 77.8083 219.332 76.2623 217.697 76.2623C215.479 76.3912 214.195 79.4832 214.195 81.8021Z" fill="#FDFDFD"/>
<path id="Vector_16" d="M223.418 86.6979L224.702 79.0967C225.052 77.2931 225.169 75.4894 225.286 74.3299H227.621C227.504 75.1029 227.504 76.0048 227.387 76.9066H227.504C228.321 75.2318 229.489 74.0723 231.006 74.0723C231.24 74.0723 231.356 74.0723 231.59 74.0723L231.006 76.9066C230.89 76.9066 230.656 76.9066 230.539 76.9066C228.671 76.9066 227.387 79.0967 226.92 81.6734L226.103 86.6979H223.418Z" fill="#FDFDFD"/>
<path id="Vector_17" d="M231.472 83.9924C232.056 84.3789 233.107 84.7654 234.158 84.7654C235.208 84.7654 235.909 83.9924 235.909 83.2194C235.909 82.4464 235.558 81.9311 234.391 81.2869C233.107 80.5139 232.173 79.4832 232.173 78.0661C232.173 75.6183 234.041 74.0723 236.726 74.0723C237.893 74.0723 238.827 74.3299 239.411 74.7164L238.711 76.9066C238.244 76.6489 237.543 76.3913 236.609 76.3913C235.558 76.3913 234.858 77.0354 234.858 77.8084C234.858 78.4526 235.325 78.9679 236.259 79.4832C237.426 80.2562 238.594 81.2869 238.594 82.8329C238.594 85.5384 236.492 87.0844 233.807 87.0844C232.523 87.0844 231.239 86.6979 230.655 86.1825L231.472 83.9924Z" fill="#FDFDFD"/>
</g>
</g>
<path id="Vector_18" d="M50.7395 5.99217L7.22028 42.7805L43.6213 92.0075L87.1729 55.3207L50.7395 5.99217ZM77.6422 53.7733L62.3632 66.6922L46.3039 44.9744L61.5829 32.0555L77.6422 53.7733ZM59.4093 29.0582L44.1303 41.9771L34.5595 29.1495L49.8384 16.2306L59.4093 29.0582ZM16.7187 44.2264L31.9976 31.3075L59.8013 68.8502L44.5224 81.7691L16.7187 44.2264Z" fill="#F7931E"/>
</g>
</g>
</svg>
