<svg width="56" height="57" viewBox="0 0 56 57" fill="none" xmlns="http://www.w3.org/2000/svg">
<g id="mdi:super-chat-for-good">
<path id="Vector" d="M29.7495 9.90473C32.0829 8.22473 34.7895 7.38473 37.8462 7.38473C39.5262 7.38473 41.3695 7.82807 43.3762 8.7614C45.3829 9.6714 46.9695 10.7447 48.1362 11.9814C50.5395 14.9681 51.5429 18.4447 51.1929 22.4114C50.8195 26.3781 49.5129 29.4814 47.2495 31.6747L29.5395 49.3847C29.0962 49.8281 28.5362 50.0381 27.8829 50.0381C27.2295 50.0381 26.6929 49.8281 26.2495 49.3847C26.034 49.1721 25.8648 48.9173 25.7523 48.6363C25.6399 48.3552 25.5868 48.054 25.5962 47.7514C25.5962 47.0981 25.8062 46.5381 26.2495 46.0947L36.9595 35.3847C37.5429 34.8714 37.5429 34.3347 36.9595 33.7514C36.3762 33.1681 35.8395 33.1681 35.3262 33.7514L24.6162 44.4614C24.4002 44.6789 24.1415 44.8493 23.8564 44.9618C23.5712 45.0742 23.2658 45.1263 22.9595 45.1147C22.3062 45.1147 21.7695 44.9047 21.3262 44.4614C21.1107 44.2488 20.9414 43.994 20.829 43.7129C20.7166 43.4319 20.6634 43.1306 20.6729 42.8281C20.6729 42.1747 20.8829 41.6147 21.3262 41.1714L32.0362 30.4614C32.6662 29.8781 32.6662 29.2947 32.0362 28.7114C31.4995 28.1281 30.9862 28.1281 30.4029 28.7114L19.6929 39.5381C19.4745 39.7522 19.2153 39.9204 18.9308 40.0326C18.6462 40.1449 18.342 40.1988 18.0362 40.1914C17.3829 40.1914 16.8229 39.9814 16.3329 39.5381C15.8662 39.0947 15.6329 38.5581 15.6329 37.9047C15.6329 37.2514 15.8895 36.6681 16.4029 36.1547L27.1362 25.4214C27.7195 24.8381 27.7195 24.3014 27.1362 23.7881C26.5529 23.2747 25.9929 23.2747 25.4795 23.7881L14.6529 34.5447C14.1395 35.0114 13.6029 35.2681 13.0195 35.2681C12.3662 35.2681 11.8062 35.0347 11.3862 34.5447C10.9429 34.0781 10.7095 33.5181 10.7095 32.8647C10.7095 32.2114 10.9429 31.6747 11.3862 31.2314C18.5262 24.0447 22.9362 19.7047 24.6162 18.0947L32.9229 26.3081C33.8329 27.1714 34.8829 27.6147 36.1662 27.6147C37.7995 27.6147 39.0829 26.9614 40.0395 25.6547C40.6929 24.6981 40.9262 23.6481 40.7395 22.4814C40.5529 21.3147 40.0629 20.3347 39.2695 19.5181L29.7495 9.90473ZM34.5562 24.6747L24.6162 14.7114L8.09621 31.2314C6.13621 29.2481 5.01621 26.2147 4.75954 22.0847C4.50287 17.9781 5.62288 14.4081 8.09621 11.4214C10.8729 8.66807 14.1862 7.26807 18.0362 7.26807C21.9095 7.26807 25.1995 8.66807 27.8829 11.4214L37.8462 21.3847C38.2895 21.8281 38.4995 22.3647 38.4995 23.0181C38.4995 23.6714 38.2895 24.2314 37.8462 24.6747C37.4029 25.0947 36.8662 25.3281 36.1662 25.3281C35.5362 25.3281 34.9995 25.0947 34.5562 24.6747Z" fill="#F7931E"/>
</g>
</svg>
