<svg width="57" height="47" viewBox="0 0 57 47" fill="none" xmlns="http://www.w3.org/2000/svg">
<g id="fa:home" clip-path="url(#clip0_191_10802)">
<path id="Vector" d="M48.3434 27.5121V44.7073C48.3434 45.3282 48.1303 45.8655 47.704 46.3193C47.2777 46.7731 46.7729 46.9999 46.1896 46.9999H33.2665V33.2438H24.6511V46.9999H11.728C11.1447 46.9999 10.6399 46.7731 10.2136 46.3193C9.78734 45.8655 9.5742 45.3282 9.5742 44.7073V27.5121C9.5742 27.4883 9.57981 27.4524 9.59103 27.4047C9.60225 27.3569 9.60786 27.3211 9.60786 27.2972L28.9588 10.317L48.3098 27.2972C48.3322 27.345 48.3434 27.4166 48.3434 27.5121ZM55.8482 25.0403L53.7617 27.6913C53.5822 27.9062 53.3466 28.0375 53.055 28.0853H52.954C52.6623 28.0853 52.4268 28.0017 52.2473 27.8345L28.9588 7.16458L5.67036 27.8345C5.40113 28.0256 5.13189 28.1092 4.86266 28.0853C4.571 28.0375 4.33542 27.9062 4.15593 27.6913L2.06939 25.0403C1.88991 24.8015 1.81138 24.5209 1.83382 24.1985C1.85625 23.8761 1.97965 23.6194 2.20401 23.4283L26.4011 1.97022C27.1191 1.34929 27.9716 1.03882 28.9588 1.03882C29.946 1.03882 30.7986 1.34929 31.5165 1.97022L39.7281 9.27815V2.29263C39.7281 1.95828 39.829 1.68364 40.0309 1.4687C40.2329 1.25376 40.4909 1.14629 40.805 1.14629H47.2665C47.5806 1.14629 47.8386 1.25376 48.0406 1.4687C48.2425 1.68364 48.3434 1.95828 48.3434 2.29263V16.9085L55.7136 23.4283C55.938 23.6194 56.0614 23.8761 56.0838 24.1985C56.1063 24.5209 56.0277 24.8015 55.8482 25.0403Z" fill="#0D4D8F"/>
</g>
<defs>
<clipPath id="clip0_191_10802">
<rect width="56" height="47" fill="white" transform="translate(0.958984)"/>
</clipPath>
</defs>
</svg>
