<svg width="57" height="56" viewBox="0 0 57 56" fill="none" xmlns="http://www.w3.org/2000/svg">
<path d="M18.6095 4.66699H38.2095C45.6762 4.66699 51.7428 10.7337 51.7428 18.2003V37.8003C51.7428 41.3896 50.317 44.8318 47.779 47.3698C45.241 49.9078 41.7988 51.3337 38.2095 51.3337H18.6095C11.1428 51.3337 5.07617 45.267 5.07617 37.8003V18.2003C5.07617 14.6111 6.502 11.1688 9.03999 8.63081C11.578 6.09282 15.0202 4.66699 18.6095 4.66699ZM18.1428 9.33366C15.915 9.33366 13.7784 10.2187 12.2031 11.794C10.6278 13.3693 9.74284 15.5058 9.74284 17.7337V38.267C9.74284 42.9103 13.4995 46.667 18.1428 46.667H38.6762C40.904 46.667 43.0406 45.782 44.6159 44.2067C46.1912 42.6314 47.0762 40.4948 47.0762 38.267V17.7337C47.0762 13.0903 43.3195 9.33366 38.6762 9.33366H18.1428ZM40.6595 12.8337C41.4331 12.8337 42.1749 13.1409 42.7219 13.6879C43.2689 14.2349 43.5762 14.9768 43.5762 15.7503C43.5762 16.5239 43.2689 17.2657 42.7219 17.8127C42.1749 18.3597 41.4331 18.667 40.6595 18.667C39.886 18.667 39.1441 18.3597 38.5971 17.8127C38.0501 17.2657 37.7428 16.5239 37.7428 15.7503C37.7428 14.9768 38.0501 14.2349 38.5971 13.6879C39.1441 13.1409 39.886 12.8337 40.6595 12.8337ZM28.4095 16.3337C31.5037 16.3337 34.4712 17.5628 36.6591 19.7507C38.847 21.9387 40.0762 24.9061 40.0762 28.0003C40.0762 31.0945 38.847 34.062 36.6591 36.2499C34.4712 38.4378 31.5037 39.667 28.4095 39.667C25.3153 39.667 22.3479 38.4378 20.1599 36.2499C17.972 34.062 16.7428 31.0945 16.7428 28.0003C16.7428 24.9061 17.972 21.9387 20.1599 19.7507C22.3479 17.5628 25.3153 16.3337 28.4095 16.3337ZM28.4095 21.0003C26.553 21.0003 24.7725 21.7378 23.4598 23.0506C22.147 24.3633 21.4095 26.1438 21.4095 28.0003C21.4095 29.8568 22.147 31.6373 23.4598 32.9501C24.7725 34.2628 26.553 35.0003 28.4095 35.0003C30.266 35.0003 32.0465 34.2628 33.3593 32.9501C34.672 31.6373 35.4095 29.8568 35.4095 28.0003C35.4095 26.1438 34.672 24.3633 33.3593 23.0506C32.0465 21.7378 30.266 21.0003 28.4095 21.0003Z" fill="#F6F8FF"/>
</svg>
