<svg width="57" height="57" viewBox="0 0 57 57" fill="none" xmlns="http://www.w3.org/2000/svg">
<g id="Vector">
<path id="Vector_2" d="M25.9429 54.1641V51.607C20.6157 51.0104 16.0445 48.8053 12.2293 44.9919C8.41415 41.1784 6.2091 36.6072 5.61415 31.2783H3.05708C2.33257 31.2783 1.72569 31.0328 1.23644 30.5418C0.747184 30.0509 0.501705 29.444 0.5 28.7212C0.5 27.9967 0.74548 27.3889 1.23644 26.898C1.7274 26.407 2.33428 26.1624 3.05708 26.1641H5.61415C6.21081 20.8369 8.41671 16.2657 12.2319 12.4505C16.047 8.63534 20.6174 6.43029 25.9429 5.83535V3.27827C25.9429 2.55376 26.1884 1.94688 26.6794 1.45763C27.1703 0.968376 27.7772 0.722896 28.5 0.721191C29.2245 0.721191 29.8322 0.966671 30.3232 1.45763C30.8141 1.94859 31.0588 2.55547 31.0571 3.27827V5.83535C36.3843 6.432 40.9555 8.6379 44.7707 12.4531C48.5858 16.2682 50.7909 20.8386 51.3858 26.1641H53.9429C54.6674 26.1641 55.2752 26.4096 55.7661 26.9005C56.2571 27.3915 56.5017 27.9984 56.5 28.7212C56.5 29.4457 56.2554 30.0534 55.7661 30.5444C55.2769 31.0353 54.6691 31.28 53.9429 31.2783H51.3858C50.7892 36.6055 48.5841 41.1767 44.7707 44.9919C40.9572 48.807 36.386 51.0121 31.0571 51.607V54.1641C31.0571 54.8886 30.8116 55.4963 30.3206 55.9873C29.8297 56.4783 29.2228 56.7229 28.5 56.7212C27.7755 56.7212 27.1678 56.4766 26.6768 55.9873C26.1858 55.498 25.9412 54.8903 25.9429 54.1641ZM28.5 46.6207C33.4437 46.6207 37.6629 44.8734 41.1575 41.3787C44.6522 37.884 46.3995 33.6649 46.3995 28.7212C46.3995 23.7775 44.6522 19.5583 41.1575 16.0637C37.6629 12.569 33.4437 10.8216 28.5 10.8216C23.5563 10.8216 19.3371 12.569 15.8425 16.0637C12.3478 19.5583 10.6005 23.7775 10.6005 28.7212C10.6005 33.6649 12.3478 37.884 15.8425 41.3787C19.3371 44.8734 23.5563 46.6207 28.5 46.6207ZM28.5 38.9495C25.6872 38.9495 23.2793 37.948 21.2763 35.9449C19.2732 33.9419 18.2717 31.534 18.2717 28.7212C18.2717 25.9084 19.2732 23.5005 21.2763 21.4974C23.2793 19.4944 25.6872 18.4929 28.5 18.4929C31.3128 18.4929 33.7207 19.4944 35.7237 21.4974C37.7268 23.5005 38.7283 25.9084 38.7283 28.7212C38.7283 31.534 37.7268 33.9419 35.7237 35.9449C33.7207 37.948 31.3128 38.9495 28.5 38.9495Z" fill="#0D4D8F"/>
</g>
</svg>
