<svg width="135" height="58" viewBox="0 0 135 58" fill="none" xmlns="http://www.w3.org/2000/svg">
<g id="Group">
<g id="Group_2">
<g id="Group_3">
<path id="Vector" d="M50.2539 13.3129H56.4569L59.4496 24.4792L62.5511 13.3129H68.5365L61.9526 30.9929H56.6746L50.2539 13.3129Z" fill="#0D4D8F"/>
<path id="Vector_2" d="M86.3839 23.8587H74.4675C74.5764 24.9754 74.8484 25.7818 75.2293 26.2781C75.8278 27.0225 76.5352 27.3947 77.4602 27.3947C78.0588 27.3947 78.6029 27.2086 79.147 26.8984C79.4735 26.7123 79.8 26.3401 80.1808 25.7818L86.0574 26.4022C85.1868 28.2012 84.0985 29.4419 82.7926 30.2483C81.5412 30.9928 79.6911 31.427 77.3514 31.427C75.2837 31.427 73.7058 31.1168 72.5087 30.4344C71.3116 29.7521 70.3322 28.6975 69.5704 27.2707C68.8086 25.8438 68.4277 24.1689 68.4277 22.1838C68.4277 19.3922 69.1895 17.1589 70.7675 15.484C72.3454 13.809 74.4675 12.9406 77.1882 12.9406C79.4191 12.9406 81.1603 13.3128 82.4662 14.0572C83.7721 14.8016 84.7515 15.9182 85.4045 17.4071C86.0574 18.8339 86.3839 20.757 86.3839 23.0523V23.8587ZM80.3441 20.5709C80.2353 19.2681 79.9088 18.3376 79.4191 17.7793C78.9294 17.221 78.2764 16.9108 77.4602 16.9108C76.5352 16.9108 75.7734 17.345 75.1749 18.2135C74.794 18.7718 74.5764 19.5163 74.4675 20.5709H80.3441Z" fill="#0D4D8F"/>
<path id="Vector_3" d="M100.37 24.0448L106.029 24.7892C105.702 26.154 105.213 27.2706 104.505 28.2632C103.798 29.2557 102.873 30.0001 101.785 30.5585C100.697 31.1168 99.2818 31.3649 97.595 31.3649C95.9626 31.3649 94.6023 31.1788 93.5141 30.8686C92.4258 30.4964 91.5008 29.9381 90.6846 29.1937C89.8684 28.4493 89.2699 27.5187 88.8346 26.4641C88.3993 25.4096 88.1816 24.0448 88.1816 22.3078C88.1816 20.5088 88.4537 18.9579 88.9978 17.7792C89.3787 16.9108 89.9228 16.1043 90.6302 15.4219C91.3376 14.7395 92.0449 14.1812 92.7523 13.871C93.895 13.3127 95.4185 13.0646 97.2141 13.0646C99.7171 13.0646 101.676 13.5609 102.982 14.6155C104.288 15.67 105.267 17.1589 105.757 19.144L100.152 20.0125C99.9892 19.2681 99.6627 18.7098 99.173 18.3376C98.6833 17.9653 98.0847 17.7792 97.3229 17.7792C96.3435 17.7792 95.5273 18.1515 94.9288 18.9579C94.3303 19.7644 94.0038 21.0051 94.0038 22.618C94.0038 24.0448 94.3303 25.1614 94.9288 25.9058C95.5273 26.6503 96.2891 27.0225 97.2141 27.0225C97.9759 27.0225 98.6288 26.7743 99.173 26.3401C99.7171 25.7197 100.098 25.0373 100.37 24.0448Z" fill="#0D4D8F"/>
<path id="Vector_4" d="M107.715 22.1838C107.715 19.5163 108.531 17.283 110.109 15.546C111.687 13.809 113.863 12.9406 116.584 12.9406C119.686 12.9406 122.025 13.9951 123.603 16.0423C124.855 17.7173 125.508 19.7024 125.508 22.1217C125.508 24.8513 124.692 27.0845 123.114 28.8215C121.536 30.5585 119.359 31.427 116.584 31.427C114.081 31.427 112.068 30.6826 110.544 29.2558C108.64 27.4568 107.715 25.0994 107.715 22.1838ZM113.646 22.1838C113.646 23.7347 113.918 24.9133 114.462 25.6577C115.006 26.4022 115.713 26.7744 116.584 26.7744C117.455 26.7744 118.162 26.4022 118.706 25.6577C119.25 24.9133 119.522 23.7347 119.522 22.0597C119.522 20.5088 119.25 19.3922 118.706 18.6478C118.162 17.9034 117.455 17.5311 116.638 17.5311C115.768 17.5311 115.061 17.9034 114.516 18.6478C113.918 19.4542 113.646 20.6329 113.646 22.1838Z" fill="#0D4D8F"/>
</g>
</g>
<g id="Group_4">
<g id="Group_5">
<path id="Vector_5" d="M43.4038 50.6293L43.0078 40.623H44.5256L44.5916 45.739C44.5916 47.018 44.5916 47.9209 44.5256 48.6732C44.7896 47.8456 45.0535 47.018 45.5155 45.739L47.4952 40.5477H49.145L49.211 45.5885C49.211 46.8676 49.211 47.7704 49.145 48.598C49.409 47.6199 49.7389 46.7171 50.0689 45.6638L51.9826 40.5477H53.5664L49.6069 50.5541H47.9572L47.8252 45.739C47.8252 44.6105 47.8252 43.7829 47.8912 42.6543H47.8252C47.4952 43.7076 47.2313 44.6105 46.8353 45.6638L44.9216 50.5541H43.4038V50.6293Z" fill="#0D4D8F"/>
<path id="Vector_6" d="M52.709 50.6294L53.8968 43.4068H55.4146L54.2268 50.6294H52.709ZM54.1608 41.4506C54.1608 40.8488 54.5567 40.3973 55.0847 40.3973C55.5466 40.3973 55.8766 40.7735 55.8766 41.3002C55.8766 41.9021 55.4806 42.3535 54.9527 42.3535C54.4908 42.3535 54.1608 41.9773 54.1608 41.4506Z" fill="#0D4D8F"/>
<path id="Vector_7" d="M55.8105 50.6294L56.6024 45.6638C56.7344 44.8362 56.8664 44.0838 56.9324 43.4067H58.2522L58.1202 44.6857C58.7142 43.7076 59.5061 43.2562 60.3639 43.2562C61.2878 43.2562 61.9477 43.8581 61.9477 45.2124C61.9477 45.5133 61.8818 46.04 61.8158 46.4161L61.0899 50.6294H59.5721L60.232 46.5666C60.298 46.2657 60.298 45.9647 60.298 45.739C60.298 45.1371 60.1 44.6857 59.5061 44.6857C58.8461 44.6857 57.9223 45.6638 57.6583 47.319L57.1304 50.6294H55.8105Z" fill="#0D4D8F"/>
<path id="Vector_8" d="M69.933 40.0964L68.6132 48.0714C68.4812 48.899 68.3492 49.8771 68.3492 50.6295H66.9634L67.0954 49.3505C66.5014 50.3285 65.7755 50.7799 64.9177 50.7799C63.7958 50.7799 63.0039 49.7266 63.0039 48.0714C63.0039 45.5134 64.6537 43.1811 66.9634 43.1811C67.2933 43.1811 67.6893 43.2563 67.9533 43.4068L68.4812 40.0964H69.933ZM67.6893 44.9115C67.4913 44.7611 67.2274 44.6106 66.8314 44.6106C65.5116 44.6106 64.5877 46.2658 64.5877 47.8457C64.5877 48.7486 64.9177 49.4257 65.5776 49.4257C66.2375 49.4257 67.0294 48.5981 67.2933 47.0934L67.6893 44.9115Z" fill="#0D4D8F"/>
<path id="Vector_9" d="M76.2018 46.2657C76.2018 48.6733 74.684 50.7799 72.5063 50.7799C70.9225 50.7799 69.9326 49.5008 69.9326 47.7704C69.9326 45.3629 71.4504 43.181 73.5621 43.181C75.2779 43.2563 76.2018 44.6857 76.2018 46.2657ZM71.5164 47.7704C71.5164 48.7485 71.9784 49.4256 72.7702 49.4256C73.8921 49.4256 74.684 47.62 74.684 46.1905C74.684 45.4381 74.42 44.5353 73.4962 44.5353C72.1763 44.6105 71.5164 46.4162 71.5164 47.7704Z" fill="#0D4D8F"/>
<path id="Vector_10" d="M78.5782 43.4066L78.7102 46.9427C78.7102 47.7703 78.7102 48.3722 78.7102 49.0493C78.9082 48.4474 79.1721 47.7703 79.4361 47.0179L80.9539 43.4066H82.2077L82.4717 46.9427C82.5377 47.7703 82.5377 48.4474 82.5377 49.0493C82.7357 48.3722 82.9336 47.6951 83.1976 46.9427L84.5834 43.4066H86.1012L82.9996 50.6293H81.6138L81.3498 47.4694C81.2838 46.7922 81.2838 46.1151 81.2838 45.3627C80.9539 46.2656 80.8219 46.7922 80.5579 47.3941L79.1721 50.6293H77.7863L77.1924 43.4066H78.5782Z" fill="#0D4D8F"/>
<path id="Vector_11" d="M86.0352 49.0494C86.3651 49.2751 86.9591 49.5008 87.553 49.5008C88.1469 49.5008 88.5429 49.0494 88.5429 48.598C88.5429 48.1466 88.3449 47.8456 87.685 47.4694C86.9591 47.018 86.4311 46.4161 86.4311 45.5885C86.4311 44.1591 87.487 43.2562 89.0048 43.2562C89.6647 43.2562 90.1926 43.4067 90.5226 43.6324L90.1267 44.9114C89.8627 44.7609 89.4667 44.6105 88.9388 44.6105C88.3449 44.6105 87.9489 44.9867 87.9489 45.4381C87.9489 45.8142 88.2129 46.1152 88.7408 46.4161C89.4007 46.8676 90.0607 47.4694 90.0607 48.3723C90.0607 49.9522 88.8728 50.8551 87.355 50.8551C86.6291 50.8551 85.9032 50.6294 85.5732 50.3284L86.0352 49.0494Z" fill="#0D4D8F"/>
<path id="Vector_12" d="M98.573 50.6294C98.375 50.4036 98.243 50.1027 98.0451 49.877C97.3851 50.4789 96.6592 50.8551 95.6694 50.8551C94.0856 50.8551 93.0957 49.8018 93.0957 48.297C93.0957 46.7923 94.1516 45.739 95.2074 45.1371V45.0619C94.9435 44.5352 94.7455 43.9334 94.7455 43.3315C94.7455 41.7515 95.8013 40.5477 97.3191 40.5477C98.573 40.5477 99.3649 41.4506 99.3649 42.6543C99.3649 43.8581 98.639 44.6857 97.1872 45.5133V45.5885C97.5831 46.3409 98.111 47.2437 98.507 47.9209C99.0349 47.1685 99.4309 46.2657 99.7608 45.2124H101.147C100.685 46.7923 100.091 48.0713 99.1669 49.0494C99.4969 49.576 99.8928 50.1779 100.355 50.7798H98.573V50.6294ZM97.3851 48.8237C96.9892 48.1466 96.2633 47.0933 95.7354 46.04C95.2734 46.4161 94.6135 47.018 94.6135 47.9209C94.6135 48.7485 95.0754 49.4256 96.0653 49.4256C96.5932 49.5008 97.0552 49.1999 97.3851 48.8237ZM96.1313 43.1058C96.1313 43.6324 96.2633 44.0838 96.5273 44.46C97.3851 44.0086 97.9791 43.4067 97.9791 42.5791C97.9791 42.0525 97.7811 41.601 97.1872 41.601C96.5932 41.6763 96.1313 42.2782 96.1313 43.1058Z" fill="#0D4D8F"/>
<path id="Vector_13" d="M105.173 40.7734C105.899 40.623 106.69 40.5477 107.482 40.5477C108.868 40.5477 109.99 40.9991 110.716 41.7515C111.31 42.3534 111.706 43.3315 111.706 44.6857C111.706 46.5666 111.046 48.297 109.924 49.3503C108.934 50.3284 107.614 50.7046 105.833 50.7046C104.909 50.7046 104.051 50.6293 103.589 50.5541L105.173 40.7734ZM105.239 49.1999C105.569 49.2751 105.833 49.2751 106.229 49.2751C107.416 49.2751 108.34 48.8237 109 48.0713C109.66 47.2437 110.056 46.04 110.056 44.7609C110.056 43.1058 109.264 41.9772 107.482 41.9772C107.152 41.9772 106.756 41.9772 106.492 42.0524L105.239 49.1999Z" fill="#0D4D8F"/>
<path id="Vector_14" d="M118.503 46.2657C118.503 48.6733 116.985 50.7799 114.807 50.7799C113.223 50.7799 112.233 49.5008 112.233 47.7704C112.233 45.3629 113.751 43.181 115.863 43.181C117.579 43.2563 118.503 44.6857 118.503 46.2657ZM113.817 47.7704C113.817 48.7485 114.279 49.4256 115.071 49.4256C116.193 49.4256 116.985 47.62 116.985 46.1905C116.985 45.4381 116.721 44.5353 115.797 44.5353C114.477 44.6105 113.817 46.4162 113.817 47.7704Z" fill="#0D4D8F"/>
<path id="Vector_15" d="M125.498 46.2657C125.498 48.6733 123.98 50.7799 121.802 50.7799C120.218 50.7799 119.229 49.5008 119.229 47.7704C119.229 45.3629 120.746 43.181 122.858 43.181C124.574 43.2563 125.498 44.6857 125.498 46.2657ZM120.746 47.7704C120.746 48.7485 121.208 49.4256 122 49.4256C123.122 49.4256 123.914 47.62 123.914 46.1905C123.914 45.4381 123.65 44.5353 122.726 44.5353C121.472 44.6105 120.746 46.4162 120.746 47.7704Z" fill="#0D4D8F"/>
<path id="Vector_16" d="M125.96 50.6294L126.686 46.1904C126.884 45.1371 126.95 44.0838 127.016 43.4067H128.336C128.27 43.8581 128.27 44.3848 128.204 44.9114H128.27C128.732 43.9334 129.392 43.2562 130.249 43.2562C130.381 43.2562 130.447 43.2562 130.579 43.2562L130.249 44.9114C130.183 44.9114 130.051 44.9114 129.985 44.9114C128.93 44.9114 128.204 46.1904 127.94 47.6951L127.478 50.6294H125.96Z" fill="#0D4D8F"/>
<path id="Vector_17" d="M130.513 49.0494C130.843 49.2751 131.437 49.5008 132.031 49.5008C132.624 49.5008 133.02 49.0494 133.02 48.598C133.02 48.1466 132.822 47.8456 132.163 47.4694C131.437 47.018 130.909 46.4161 130.909 45.5885C130.909 44.1591 131.965 43.2562 133.482 43.2562C134.142 43.2562 134.67 43.4067 135 43.6324L134.604 44.9114C134.34 44.7609 133.944 44.6105 133.416 44.6105C132.822 44.6105 132.426 44.9867 132.426 45.4381C132.426 45.8142 132.69 46.1152 133.218 46.4161C133.878 46.8676 134.538 47.4694 134.538 48.3723C134.538 49.9522 133.35 50.8551 131.833 50.8551C131.107 50.8551 130.381 50.6294 130.051 50.3284L130.513 49.0494Z" fill="#0D4D8F"/>
</g>
</g>
<g id="Group_6">
<g id="Group_7">
<path id="Vector_18" d="M125.876 34.678H51.3994V36.4084H125.876V34.678Z" fill="#F7931E"/>
</g>
</g>
<path id="Vector_19" d="M28.3482 3.49942L3.748 24.9831L24.3245 53.7309L48.9429 32.3065L28.3482 3.49942ZM43.5555 31.4028L34.9187 38.9472L25.8409 26.2643L34.4776 18.7199L43.5555 31.4028ZM33.249 16.9696L24.6122 24.514L19.2021 17.0229L27.8388 9.47846L33.249 16.9696ZM9.11716 25.8276L17.7539 18.2831L33.4706 40.2074L24.8338 47.7519L9.11716 25.8276Z" fill="#F7931E"/>
</g>
</svg>
