<svg width="17" height="16" viewBox="0 0 17 16" fill="none" xmlns="http://www.w3.org/2000/svg">
<g id="bxs:pen">
<path id="Vector" d="M8.13437 4.66564H5.54437C5.27067 4.66555 5.00358 4.7497 4.77935 4.90666C4.55513 5.06362 4.38464 5.28577 4.29104 5.54297L1.78437 12.4376C1.6957 12.681 1.75637 12.9536 1.93904 13.137L2.13437 13.3323L6.4157 9.05097C6.41504 9.03364 6.41037 9.0163 6.41037 8.99897C6.41037 8.80119 6.46902 8.60785 6.5789 8.4434C6.68878 8.27895 6.84496 8.15078 7.02769 8.07509C7.21041 7.9994 7.41148 7.9796 7.60546 8.01818C7.79944 8.05677 7.97762 8.15201 8.11748 8.29186C8.25733 8.43172 8.35257 8.6099 8.39116 8.80388C8.42974 8.99786 8.40994 9.19893 8.33425 9.38165C8.25856 9.56438 8.13039 9.72056 7.96594 9.83044C7.80149 9.94032 7.60815 9.99897 7.41037 9.99897C7.39304 9.99897 7.3757 9.9943 7.35837 9.99364L3.07704 14.275L3.27237 14.4703C3.36201 14.5602 3.4755 14.6225 3.59942 14.6499C3.72335 14.6773 3.85254 14.6686 3.9717 14.625L10.8664 12.1176C11.1236 12.024 11.3457 11.8535 11.5027 11.6293C11.6596 11.4051 11.7438 11.138 11.7437 10.8643V8.2743L13.0764 6.9423L9.46704 3.33297L8.13437 4.66564ZM13.703 6.0403L10.3697 2.70697L11.783 1.29297L15.1164 4.6263L13.703 6.0403Z" fill="#E4E4E4"/>
</g>
</svg>
