<svg width="56" height="57" viewBox="0 0 56 57" fill="none" xmlns="http://www.w3.org/2000/svg">
<g id="bxs:pen">
<path id="Vector" d="M27.0357 17.0524H17.9707C17.0128 17.0521 16.078 17.3466 15.2932 17.896C14.5084 18.4453 13.9117 19.2229 13.5841 20.123L4.81073 44.2544C4.50039 45.106 4.71273 46.0604 5.35206 46.702L6.03573 47.3857L21.0204 32.401C21.0181 32.3404 21.0017 32.2797 21.0017 32.219C21.0017 31.5268 21.207 30.8501 21.5916 30.2746C21.9762 29.699 22.5228 29.2504 23.1623 28.9855C23.8019 28.7206 24.5056 28.6512 25.1845 28.7863C25.8635 28.9213 26.4871 29.2547 26.9766 29.7442C27.4661 30.2337 27.7994 30.8573 27.9345 31.5362C28.0695 32.2152 28.0002 32.9189 27.7353 33.5584C27.4704 34.198 27.0218 34.7446 26.4462 35.1292C25.8707 35.5138 25.194 35.719 24.5017 35.719C24.4411 35.719 24.3804 35.7027 24.3197 35.7004L9.33506 50.685L10.0187 51.3687C10.3324 51.6832 10.7297 51.9013 11.1634 51.9973C11.5972 52.0932 12.0493 52.0629 12.4664 51.91L36.5977 43.1344C37.4979 42.8068 38.2755 42.21 38.8248 41.4253C39.3742 40.6405 39.6687 39.7057 39.6684 38.7477V29.6827L44.3327 25.0207L31.7001 12.388L27.0357 17.0524ZM46.5261 21.8637L34.8594 10.197L39.8061 5.24805L51.4727 16.9147L46.5261 21.8637Z" fill="#0D4D8F"/>
</g>
</svg>
