<svg width="57" height="57" viewBox="0 0 57 57" fill="none" xmlns="http://www.w3.org/2000/svg">
<g id="zondicons:phone" clip-path="url(#clip0_84_3348)">
<path id="Vector" d="M56.5 52.1012V53.9212C56.5 54.6638 56.205 55.376 55.6799 55.9011C55.1548 56.4262 54.4426 56.7212 53.7 56.7212H48.1C35.4757 56.7212 23.3684 51.7062 14.4417 42.7795C5.51499 33.8527 0.5 21.7455 0.5 9.12119L0.5 3.52119C0.5 2.77859 0.794999 2.06639 1.3201 1.54129C1.8452 1.01619 2.55739 0.721191 3.3 0.721191L14.5 0.721191C15.2426 0.721191 15.9548 1.01619 16.4799 1.54129C17.005 2.06639 17.3 2.77859 17.3 3.52119V14.7212C17.3 16.2892 16.432 18.3892 15.34 19.4812L9.348 25.4732C13.604 35.5532 21.668 43.6172 31.748 47.8732L37.684 41.9372C38.804 40.8172 40.904 39.9492 42.444 39.9492H53.7C54.4377 39.9566 55.1428 40.2548 55.6618 40.7791C56.1809 41.3034 56.472 42.0114 56.472 42.7492V52.1292L56.5 52.1012Z" fill="#0D4D8F"/>
</g>
<defs>
<clipPath id="clip0_84_3348">
<rect width="56" height="56" fill="white" transform="translate(0.5 0.721191)"/>
</clipPath>
</defs>
</svg>
