<svg width="21" height="21" viewBox="0 0 21 21" fill="none" xmlns="http://www.w3.org/2000/svg">
<g id="zondicons:phone" clip-path="url(#clip0_502_4287)">
<path id="Vector" d="M20.5 19.06V19.71C20.5 19.9752 20.3946 20.2295 20.2071 20.4171C20.0196 20.6046 19.7652 20.71 19.5 20.71H17.5C12.9913 20.71 8.6673 18.9189 5.47918 15.7308C2.29107 12.5427 0.5 8.21864 0.5 3.70996L0.5 1.70996C0.5 1.44474 0.605357 1.19039 0.792893 1.00285C0.98043 0.815318 1.23478 0.709961 1.5 0.709961H5.5C5.76522 0.709961 6.01957 0.815318 6.20711 1.00285C6.39464 1.19039 6.5 1.44474 6.5 1.70996V5.70996C6.5 6.26996 6.19 7.01996 5.8 7.40996L3.66 9.54996C5.18 13.15 8.06 16.03 11.66 17.55L13.78 15.43C14.18 15.03 14.93 14.72 15.48 14.72H19.5C19.7635 14.7226 20.0153 14.8291 20.2007 15.0164C20.386 15.2036 20.49 15.4565 20.49 15.72V19.07L20.5 19.06Z" fill="#F7931E"/>
</g>
<defs>
<clipPath id="clip0_502_4287">
<rect width="20" height="20" fill="white" transform="translate(0.5 0.709961)"/>
</clipPath>
</defs>
</svg>
