<svg width="20" height="21" viewBox="0 0 20 21" fill="none" xmlns="http://www.w3.org/2000/svg">
<g id="zondicons:phone" clip-path="url(#clip0_289_4346)">
<path id="Vector" d="M20 18.85V19.5C20 19.7652 19.8946 20.0196 19.7071 20.2071C19.5196 20.3946 19.2652 20.5 19 20.5H17C12.4913 20.5 8.1673 18.7089 4.97918 15.5208C1.79107 12.3327 0 8.00868 0 3.5L0 1.5C0 1.23478 0.105357 0.98043 0.292893 0.792893C0.48043 0.605357 0.734784 0.5 1 0.5H5C5.26522 0.5 5.51957 0.605357 5.70711 0.792893C5.89464 0.98043 6 1.23478 6 1.5V5.5C6 6.06 5.69 6.81 5.3 7.2L3.16 9.34C4.68 12.94 7.56 15.82 11.16 17.34L13.28 15.22C13.68 14.82 14.43 14.51 14.98 14.51H19C19.2635 14.5126 19.5153 14.6192 19.7007 14.8064C19.886 14.9937 19.99 15.2465 19.99 15.51V18.86L20 18.85Z" fill="#FDFDFD"/>
</g>
<defs>
<clipPath id="clip0_289_4346">
<rect width="20" height="20" fill="white" transform="translate(0 0.5)"/>
</clipPath>
</defs>
</svg>
