<svg width="56" height="57" viewBox="0 0 56 57" fill="none" xmlns="http://www.w3.org/2000/svg">
<g id="ion:water-outline">
<path id="Vector" d="M43.75 35.8803C43.75 45.5458 37.6655 51.6303 28 51.6303C18.3345 51.6303 12.25 45.5458 12.25 35.8803C12.25 25.5083 23.5408 11.5061 27.0036 7.45591C27.1268 7.31201 27.2797 7.19649 27.4518 7.11729C27.6239 7.03808 27.8111 6.99707 28.0005 6.99707C28.19 6.99707 28.3772 7.03808 28.5493 7.11729C28.7214 7.19649 28.8743 7.31201 28.9975 7.45591C32.4592 11.5061 43.75 25.5083 43.75 35.8803Z" stroke="#0D4D8F" stroke-width="5" stroke-miterlimit="10"/>
<path id="Vector_2" d="M37.625 36.7554C37.625 38.844 36.7953 40.847 35.3185 42.3238C33.8416 43.8007 31.8386 44.6304 29.75 44.6304" stroke="#0D4D8F" stroke-width="5" stroke-linecap="round" stroke-linejoin="round"/>
</g>
</svg>
