<svg width="56" height="57" viewBox="0 0 56 57" fill="none" xmlns="http://www.w3.org/2000/svg">
<g id="mdi:arm-flex-outline">
<path id="Vector" d="M16.3333 18.987V38.797H25.8533L27.2533 36.6737C29.96 32.497 34.8367 30.6304 38.43 30.6304C39.6667 30.6304 40.7167 30.8404 41.51 31.2137C43.6333 32.1704 44.2167 33.967 44.3333 35.2737C44.52 37.9104 43.1667 40.617 40.8333 42.2037C38.7333 43.6504 33.6933 45.2137 27.6967 45.2137C23.6133 45.2137 17.7567 44.4904 11.9467 41.247C12.6233 35.5304 14 26.267 16.3333 18.987ZM16.3333 7.88037C9.33333 17.4237 7 43.6737 7 43.6737C13.7667 48.2704 21.1867 49.8804 27.6967 49.8804C34.6733 49.8804 40.5767 48.037 43.4933 46.0537C50.4933 41.2937 51.1933 30.537 43.4933 26.967C42 26.2904 40.2733 25.9637 38.43 25.9637C33.0633 25.9637 26.8333 28.787 23.3333 34.1304H21V17.4237H25.6667L28 10.2137L16.3333 7.88037Z" fill="#0D4D8F"/>
</g>
</svg>
