<svg width="56" height="56" viewBox="0 0 56 56" fill="none" xmlns="http://www.w3.org/2000/svg">
<g id="mdi:work-outline">
<path id="Vector" d="M46.667 14.0001C48.0203 14.0001 49.117 14.4667 49.9803 15.3767C50.867 16.3334 51.3337 17.3834 51.3337 18.6667V44.3334C51.3337 45.6167 50.867 46.6667 49.9803 47.6234C49.117 48.5334 48.0203 49.0001 46.667 49.0001H9.33366C7.98033 49.0001 6.88366 48.5334 6.02033 47.6234C5.13366 46.6667 4.66699 45.6167 4.66699 44.3334V18.6667C4.66699 17.3834 5.13366 16.3334 6.02033 15.3767C6.88366 14.4667 7.98033 14.0001 9.33366 14.0001H18.667V9.33341C18.667 7.98008 19.1337 6.88341 20.0203 6.02008C20.8837 5.13341 21.9803 4.66675 23.3337 4.66675H32.667C34.0203 4.66675 35.117 5.13341 35.9803 6.02008C36.867 6.88341 37.3337 7.98008 37.3337 9.33341V14.0001H46.667ZM9.33366 18.6667V44.3334H46.667V18.6667H9.33366ZM32.667 14.0001V9.33341H23.3337V14.0001H32.667Z" fill="#0D4D8F"/>
</g>
</svg>
