<svg width="202" height="195" viewBox="0 0 202 195" fill="none" xmlns="http://www.w3.org/2000/svg">
<g id="6 (4) 1" clip-path="url(#clip0_198_20104)">
<path id="Vector" d="M108.886 64.6289C108.886 63.4365 107.92 62.4712 106.729 62.4712H87.8169C86.626 62.4712 85.6602 63.4365 85.6602 64.6289C85.6602 65.8193 86.626 66.7846 87.8169 66.7846H106.729C107.92 66.7846 108.886 65.8193 108.886 64.6289Z" fill="#F6F6F6"/>
<path id="Vector_2" d="M148.7 64.6289C148.7 63.4365 147.736 62.4712 146.543 62.4712H129.423C128.232 62.4712 127.267 63.4365 127.267 64.6289C127.267 65.8193 128.232 66.7846 129.423 66.7846H146.543C147.736 66.7846 148.7 65.8193 148.7 64.6289Z" fill="#F6F6F6"/>
<g id="Clip path group">
<mask id="mask0_198_20104" style="mask-type:luminance" maskUnits="userSpaceOnUse" x="0" y="9" width="191" height="59">
<g id="28909d8de8">
<path id="Vector_3" d="M0 9.2085H190.149V67.102H0V9.2085Z" fill="white"/>
</g>
</mask>
<g mask="url(#mask0_198_20104)">
<g id="Group">
<path id="Vector_4" d="M65.1239 66.7845C66.3149 66.7845 67.2807 65.8192 67.2807 64.6289C67.2807 63.4364 66.3149 62.4711 65.1239 62.4711H44.9428L41.269 53.9768H180.794L184.466 62.4711H169.436C168.245 62.4711 167.279 63.4364 167.279 64.6289C167.279 65.8192 168.245 66.7845 169.436 66.7845H187.751C188.476 66.7845 189.154 66.4207 189.554 65.8129C189.951 65.2051 190.019 64.4396 189.731 63.7729L184.19 50.9631C184.188 50.9547 184.184 50.9483 184.18 50.9399C184.167 50.9147 184.155 50.8874 184.142 50.8621C184.131 50.8411 184.121 50.818 184.11 50.799C184.098 50.7738 184.083 50.7507 184.068 50.7254C184.056 50.7044 184.045 50.6834 184.03 50.6623C184.018 50.6392 184.001 50.6182 183.988 50.5971C183.971 50.5761 183.957 50.553 183.94 50.5319C183.925 50.5109 183.91 50.4941 183.896 50.4752C183.879 50.452 183.86 50.4289 183.841 50.4079C183.837 50.4036 183.833 50.3973 183.828 50.3931L148.161 9.9783C147.75 9.51563 147.163 9.24854 146.545 9.24854H2.31874C1.47076 9.24854 0.700633 9.74696 0.351342 10.5188C0.00205013 11.2927 0.138821 12.1992 0.700633 12.8343L36.1411 52.9904L41.5446 65.4848C41.8876 66.2735 42.664 66.7845 43.5246 66.7845H65.1239ZM61.9277 49.6634L52.8566 38.9208H60.9282L70.0014 49.6634H61.9277ZM75.7184 49.6634L66.6452 38.9208H89.8794L98.9505 49.6634H75.7184ZM129.577 34.557H112.4L103.327 23.8165H120.503L129.577 34.557ZM126.214 23.8165H134.286L143.357 34.5591H135.287L126.214 23.8165ZM106.698 34.557H83.4638L74.3928 23.8165H97.6249L106.698 34.557ZM77.7468 34.557H69.6752L60.6021 23.8165H68.6736L77.7468 34.557ZM104.655 49.6634L95.5817 38.9208H112.756L121.829 49.6634H104.655ZM127.54 49.6634L118.467 38.9208H126.538L135.611 49.6634H127.54ZM141.331 49.6634L132.257 38.9208H155.546L164.619 49.6634H141.331ZM177.43 49.6634H170.265L161.194 38.9208H167.95L177.43 49.6634ZM164.142 34.6074L149.076 34.557L140.003 23.8165H154.618L164.142 34.6074ZM145.528 13.564L150.795 19.501H126.923L121.657 13.564H145.528ZM115.834 13.564L121.101 19.501H97.9889L92.72 13.564H115.834ZM86.8831 13.564L92.1498 19.501H84.1982L78.9314 13.564H86.8831ZM73.1029 13.564L78.3696 19.501H61.2564L55.9897 13.564H73.1029ZM63.9645 34.557H46.7335L37.6603 23.8165H54.8913L63.9645 34.557ZM49.6078 13.564L54.8745 19.501H31.7055L26.4388 13.564H49.6078ZM7.0994 13.564H20.5997L25.8665 19.501H12.3409L7.0994 13.564ZM16.1473 23.8165H32.0127L41.0859 34.5591H25.6266L16.1473 23.8165ZM29.8728 38.8725L47.1459 38.9208L56.2191 49.6634H38.9881L29.8728 38.8725Z" fill="#F6F6F6"/>
</g>
</g>
</g>
<path id="Vector_5" d="M56.2229 70.7803C55.518 70.7803 54.8573 71.1252 54.4533 71.7056C54.4028 71.7771 53.216 73.4848 52.0124 75.5332C49.6368 79.5753 49.3633 81.2662 49.3633 82.1853C49.3633 85.8635 52.4396 88.8562 56.2229 88.8562C60.0062 88.8562 63.0846 85.8635 63.0846 82.1853C63.0846 81.2662 62.8089 79.5753 60.4354 75.5332C59.2318 73.4848 58.0451 71.7771 57.9946 71.7056C57.5906 71.1252 56.9299 70.7803 56.2229 70.7803ZM56.2229 84.5407C54.8194 84.5407 53.6768 83.485 53.6768 82.1895C53.6789 82.1474 53.7273 81.1295 55.7431 77.7015C55.903 77.4281 56.0651 77.1589 56.2229 76.9002C56.3807 77.161 56.5427 77.4281 56.7047 77.7015C58.7121 81.1148 58.7689 82.139 58.7689 82.1874C58.7689 83.485 57.6263 84.5407 56.2229 84.5407Z" fill="#F6F6F6"/>
<path id="Vector_6" d="M76.7533 60.2649C76.0463 60.2649 75.3856 60.6098 74.9816 61.1902C74.9332 61.2618 73.7464 62.9694 72.5407 65.0178C70.1672 69.06 69.8916 70.7487 69.8916 71.6699C69.8916 75.3482 72.97 78.3408 76.7533 78.3408C80.5366 78.3408 83.6129 75.3482 83.6129 71.6699C83.6129 70.7508 83.3393 69.06 80.9637 65.0178C79.7601 62.9694 78.5734 61.2618 78.5229 61.1902C78.121 60.6098 77.4582 60.2649 76.7533 60.2649ZM76.7533 74.0253C75.3477 74.0253 74.2072 72.9696 74.2072 71.672C74.2072 71.632 74.2556 70.612 76.2714 67.1861C76.4335 66.9127 76.5955 66.6435 76.7533 66.3848C76.9069 66.6372 77.0647 66.898 77.2204 67.1651C79.2404 70.5952 79.2972 71.6236 79.2993 71.672C79.2972 72.9696 78.1568 74.0253 76.7533 74.0253Z" fill="#F6F6F6"/>
<path id="Vector_7" d="M97.2543 70.7803C96.5473 70.7803 95.8866 71.1252 95.4826 71.7056C95.4342 71.7771 94.2474 73.4848 93.0417 75.5332C90.6682 79.5753 90.3926 81.2662 90.3926 82.1853C90.3926 85.8635 93.471 88.8562 97.2543 88.8562C101.035 88.8562 104.114 85.8635 104.114 82.1853C104.114 81.2662 103.838 79.5753 101.465 75.5332C100.261 73.4848 99.0744 71.7771 99.0239 71.7056C98.6199 71.1252 97.9592 70.7803 97.2543 70.7803ZM97.2543 84.5407C95.8487 84.5407 94.7082 83.485 94.7082 82.1895C94.7082 82.1474 94.7566 81.1295 96.7724 77.7015C96.9344 77.4281 97.0943 77.1589 97.2543 76.9002C97.4121 77.161 97.5741 77.4281 97.734 77.7015C99.7414 81.1148 99.7982 82.139 99.8003 82.1874C99.7982 83.485 98.6577 84.5407 97.2543 84.5407Z" fill="#F6F6F6"/>
<path id="Vector_8" d="M117.782 60.2649C117.078 60.2649 116.417 60.6098 116.013 61.1902C115.962 61.2618 114.776 62.9694 113.572 65.0178C111.196 69.06 110.923 70.7487 110.923 71.6699C110.923 75.3482 113.999 78.3408 117.782 78.3408C121.566 78.3408 124.642 75.3482 124.642 71.6699C124.642 70.7508 124.368 69.06 121.995 65.0178C120.791 62.9694 119.603 61.2618 119.552 61.1902C119.15 60.6098 118.489 60.2649 117.782 60.2649ZM117.782 74.0253C116.379 74.0253 115.236 72.9696 115.236 71.672C115.236 71.632 115.287 70.612 117.303 67.1861C117.463 66.9127 117.625 66.6435 117.782 66.3848C117.94 66.6435 118.102 66.9127 118.264 67.1861C120.272 70.5994 120.326 71.6236 120.328 71.672C120.328 72.9696 119.186 74.0253 117.782 74.0253Z" fill="#F6F6F6"/>
<path id="Vector_9" d="M137.44 70.7803C136.733 70.7803 136.072 71.1252 135.668 71.7056C135.62 71.7771 134.433 73.4848 133.227 75.5332C130.854 79.5753 130.578 81.2662 130.578 82.1853C130.578 85.8635 133.657 88.8562 137.44 88.8562C141.223 88.8562 144.299 85.8635 144.299 82.1853C144.299 81.2662 144.026 79.5753 141.65 75.5332C140.447 73.4848 139.26 71.7771 139.209 71.7056C138.805 71.1252 138.145 70.7803 137.44 70.7803ZM137.44 84.5407C136.034 84.5407 134.894 83.485 134.894 82.1895C134.894 82.1474 134.942 81.1295 136.958 77.7015C137.12 77.4281 137.282 77.1589 137.44 76.9002C137.598 77.161 137.76 77.4281 137.92 77.7015C139.927 81.1148 139.984 82.139 139.986 82.1874C139.984 83.485 138.843 84.5407 137.44 84.5407Z" fill="#F6F6F6"/>
<path id="Vector_10" d="M157.968 60.2649C157.263 60.2649 156.602 60.6098 156.198 61.1902C156.148 61.2618 154.961 62.9694 153.758 65.0178C151.382 69.06 151.108 70.7487 151.108 71.6699C151.108 75.3482 154.185 78.3408 157.968 78.3408C161.751 78.3408 164.83 75.3482 164.83 71.6699C164.83 70.7508 164.554 69.06 162.181 65.0178C160.977 62.9694 159.79 61.2618 159.74 61.1902C159.336 60.6098 158.675 60.2649 157.968 60.2649ZM157.968 74.0253C156.565 74.0253 155.422 72.9696 155.422 71.672C155.424 71.632 155.472 70.612 157.488 67.1861C157.648 66.9127 157.81 66.6435 157.968 66.3848C158.126 66.6435 158.288 66.9127 158.45 67.1861C160.457 70.5994 160.514 71.6236 160.514 71.672C160.514 72.9696 159.371 74.0253 157.968 74.0253Z" fill="#F6F6F6"/>
<path id="Vector_11" d="M178.469 70.7803C177.764 70.7803 177.103 71.1252 176.699 71.7056C176.649 71.7771 175.462 73.4848 174.259 75.5332C171.883 79.5753 171.609 81.2662 171.609 82.1853C171.609 85.8635 174.686 88.8562 178.469 88.8562C182.252 88.8562 185.329 85.8635 185.329 82.1853C185.329 81.2662 185.055 79.5753 182.682 75.5332C181.478 73.4848 180.289 71.7771 180.239 71.7056C179.837 71.1252 179.174 70.7803 178.469 70.7803ZM178.469 84.5407C177.065 84.5407 175.923 83.485 175.923 82.1895C175.923 82.1474 175.973 81.1295 177.989 77.7015C178.149 77.4281 178.311 77.1589 178.469 76.9002C178.627 77.161 178.789 77.4281 178.951 77.7015C180.958 81.1148 181.013 82.139 181.015 82.1874C181.013 83.485 179.872 84.5407 178.469 84.5407Z" fill="#F6F6F6"/>
<g id="Clip path group_2">
<mask id="mask1_198_20104" style="mask-type:luminance" maskUnits="userSpaceOnUse" x="42" y="91" width="160" height="104">
<g id="06e2c81e56">
<path id="Vector_12" d="M42.0156 91.8679H202V194.549H42.0156V91.8679Z" fill="white"/>
</g>
</mask>
<g mask="url(#mask1_198_20104)">
<g id="Group_2">
<path id="Vector_13" d="M199.847 92.2275H79.3839C78.1929 92.2275 77.2271 93.1929 77.2271 94.3853C77.2271 105.023 70.3233 113.675 61.8372 113.675C53.934 113.675 47.4005 106.167 46.542 96.5431H68.0761C69.267 96.5431 70.2328 95.5777 70.2328 94.3853C70.2328 93.1929 69.267 92.2275 68.0761 92.2275H44.2906C43.7182 92.2275 43.169 92.4547 42.765 92.8606C42.361 93.2644 42.1338 93.8133 42.1338 94.3853C42.1338 100.61 44.1306 106.482 47.7603 110.918C49.5594 113.115 51.6636 114.848 54.016 116.064C56.4884 117.342 59.1207 117.99 61.8372 117.99H153.951V135.402L137.673 154.428C137.671 154.43 137.408 154.727 137.286 155.053C137.152 155.417 137.158 155.816 137.158 155.818L137.086 192.357C137.086 193.55 138.052 194.515 139.243 194.515C140.434 194.515 141.4 193.55 141.4 192.357V173.993H156.678V192.357C156.678 193.55 157.644 194.515 158.835 194.515C160.028 194.515 160.994 193.55 160.994 192.357L160.99 163.684L177.24 144.636C177.24 144.636 177.337 144.529 177.377 144.483C177.465 144.38 177.623 144.176 177.714 143.927C177.836 143.593 177.819 143.164 177.819 143.164V117.99H182.301C185.017 117.99 187.65 117.342 190.122 116.064C192.474 114.848 194.579 113.117 196.378 110.918C200.007 106.482 202.004 100.613 202.004 94.3853C202.004 93.1929 201.038 92.2275 199.847 92.2275ZM131.824 113.675H73.2102C74.1739 112.861 75.0787 111.94 75.9141 110.915C79.1208 106.997 81.0546 101.956 81.4607 96.5409H147.117C146.258 106.167 139.727 113.675 131.824 113.675ZM173.505 142.373L158.189 160.334L156.84 159.848C155.719 159.444 154.484 160.024 154.08 161.145C153.676 162.266 154.259 163.503 155.378 163.907L156.672 164.371L156.649 169.678H141.408L141.467 156.624L151.742 144.56C151.801 144.491 151.853 144.42 151.902 144.346L156.769 138.737L158.82 139.467C159.058 139.551 159.302 139.591 159.542 139.591C160.43 139.591 161.261 139.04 161.575 138.157C161.974 137.034 161.387 135.801 160.264 135.402L158.265 134.693V129.309H173.503V142.373H173.505ZM173.505 124.996H158.267V117.13L169.499 111.168L173.505 116.548V124.996ZM182.299 113.675H176.746L171.854 107.105C171.216 106.251 170.052 105.988 169.112 106.489L155.572 113.675H143.197C144.161 112.861 145.063 111.94 145.901 110.915C149.108 106.997 151.039 101.956 151.445 96.5409H197.594C196.737 106.167 190.204 113.675 182.299 113.675Z" fill="#F6F6F6"/>
</g>
</g>
</g>
</g>
<defs>
<clipPath id="clip0_198_20104">
<rect width="202" height="194" fill="white" transform="translate(0 0.880371)"/>
</clipPath>
</defs>
</svg>
