<svg width="57" height="57" viewBox="0 0 57 57" fill="none" xmlns="http://www.w3.org/2000/svg">
<g id="wi:solar-eclipse">
<path id="Vector" d="M3.50005 28.7575C3.50005 28.2152 3.68084 27.7406 4.06502 27.3564C4.4492 26.9948 4.92377 26.814 5.42095 26.814H10.0311C10.5509 26.814 10.9803 26.9948 11.3418 27.379C11.6808 27.7632 11.8616 28.2152 11.8616 28.7575C11.8616 29.2999 11.7034 29.7519 11.3644 30.1361C11.0255 30.5203 10.5735 30.701 10.0537 30.701H5.44355C4.92377 30.701 4.4718 30.5203 4.08762 30.1361C3.90041 29.9588 3.75164 29.745 3.65056 29.5079C3.54948 29.2707 3.49825 29.0153 3.50005 28.7575ZM9.96332 44.4185C9.96332 43.8988 10.1441 43.4468 10.4831 43.04L13.8051 39.8084C14.1441 39.4468 14.5961 39.2886 15.1385 39.2886C15.6808 39.2886 16.1328 39.4694 16.4944 39.8084C16.856 40.1474 17.0368 40.5767 17.0368 41.0965C17.0368 41.6389 16.856 42.1361 16.4944 42.5428L13.2853 45.7519C12.3588 46.475 11.4322 46.475 10.5057 45.7519C10.3296 45.5781 10.1906 45.3702 10.0974 45.141C10.0041 44.9118 9.95853 44.666 9.96332 44.4185ZM9.96332 13.1417C9.96332 12.622 10.1441 12.17 10.4831 11.7632C10.9351 11.379 11.4096 11.1982 11.9294 11.1982C12.4266 11.1982 12.8786 11.379 13.2627 11.7406L16.4944 15.0626C16.856 15.4016 17.0368 15.8536 17.0368 16.396C17.0368 16.9383 16.856 17.3903 16.4944 17.7519C16.1328 18.1135 15.6808 18.2943 15.1385 18.2943C14.5961 18.2943 14.1441 18.1135 13.8051 17.7519L10.5057 14.5203C10.3272 14.3388 10.1871 14.1232 10.0939 13.8863C10.0007 13.6494 9.95631 13.3962 9.96332 13.1417ZM15.726 28.7575C15.726 26.6559 16.2458 24.6898 17.3079 22.8818C18.3701 21.0739 19.7938 19.6276 21.6243 18.5655C23.4548 17.5033 25.3983 16.9835 27.5 16.9835C29.0819 16.9835 30.5961 17.2999 32.065 17.9327C33.5113 18.5655 34.7769 19.4016 35.8164 20.4638C36.8785 21.5259 37.7147 22.7689 38.3249 24.2152C38.935 25.6615 39.2514 27.1982 39.2514 28.7801C39.2514 30.9044 38.7317 32.8705 37.6695 34.6784C36.6074 36.4864 35.1836 37.9101 33.3757 38.9722C31.5678 40.0344 29.6017 40.5541 27.4774 40.5541C25.3531 40.5541 23.387 40.0344 21.5791 38.9722C19.7712 37.9101 18.3475 36.4864 17.2853 34.6784C16.2684 32.8479 15.726 30.8818 15.726 28.7575ZM25.5791 46.3394C25.5791 45.7971 25.7599 45.3451 26.1441 44.9835C26.5283 44.6219 26.9802 44.4411 27.5 44.4411C28.0424 44.4411 28.517 44.6219 28.8786 44.9835C29.2401 45.3451 29.4209 45.7971 29.4209 46.3394V50.8366C29.4209 51.379 29.2401 51.8536 28.856 52.2378C28.4718 52.6219 28.0198 52.8027 27.5 52.8027C26.9802 52.8027 26.5057 52.6219 26.1441 52.2378C25.9596 52.0549 25.8143 51.8363 25.7172 51.5954C25.62 51.3545 25.573 51.0963 25.5791 50.8366V46.3394ZM25.5791 11.3112V6.70107C25.5791 6.1813 25.7599 5.72932 26.1441 5.34514C26.5283 4.96096 26.9802 4.75757 27.5226 4.75757C28.065 4.75757 28.4944 4.93836 28.8786 5.32254C29.2627 5.70672 29.4435 6.1587 29.4435 6.67847V11.3112C29.4435 11.831 29.2627 12.2604 28.8786 12.622C28.4944 12.9835 28.0424 13.1417 27.5226 13.1417C27.0028 13.1417 26.5283 12.9609 26.1667 12.622C25.8051 12.283 25.5791 11.831 25.5791 11.3112ZM25.8277 21.0739C27.7938 21.3225 29.4435 22.1813 30.7769 23.6728C32.1102 25.1643 32.7882 26.927 32.7882 28.9383C32.7882 30.814 32.2006 32.4638 31.0254 33.9101C29.8503 35.3338 28.3588 36.2604 26.5509 36.6445C27.0028 36.6897 27.3418 36.7349 27.5452 36.7349C29.7373 36.7349 31.6356 35.944 33.1949 34.3847C34.7543 32.8253 35.5452 30.9496 35.5452 28.7349C35.5452 26.5655 34.7543 24.7124 33.1949 23.153C31.6356 21.6163 29.7599 20.8479 27.5452 20.8479C26.9351 20.8931 26.3701 20.9609 25.8277 21.0739ZM38.0537 41.0965C38.0537 40.5767 38.2345 40.1474 38.5735 39.831C38.9124 39.4694 39.3418 39.3112 39.839 39.3112C40.3814 39.3112 40.8333 39.492 41.1949 39.831L44.4944 43.0626C44.8559 43.4468 45.0367 43.9214 45.0367 44.4411C45.0367 44.9609 44.8559 45.4129 44.4944 45.7745C43.5904 46.475 42.6864 46.475 41.7825 45.7745L38.5735 42.5654C38.2269 42.1556 38.042 41.6332 38.0537 41.0965ZM38.0537 16.4186C38.0537 15.8536 38.2345 15.4016 38.5735 15.0852L41.7825 11.7632C42.1385 11.4144 42.6174 11.2196 43.1158 11.2208C43.6582 11.2208 44.1102 11.4016 44.4718 11.7858C44.8559 12.17 45.0367 12.622 45.0367 13.1417C45.0367 13.7067 44.8559 14.1813 44.4944 14.5429L41.1949 17.7745C40.7881 18.1361 40.3362 18.3169 39.839 18.3169C39.3192 18.3169 38.9124 18.1361 38.5735 17.7745C38.2345 17.4129 38.0537 16.9609 38.0537 16.4186ZM43.161 28.7575C43.161 28.2152 43.3418 27.7632 43.7034 27.3564C44.065 26.9948 44.4944 26.814 44.9915 26.814H49.5565C50.0763 26.814 50.5283 27.0174 50.9124 27.4016C51.2966 27.7858 51.5 28.2378 51.5 28.7575C51.5 29.2773 51.2966 29.7293 50.9124 30.1135C50.5283 30.4977 50.0763 30.6784 49.5565 30.6784H44.9915C44.4718 30.6784 44.0198 30.4977 43.6808 30.1135C43.3418 29.7293 43.161 29.2999 43.161 28.7575Z" fill="#0D4D8F"/>
</g>
</svg>
