<svg width="158" height="158" viewBox="0 0 158 158" fill="none" xmlns="http://www.w3.org/2000/svg">
<g id="8 (2) 1" clip-path="url(#clip0_198_20161)">
<path id="Vector" d="M20.6448 6.72847C20.2604 6.72847 19.8794 6.58128 19.5883 6.29018C19.0044 5.70797 19.0044 4.76433 19.5883 4.18213L22.4274 1.34631C23.0096 0.767375 23.9548 0.767375 24.5354 1.34631C25.1193 1.93016 25.1193 2.87379 24.5354 3.456L21.6996 6.29018C21.4069 6.58128 21.0258 6.72847 20.6448 6.72847Z" fill="#F6F6F6"/>
<path id="Vector_2" d="M12.5043 6.72847C12.1216 6.72847 11.7389 6.58128 11.4461 6.29018L8.61196 3.456C8.02648 2.87379 8.02648 1.93016 8.61196 1.34631C9.19417 0.767375 10.1378 0.767375 10.7216 1.34631L13.5575 4.18213C14.1397 4.76433 14.1397 5.70797 13.5575 6.29018C13.2647 6.58128 12.8837 6.72847 12.5043 6.72847Z" fill="#F6F6F6"/>
<path id="Vector_3" d="M9.66517 17.6923C9.28248 17.6923 8.90143 17.5484 8.61196 17.2557C8.02648 16.6735 8.02648 15.7315 8.61196 15.146L11.4461 12.3151C12.0316 11.7312 12.9753 11.7312 13.5575 12.3151C14.1397 12.894 14.1397 13.8393 13.5575 14.4231L10.7216 17.2557C10.4322 17.5484 10.0479 17.6923 9.66517 17.6923Z" fill="#F6F6F6"/>
<path id="Vector_4" d="M23.4822 17.6923C23.0979 17.6923 22.7168 17.5484 22.4274 17.2557L19.5883 14.4231C19.0044 13.8393 19.0044 12.894 19.5883 12.3151C20.1721 11.7312 21.1174 11.7312 21.6996 12.3151L24.5354 15.146C25.1193 15.7315 25.1193 16.6735 24.5354 17.2557C24.2459 17.5484 23.8633 17.6923 23.4822 17.6923Z" fill="#F6F6F6"/>
<path id="Vector_5" d="M142.711 37.0099C142.332 37.0099 141.947 36.8659 141.658 36.5748C141.072 35.991 141.072 35.0474 141.658 34.4651L143.911 32.2115C144.494 31.6342 145.439 31.6342 146.021 32.2115C146.607 32.7954 146.607 33.7407 146.021 34.3212L143.768 36.5748C143.476 36.8659 143.097 37.0099 142.711 37.0099Z" fill="#F6F6F6"/>
<path id="Vector_6" d="M136.243 37.0099C135.86 37.0099 135.481 36.8659 135.186 36.5748L132.933 34.3212C132.351 33.7407 132.351 32.7954 132.933 32.2115C133.515 31.6342 134.46 31.6342 135.046 32.2115L137.299 34.4651C137.882 35.0474 137.882 35.991 137.299 36.5748C137.007 36.8659 136.626 37.0099 136.243 37.0099Z" fill="#F6F6F6"/>
<path id="Vector_7" d="M133.988 45.7249C133.607 45.7249 133.225 45.5777 132.933 45.2882C132.351 44.706 132.351 43.7607 132.933 43.1818L135.186 40.9298C135.77 40.3444 136.714 40.3444 137.299 40.9298C137.882 41.5088 137.882 42.4524 137.299 43.0362L135.046 45.2882C134.753 45.5777 134.369 45.7249 133.988 45.7249Z" fill="#F6F6F6"/>
<path id="Vector_8" d="M144.966 45.7249C144.585 45.7249 144.201 45.5777 143.911 45.2882L141.658 43.0362C141.072 42.4524 141.072 41.5088 141.658 40.9298C142.24 40.3444 143.184 40.3444 143.768 40.9298L146.021 43.1818C146.607 43.7607 146.607 44.706 146.021 45.2882C145.732 45.5777 145.351 45.7249 144.966 45.7249Z" fill="#F6F6F6"/>
<path id="Vector_9" d="M92.6002 8.13329C90.6459 8.13329 89.0579 9.72292 89.0579 11.6772C89.0579 13.6299 90.6459 15.2163 92.6002 15.2163C94.5561 15.2163 96.1458 13.6299 96.1458 11.6772C96.1458 9.72292 94.5561 8.13329 92.6002 8.13329ZM92.6002 18.1976C89.0006 18.1976 86.0732 15.2719 86.0732 11.6772C86.0732 8.07932 89.0006 5.15356 92.6002 5.15356C96.2014 5.15356 99.132 8.07932 99.132 11.6772C99.132 15.2719 96.2014 18.1976 92.6002 18.1976Z" fill="#F6F6F6"/>
<path id="Vector_10" d="M104.353 35.8586C98.9059 35.8586 94.4723 40.2856 94.4723 45.7283C94.4723 51.171 98.9059 55.598 104.353 55.598C109.803 55.598 114.236 51.171 114.236 45.7283C114.236 40.2856 109.803 35.8586 104.353 35.8586ZM104.353 58.5794C97.2606 58.5794 91.4893 52.8129 91.4893 45.7283C91.4893 38.6404 97.2606 32.8772 104.353 32.8772C111.45 32.8772 117.219 38.6404 117.219 45.7283C117.219 52.8129 111.45 58.5794 104.353 58.5794Z" fill="#F6F6F6"/>
<path id="Vector_11" d="M100.232 47.2182C99.4049 47.2182 98.7393 46.5509 98.7393 45.7283C98.7393 42.6341 101.258 40.1172 104.354 40.1172C105.181 40.1172 105.847 40.7844 105.847 41.6071C105.847 42.4297 105.181 43.1002 104.354 43.1002C102.905 43.1002 101.724 44.2777 101.724 45.7283C101.724 46.5509 101.057 47.2182 100.232 47.2182Z" fill="#F6F6F6"/>
<path id="Vector_12" d="M133.19 82.0362C132.941 82.0362 132.688 81.9708 132.459 81.8416C131.739 81.4376 131.486 80.53 131.891 79.8104C133.161 77.565 134.395 75.2541 135.566 72.9367C135.936 72.2024 136.832 71.9081 137.568 72.2777C138.302 72.6506 138.602 73.5484 138.229 74.2827C137.041 76.6361 135.784 78.9911 134.493 81.2741C134.219 81.7631 133.712 82.0362 133.19 82.0362Z" fill="#F6F6F6"/>
<g id="Clip path group">
<mask id="mask0_198_20161" style="mask-type:luminance" maskUnits="userSpaceOnUse" x="38" y="86" width="93" height="72">
<g id="3c76fa2ad6">
<path id="Vector_13" d="M38.1797 86.051H130.705V157.754H38.1797V86.051Z" fill="white"/>
</g>
</mask>
<g mask="url(#mask0_198_20161)">
<g id="Group">
<path id="Vector_14" d="M39.6774 157.754C39.0052 157.754 38.4001 157.304 38.2284 156.629C38.0289 155.831 38.5146 155.02 39.3143 154.819C39.4484 154.784 53.0093 151.332 70.6113 141.245C86.833 131.951 109.904 114.96 127.718 86.7918C128.158 86.0935 129.079 85.8874 129.772 86.3274C130.471 86.7673 130.68 87.6864 130.24 88.3831C112.074 117.109 88.542 134.422 71.9997 143.884C54.0576 154.151 40.6014 157.573 40.0372 157.712C39.9161 157.741 39.7951 157.754 39.6774 157.754Z" fill="#F6F6F6"/>
</g>
</g>
</g>
<g id="Clip path group_2">
<mask id="mask1_198_20161" style="mask-type:luminance" maskUnits="userSpaceOnUse" x="58" y="59" width="93" height="93">
<g id="4a520ec109">
<path id="Vector_15" d="M58.4316 59.9138H150.144V151.78H58.4316V59.9138Z" fill="white"/>
</g>
</mask>
<g mask="url(#mask1_198_20161)">
<g id="Group_2">
<path id="Vector_16" d="M61.7861 147.381C81.4749 152.774 100.385 140.767 106.072 136.67C103.481 135.092 100.125 132.911 99.9453 132.791C99.3746 132.417 99.1276 131.699 99.3533 131.056C99.579 130.407 100.212 129.995 100.899 130.058C103.828 130.323 111.166 128.788 116.232 126.402C119.775 124.74 125.934 119.368 129.039 116.553C125.845 115.431 121.407 113.539 120.753 113.261C120.097 112.976 119.732 112.268 119.883 111.572C120.038 110.875 120.666 110.37 121.381 110.397C121.826 110.407 132.464 110.478 141.101 98.853C149.68 87.3004 148.324 71.9292 141.743 65.3564C140.134 63.7423 137.934 63.0014 135.211 63.1519C128.99 63.4904 120.779 68.5471 115.243 75.4404C114.847 75.9343 114.548 76.4756 114.345 77.0496C113.241 80.2338 110.764 88.8475 111.622 100.029C111.681 100.763 111.192 101.427 110.474 101.594C109.759 101.759 109.025 101.381 108.75 100.698C108.585 100.286 105.321 92.174 103.733 87.4133C100.982 90.164 95.461 95.9649 90.8769 102.592C90.6283 104.27 89.5866 112.365 91.5507 118.509C91.8009 119.292 91.3676 120.135 90.5826 120.38C89.7992 120.635 88.9553 120.2 88.7067 119.415C87.4377 115.443 87.2839 110.888 87.4311 107.4C82.201 115.513 77.7985 126.088 77.7445 126.214C77.5189 126.76 76.9873 127.12 76.3953 127.136C75.8147 127.157 75.262 126.809 75.0118 126.272C74.1662 124.465 73.9586 121.201 73.952 118.488C65.7667 129.388 62.6022 143.178 61.7861 147.381ZM72.2037 151.729C67.8535 151.729 63.644 151.106 59.6388 149.86C58.9372 149.643 58.499 148.946 58.6085 148.218C58.7377 147.355 61.899 126.958 74.4901 113.161C74.9202 112.692 75.6005 112.548 76.1811 112.795C76.7666 113.047 77.128 113.642 77.0806 114.277C76.9546 115.953 76.8876 118.364 76.9922 120.537C79.4127 115.299 83.722 106.698 88.2586 101.133C94.8281 91.5623 103.093 83.8644 103.443 83.5357C103.828 83.1775 104.382 83.0483 104.892 83.2053C105.403 83.3591 105.787 83.7728 105.91 84.288C106.25 85.7402 107.391 88.9031 108.553 91.981C108.963 84.3256 110.651 78.5935 111.526 76.0733C111.836 75.1722 112.304 74.3332 112.916 73.576C119.04 65.9484 127.934 60.563 135.046 60.1721C138.603 59.9808 141.647 61.0405 143.856 63.2467C151.453 70.8351 153.123 87.67 143.496 100.629C137.858 108.221 131.358 111.299 126.854 112.541C129.185 113.462 131.385 114.267 132.225 114.411C132.781 114.507 133.237 114.906 133.398 115.448C133.565 115.989 133.408 116.574 132.999 116.96C132.585 117.354 122.787 126.619 117.505 129.1C114.059 130.722 109.264 132.101 105.363 132.721C106.875 133.671 108.487 134.665 109.47 135.205C109.905 135.441 110.188 135.877 110.237 136.368C110.286 136.858 110.088 137.341 109.709 137.658C109.459 137.864 103.517 142.764 94.3849 146.759C86.8309 150.061 79.3325 151.729 72.2037 151.729Z" fill="#F6F6F6"/>
</g>
</g>
</g>
<path id="Vector_17" d="M19.095 91.43C18.992 91.43 18.8873 91.4186 18.7826 91.3973C17.978 91.2256 17.4629 90.4373 17.6346 89.6294C17.9698 88.0513 18.4179 86.3357 18.9674 84.54C19.2062 83.7518 20.0452 83.3118 20.8302 83.5473C21.6201 83.7894 22.0633 84.6251 21.8212 85.4101C21.2979 87.124 20.8711 88.7529 20.5554 90.2493C20.4033 90.9525 19.7852 91.43 19.095 91.43Z" fill="#F6F6F6"/>
<path id="Vector_18" d="M22.5833 80.1798C22.4051 80.1798 22.2235 80.1488 22.0486 80.0784C21.2799 79.7841 20.894 78.9206 21.1932 78.1536C27.7562 61.1305 40.2197 40.5651 47.0655 29.8237C47.5087 29.1287 48.4327 28.9259 49.1278 29.3658C49.8228 29.8074 50.0256 30.7265 49.5857 31.4232C42.8004 42.0714 30.4481 62.4454 23.9783 79.2264C23.7478 79.8151 23.1852 80.1798 22.5833 80.1798Z" fill="#F6F6F6"/>
<path id="Vector_19" d="M52.2523 136.855C40.1208 136.855 29.7146 133.382 22.1639 126.809C13.9378 119.654 9.59082 109.099 9.59082 96.2806C9.59082 69.8179 49.3445 13.2112 51.0339 10.8137C51.3136 10.4196 51.7699 10.1841 52.2523 10.1841C52.7413 10.1841 53.1943 10.4196 53.474 10.8137C54.8902 12.8253 88.2576 60.3112 94.065 88.7233C94.2285 89.5312 93.7085 90.3195 92.9006 90.4814C92.091 90.645 91.3028 90.1265 91.1392 89.3219C86.0727 64.5257 58.426 23.2805 52.2556 14.2939C45.4522 24.2012 12.5771 73.2801 12.5771 96.2806C12.5771 123.999 33.0721 133.876 52.2523 133.876C54.0725 133.876 55.8764 133.791 57.6197 133.62C58.4424 133.544 59.1717 134.144 59.2486 134.963C59.3271 135.784 58.7269 136.51 57.9059 136.587C56.0694 136.765 54.1657 136.855 52.2523 136.855Z" fill="#F6F6F6"/>
</g>
<defs>
<clipPath id="clip0_198_20161">
<rect width="157" height="157" fill="white" transform="translate(0.5 0.757568)"/>
</clipPath>
</defs>
</svg>
