<svg width="292" height="176" viewBox="0 0 292 176" fill="none" xmlns="http://www.w3.org/2000/svg">
<path d="M289.089 169.858H280.976V55.4646C280.976 53.8565 279.673 52.5536 278.065 52.5536H204.406V3.6683C204.406 2.0602 203.104 0.757324 201.495 0.757324H124.926C123.318 0.757324 122.015 2.0602 122.015 3.6683V169.858H113.906C112.303 169.858 111 171.161 111 172.769C111 174.377 112.303 175.68 113.906 175.68H289.094C290.697 175.68 292 174.377 292 172.769C291.995 171.161 290.693 169.858 289.089 169.858ZM127.837 6.57928H198.589V169.863H127.837V6.57928ZM204.406 169.858V58.3756H275.158V169.858H204.406ZM156.091 137.746H142.187C140.584 137.746 139.281 139.049 139.281 140.657V155.645C139.281 157.249 140.584 158.556 142.187 158.556H156.091C157.694 158.556 158.997 157.249 158.997 155.645V140.657C158.997 139.049 157.694 137.746 156.091 137.746ZM153.18 152.73H145.098V143.568H153.18V152.73ZM156.091 17.8861H142.187C140.584 17.8861 139.281 19.189 139.281 20.7971V35.7802C139.281 37.3883 140.584 38.6912 142.187 38.6912H156.091C157.694 38.6912 158.997 37.3883 158.997 35.7802V20.7971C158.997 19.189 157.694 17.8861 156.091 17.8861ZM153.18 32.8692H145.098V23.708H153.18V32.8692ZM184.239 77.8185H170.34C168.732 77.8185 167.429 79.1214 167.429 80.7295V95.7126C167.429 97.3207 168.732 98.6236 170.34 98.6236H184.239C185.847 98.6236 187.15 97.3207 187.15 95.7126V80.7295C187.15 79.1214 185.847 77.8185 184.239 77.8185ZM181.328 92.7971H173.247V83.6359H181.328V92.7971ZM156.091 47.8478H142.187C140.584 47.8478 139.281 49.1552 139.281 50.7587V65.7464C139.281 67.3545 140.584 68.6574 142.187 68.6574H156.091C157.694 68.6574 158.997 67.3545 158.997 65.7464V50.7587C158.997 49.1552 157.694 47.8478 156.091 47.8478ZM153.18 62.8354H145.098V53.6743H153.18V62.8354ZM156.091 107.78H142.187C140.584 107.78 139.281 109.088 139.281 110.696V125.679C139.281 127.287 140.584 128.59 142.187 128.59H156.091C157.694 128.59 158.997 127.287 158.997 125.679V110.696C158.997 109.088 157.694 107.78 156.091 107.78ZM153.18 122.768H145.098V113.607H153.18V122.768ZM156.091 77.8185H142.187C140.584 77.8185 139.281 79.1214 139.281 80.7295V95.7126C139.281 97.3207 140.584 98.6236 142.187 98.6236H156.091C157.694 98.6236 158.997 97.3207 158.997 95.7126V80.7295C158.997 79.1214 157.694 77.8185 156.091 77.8185ZM153.18 92.7971H145.098V83.6359H153.18V92.7971ZM184.239 107.78H170.34C168.732 107.78 167.429 109.088 167.429 110.696V125.679C167.429 127.287 168.732 128.59 170.34 128.59H184.239C185.847 128.59 187.15 127.287 187.15 125.679V110.696C187.15 109.088 185.847 107.78 184.239 107.78ZM181.328 122.768H173.247V113.607H181.328V122.768ZM184.239 47.8478H170.34C168.732 47.8478 167.429 49.1552 167.429 50.7587V65.7464C167.429 67.3545 168.732 68.6574 170.34 68.6574H184.239C185.847 68.6574 187.15 67.3545 187.15 65.7464V50.7587C187.15 49.1552 185.847 47.8478 184.239 47.8478ZM181.328 62.8354H173.247V53.6743H181.328V62.8354ZM184.239 17.8861H170.34C168.732 17.8861 167.429 19.189 167.429 20.7971V35.7802C167.429 37.3883 168.732 38.6912 170.34 38.6912H184.239C185.847 38.6912 187.15 37.3883 187.15 35.7802V20.7971C187.15 19.189 185.847 17.8861 184.239 17.8861ZM181.328 32.8692H173.247V23.708H181.328V32.8692ZM184.239 137.746H170.34C168.732 137.746 167.429 139.049 167.429 140.657V155.645C167.429 157.249 168.732 158.556 170.34 158.556H184.239C185.847 158.556 187.15 157.249 187.15 155.645V140.657C187.15 139.049 185.847 137.746 184.239 137.746ZM181.328 152.73H173.247V143.568H181.328V152.73ZM260.808 103.717H246.905C245.301 103.717 243.994 105.02 243.994 106.628V121.611C243.994 123.219 245.301 124.522 246.905 124.522H260.808C262.412 124.522 263.715 123.219 263.715 121.611V106.628C263.715 105.02 262.412 103.717 260.808 103.717ZM257.897 118.7H249.816V109.539H257.897V118.7ZM260.808 73.7505H246.905C245.301 73.7505 243.994 75.0533 243.994 76.6614V91.6491C243.994 93.2572 245.301 94.5601 246.905 94.5601H260.808C262.412 94.5601 263.715 93.2572 263.715 91.6491V76.6614C263.715 75.0533 262.412 73.7505 260.808 73.7505ZM257.897 88.729H249.816V79.5724H257.897V88.729ZM260.808 133.678H246.905C245.301 133.678 243.994 134.986 243.994 136.594V151.577C243.994 153.185 245.301 154.488 246.905 154.488H260.808C262.412 154.488 263.715 153.185 263.715 151.577V136.594C263.715 134.986 262.412 133.678 260.808 133.678ZM257.897 148.666H249.816V139.505H257.897V148.666ZM232.66 133.678H218.761C217.153 133.678 215.85 134.986 215.85 136.594V151.577C215.85 153.185 217.153 154.488 218.761 154.488H232.66C234.268 154.488 235.571 153.185 235.571 151.577V136.594C235.571 134.986 234.268 133.678 232.66 133.678ZM229.753 148.666H221.672V139.505H229.753V148.666ZM232.66 103.717H218.761C217.153 103.717 215.85 105.02 215.85 106.628V121.611C215.85 123.219 217.153 124.522 218.761 124.522H232.66C234.268 124.522 235.571 123.219 235.571 121.611V106.628C235.571 105.02 234.268 103.717 232.66 103.717ZM229.753 118.7H221.672V109.539H229.753V118.7ZM232.66 73.7505H218.761C217.153 73.7505 215.85 75.0533 215.85 76.6614V91.6491C215.85 93.2572 217.153 94.5601 218.761 94.5601H232.66C234.268 94.5601 235.571 93.2572 235.571 91.6491V76.6614C235.571 75.0533 234.268 73.7505 232.66 73.7505ZM229.753 88.729H221.672V79.5724H229.753V88.729Z" fill="#F6F6F6"/>
<path d="M1.77946 172.122H6.73883V102.198C6.73883 101.215 7.53522 100.418 8.51819 100.418H53.5423V70.5367C53.5423 69.5537 54.3387 68.7573 55.3217 68.7573H102.125C103.108 68.7573 103.905 69.5537 103.905 70.5367V172.122H108.861C109.841 172.122 110.638 172.918 110.638 173.901C110.638 174.884 109.841 175.68 108.861 175.68H1.77668C0.796501 175.68 0.000106812 174.884 0.000106812 173.901C0.00289154 172.918 0.799286 172.122 1.77946 172.122ZM100.346 72.316H57.0983V172.124H100.346V72.316ZM53.5423 172.122V103.977H10.2948V172.122H53.5423ZM83.0758 152.493H91.5743C92.5545 152.493 93.3509 153.289 93.3509 154.272V163.434C93.3509 164.414 92.5545 165.213 91.5743 165.213H83.0758C82.0956 165.213 81.2992 164.414 81.2992 163.434V154.272C81.2992 153.289 82.0956 152.493 83.0758 152.493ZM84.8551 161.651H89.795V156.052H84.8551V161.651ZM83.0758 79.2274H91.5743C92.5545 79.2274 93.3509 80.0238 93.3509 81.0068V90.1653C93.3509 91.1483 92.5545 91.9447 91.5743 91.9447H83.0758C82.0956 91.9447 81.2992 91.1483 81.2992 90.1653V81.0068C81.2992 80.0238 82.0956 79.2274 83.0758 79.2274ZM84.8551 88.3859H89.795V82.7861H84.8551V88.3859ZM65.8697 115.862H74.3655C75.3485 115.862 76.1449 116.658 76.1449 117.641V126.799C76.1449 127.782 75.3485 128.579 74.3655 128.579H65.8697C64.8868 128.579 64.0904 127.782 64.0904 126.799V117.641C64.0904 116.658 64.8868 115.862 65.8697 115.862ZM67.6491 125.017H72.589V119.417H67.6491V125.017ZM83.0758 97.5417H91.5743C92.5545 97.5417 93.3509 98.3409 93.3509 99.3211V108.482C93.3509 109.465 92.5545 110.262 91.5743 110.262H83.0758C82.0956 110.262 81.2992 109.465 81.2992 108.482V99.3211C81.2992 98.3409 82.0956 97.5417 83.0758 97.5417ZM84.8551 106.703H89.795V101.103H84.8551V106.703ZM83.0758 134.176H91.5743C92.5545 134.176 93.3509 134.975 93.3509 135.958V145.117C93.3509 146.1 92.5545 146.896 91.5743 146.896H83.0758C82.0956 146.896 81.2992 146.1 81.2992 145.117V135.958C81.2992 134.975 82.0956 134.176 83.0758 134.176ZM84.8551 143.337H89.795V137.737H84.8551V143.337ZM83.0758 115.862H91.5743C92.5545 115.862 93.3509 116.658 93.3509 117.641V126.799C93.3509 127.782 92.5545 128.579 91.5743 128.579H83.0758C82.0956 128.579 81.2992 127.782 81.2992 126.799V117.641C81.2992 116.658 82.0956 115.862 83.0758 115.862ZM84.8551 125.017H89.795V119.417H84.8551V125.017ZM65.8697 134.176H74.3655C75.3485 134.176 76.1449 134.975 76.1449 135.958V145.117C76.1449 146.1 75.3485 146.896 74.3655 146.896H65.8697C64.8868 146.896 64.0904 146.1 64.0904 145.117V135.958C64.0904 134.975 64.8868 134.176 65.8697 134.176ZM67.6491 143.337H72.589V137.737H67.6491V143.337ZM65.8697 97.5417H74.3655C75.3485 97.5417 76.1449 98.3409 76.1449 99.3211V108.482C76.1449 109.465 75.3485 110.262 74.3655 110.262H65.8697C64.8868 110.262 64.0904 109.465 64.0904 108.482V99.3211C64.0904 98.3409 64.8868 97.5417 65.8697 97.5417ZM67.6491 106.703H72.589V101.103H67.6491V106.703ZM65.8697 79.2274H74.3655C75.3485 79.2274 76.1449 80.0238 76.1449 81.0068V90.1653C76.1449 91.1483 75.3485 91.9447 74.3655 91.9447H65.8697C64.8868 91.9447 64.0904 91.1483 64.0904 90.1653V81.0068C64.0904 80.0238 64.8868 79.2274 65.8697 79.2274ZM67.6491 88.3859H72.589V82.7861H67.6491V88.3859ZM65.8697 152.493H74.3655C75.3485 152.493 76.1449 153.289 76.1449 154.272V163.434C76.1449 164.414 75.3485 165.213 74.3655 165.213H65.8697C64.8868 165.213 64.0904 164.414 64.0904 163.434V154.272C64.0904 153.289 64.8868 152.493 65.8697 152.493ZM67.6491 161.651H72.589V156.052H67.6491V161.651ZM19.0662 131.692H27.5648C28.545 131.692 29.3442 132.488 29.3442 133.471V142.63C29.3442 143.613 28.545 144.409 27.5648 144.409H19.0662C18.0861 144.409 17.2897 143.613 17.2897 142.63V133.471C17.2897 132.488 18.0861 131.692 19.0662 131.692ZM20.8456 140.851H25.7855V135.251H20.8456V140.851ZM19.0662 113.375H27.5648C28.545 113.375 29.3442 114.171 29.3442 115.154V124.316C29.3442 125.299 28.545 126.095 27.5648 126.095H19.0662C18.0861 126.095 17.2897 125.299 17.2897 124.316V115.154C17.2897 114.171 18.0861 113.375 19.0662 113.375ZM20.8456 122.531H25.7855V116.934H20.8456V122.531ZM19.0662 150.006H27.5648C28.545 150.006 29.3442 150.805 29.3442 151.788V160.947C29.3442 161.93 28.545 162.726 27.5648 162.726H19.0662C18.0861 162.726 17.2897 161.93 17.2897 160.947V151.788C17.2897 150.805 18.0861 150.006 19.0662 150.006ZM20.8456 159.168H25.7855V153.568H20.8456V159.168ZM36.2723 150.006H44.7681C45.751 150.006 46.5474 150.805 46.5474 151.788V160.947C46.5474 161.93 45.751 162.726 44.7681 162.726H36.2723C35.2893 162.726 34.4929 161.93 34.4929 160.947V151.788C34.4929 150.805 35.2893 150.006 36.2723 150.006ZM38.0488 159.168H42.9887V153.568H38.0488V159.168ZM36.2723 131.692H44.7681C45.751 131.692 46.5474 132.488 46.5474 133.471V142.63C46.5474 143.613 45.751 144.409 44.7681 144.409H36.2723C35.2893 144.409 34.4929 143.613 34.4929 142.63V133.471C34.4929 132.488 35.2893 131.692 36.2723 131.692ZM38.0488 140.851H42.9887V135.251H38.0488V140.851ZM36.2723 113.375H44.7681C45.751 113.375 46.5474 114.171 46.5474 115.154V124.316C46.5474 125.299 45.751 126.095 44.7681 126.095H36.2723C35.2893 126.095 34.4929 125.299 34.4929 124.316V115.154C34.4929 114.171 35.2893 113.375 36.2723 113.375ZM38.0488 122.531H42.9887V116.934H38.0488V122.531Z" fill="#F6F6F6"/>
</svg>
