<svg width="57" height="57" viewBox="0 0 57 57" fill="none" xmlns="http://www.w3.org/2000/svg">
<g id="material-symbols:deck-outline-rounded">
<path id="Vector" d="M26.1668 49.7575V21.7575H8.8418C8.25846 21.7575 7.88902 21.4853 7.73346 20.9409C7.57791 20.3964 7.73346 19.9686 8.20013 19.6575L27.1585 6.35754C27.5862 6.04642 28.0335 5.89087 28.5001 5.89087C28.9668 5.89087 29.414 6.04642 29.8418 6.35754L48.8001 19.6575C49.2668 19.9686 49.4223 20.3964 49.2668 20.9409C49.1112 21.4853 48.7418 21.7575 48.1585 21.7575H30.8335V49.7575C30.8335 50.4186 30.6095 50.9732 30.1615 51.4212C29.7135 51.8692 29.1597 52.0924 28.5001 52.0909C27.839 52.0909 27.2845 51.8669 26.8365 51.4189C26.3885 50.9709 26.1652 50.4171 26.1668 49.7575ZM28.5001 17.0909H37.0168H19.9835H28.5001ZM7.50013 49.7575V39.8409L6.0418 31.8492C5.92513 31.1881 6.0418 30.6048 6.3918 30.0992C6.7418 29.5936 7.24735 29.2825 7.90846 29.1659C8.53069 29.0492 9.10469 29.176 9.63046 29.5462C10.1562 29.9164 10.4767 30.4119 10.5918 31.0325L11.9335 38.0909H19.1668C19.8279 38.0909 20.3825 38.3149 20.8305 38.7629C21.2785 39.2109 21.5017 39.7646 21.5001 40.4242V49.7575C21.5001 50.4186 21.2761 50.9732 20.8281 51.4212C20.3801 51.8692 19.8264 52.0924 19.1668 52.0909C18.5057 52.0909 17.9511 51.8669 17.5031 51.4189C17.0551 50.9709 16.8319 50.4171 16.8335 49.7575V42.7575H12.1668V49.7575C12.1668 50.4186 11.9428 50.9732 11.4948 51.4212C11.0468 51.8692 10.493 52.0924 9.83346 52.0909C9.17235 52.0909 8.6178 51.8669 8.1698 51.4189C7.7218 50.9709 7.49857 50.4171 7.50013 49.7575ZM35.5001 49.7575V40.4242C35.5001 39.7631 35.7241 39.2085 36.1721 38.7605C36.6201 38.3125 37.1739 38.0893 37.8335 38.0909H45.0668L46.4085 31.0325C46.5251 30.4103 46.8362 29.9141 47.3418 29.5439C47.8474 29.1736 48.4307 29.0476 49.0918 29.1659C49.7529 29.2825 50.2585 29.5936 50.6085 30.0992C50.9585 30.6048 51.0751 31.1881 50.9585 31.8492L49.5001 39.8409V49.7575C49.5001 50.4186 49.2761 50.9732 48.8281 51.4212C48.3801 51.8692 47.8263 52.0924 47.1668 52.0909C46.5057 52.0909 45.9511 51.8669 45.5031 51.4189C45.0551 50.9709 44.8319 50.4171 44.8335 49.7575V42.7575H40.1668V49.7575C40.1668 50.4186 39.9428 50.9732 39.4948 51.4212C39.0468 51.8692 38.493 52.0924 37.8335 52.0909C37.1724 52.0909 36.6178 51.8669 36.1698 51.4189C35.7218 50.9709 35.4986 50.4171 35.5001 49.7575ZM19.9835 17.0909H37.0168L28.5001 11.1409L19.9835 17.0909Z" fill="#FDFDFD"/>
</g>
</svg>
