<svg width="213" height="141" viewBox="0 0 213 141" fill="none" xmlns="http://www.w3.org/2000/svg">
<g id="9 3" clip-path="url(#clip0_198_20198)">
<path id="Vector" d="M211.584 67.3083L170.348 2.21364C169.712 1.1906 168.583 0.591797 167.384 0.591797H54.8938C53.624 0.591797 52.4249 1.29666 51.7889 2.42576C51.1551 3.55486 51.2258 4.93144 51.8949 6.02519L57.0094 14.1035H45.2986C45.228 14.1035 45.1573 14.1388 45.122 14.1388C44.8768 14.1388 44.6295 14.1742 44.3822 14.2449C44.3115 14.2802 44.2408 14.3156 44.2055 14.3156C43.9935 14.3863 43.7462 14.4924 43.5364 14.5984C43.501 14.6338 43.4304 14.6691 43.395 14.7045C43.183 14.8459 42.971 14.9873 42.7944 15.1619C42.759 15.1972 42.7237 15.2326 42.6884 15.3033C42.547 15.4447 42.4057 15.5861 42.2997 15.7629L1.06571 80.7869C0.359041 81.8806 0.323707 83.255 0.959707 84.3841C1.55817 85.5132 2.75729 86.2203 4.02708 86.2203H18.6661V137.026C18.6661 138.966 20.2539 140.552 22.195 140.552H183.187C185.128 140.552 186.714 138.966 186.714 137.026V86.2203H199.06C200.33 86.2203 201.529 85.5132 202.165 84.3841C202.799 83.255 202.729 81.8806 202.059 80.7869L196.945 72.7064H208.62C209.89 72.7064 211.089 72.0015 211.725 70.8724C212.324 69.7787 212.288 68.4021 211.584 67.3083ZM109.181 7.61168L118.459 22.2547H98.705L89.4278 7.61168H109.181ZM137.296 7.61168L146.573 22.2547H126.819L117.542 7.61168H137.296ZM122.939 29.3099L132.216 43.9529H112.463L103.186 29.3099H122.939ZM104.102 43.9883H84.3486L75.0714 29.3453H94.8249L104.102 43.9883ZM108.581 51.0435L117.858 65.6865H98.1043L88.8271 51.0435H108.581ZM126.219 65.6511L116.941 51.0082H136.695L145.972 65.6511H126.219ZM154.333 65.6511L145.056 51.0082H164.809L174.086 65.6511H154.333ZM140.575 43.9883L131.298 29.3453H151.051L160.329 43.9883H140.575ZM159.412 29.3099H179.166L188.443 43.9529H168.689L159.412 29.3099ZM174.722 22.2547H154.967L145.689 7.61168H165.445L174.722 22.2547ZM81.067 7.61168L90.3442 22.2547H70.5907L61.3135 7.61168H81.067ZM45.2986 24.1593L50.2011 31.8863L20.2539 79.1628H10.4467L45.2986 24.1593ZM25.7218 83.7146L54.3992 38.4842L83.0435 83.7146V133.497H69.9922V95.1802C69.9922 93.2402 68.4044 91.6537 66.4633 91.6537H42.335C40.3961 91.6537 38.8083 93.2402 38.8083 95.1802V133.497H25.7218V83.7146ZM45.864 133.497V98.7089H62.9366V133.497H45.864ZM179.625 133.497H90.0969V86.2203H179.625V133.497ZM192.641 79.1628H88.5113L51.7536 21.0902H61.5255L93.2018 71.0845C93.8378 72.1076 94.9663 72.7064 96.1654 72.7064H124.174C124.209 72.7064 124.244 72.7064 124.315 72.7064C124.35 72.7064 124.386 72.7064 124.419 72.7064H152.286C152.321 72.7064 152.356 72.7064 152.427 72.7064C152.462 72.7064 152.498 72.7064 152.533 72.7064H180.4C180.435 72.7064 180.471 72.7064 180.541 72.7064C180.577 72.7064 180.612 72.7064 180.647 72.7064H188.584L192.641 79.1628ZM182.447 65.6511L173.17 51.0082H192.924L202.201 65.6511H182.447Z" fill="#F6F6F6"/>
</g>
<defs>
<clipPath id="clip0_198_20198">
<rect width="212" height="140" fill="white" transform="translate(0.5 0.757568)"/>
</clipPath>
</defs>
</svg>
