<svg width="159" height="180" viewBox="0 0 159 180" fill="none" xmlns="http://www.w3.org/2000/svg">
<g id="5 (2) 1" clip-path="url(#clip0_198_20073)">
<path id="Vector" d="M137.105 166.688H24.9684C23.9713 166.688 23.1631 165.778 23.1631 164.654V148.421C23.1631 147.299 23.9713 146.389 24.9684 146.389C25.9655 146.389 26.7737 147.299 26.7737 148.421V162.62H135.301V18.1389H26.7737V106.421C26.7737 107.546 25.9655 108.456 24.9684 108.456C23.9713 108.456 23.1631 107.546 23.1631 106.421V16.1047C23.1631 14.9822 23.9713 14.0723 24.9684 14.0723H137.106C138.104 14.0723 138.912 14.9822 138.912 16.1047V164.654C138.91 165.778 138.102 166.688 137.105 166.688Z" fill="#F7F7F7"/>
<path id="Vector_2" d="M128.506 157.002H33.5651C32.568 157.002 31.7598 156.09 31.7598 154.968V132.058C31.7598 130.933 32.568 130.023 33.5651 130.023C34.5621 130.023 35.3704 130.933 35.3704 132.058V152.933H126.701V27.8274H35.3704V122.787C35.3704 123.909 34.5621 124.821 33.5651 124.821C32.568 124.821 31.7598 123.909 31.7598 122.787V25.7931C31.7598 24.6707 32.568 23.7607 33.5651 23.7607H128.506C129.503 23.7607 130.312 24.6707 130.312 25.7931V154.968C130.312 156.09 129.503 157.002 128.506 157.002Z" fill="#F7F7F7"/>
<path id="Vector_3" d="M81.0368 157.002C80.038 157.002 79.2314 156.09 79.2314 154.968V25.7931C79.2314 24.6707 80.038 23.7607 81.0368 23.7607C82.0338 23.7607 82.8421 24.6707 82.8421 25.7931V154.968C82.8421 156.09 82.0338 157.002 81.0368 157.002Z" fill="#F7F7F7"/>
<path id="Vector_4" d="M128.506 92.4147H73.6149C72.6178 92.4147 71.8095 91.5048 71.8095 90.3805C71.8095 89.258 72.6178 88.3462 73.6149 88.3462H128.506C129.503 88.3462 130.312 89.258 130.312 90.3805C130.312 91.5048 129.503 92.4147 128.506 92.4147ZM49.6522 92.4147H33.5651C32.568 92.4147 31.7598 91.5048 31.7598 90.3805C31.7598 89.258 32.568 88.3462 33.5651 88.3462H49.6522C50.6493 88.3462 51.4575 89.258 51.4575 90.3805C51.4575 91.5048 50.6476 92.4147 49.6522 92.4147Z" fill="#F7F7F7"/>
<g id="Clip path group">
<mask id="mask0_198_20073" style="mask-type:luminance" maskUnits="userSpaceOnUse" x="13" y="0" width="135" height="19">
<g id="58633f8a59">
<path id="Vector_5" d="M13.9922 0.880371H147.734V18.5417H13.9922V0.880371Z" fill="white"/>
</g>
</mask>
<g mask="url(#mask0_198_20073)">
<g id="Group">
<path id="Vector_6" d="M145.927 18.1408H16.1452C15.1481 18.1408 14.3398 17.229 14.3398 16.1066V2.91463C14.3398 1.79215 15.1481 0.880371 16.1452 0.880371H145.927C146.926 0.880371 147.733 1.79215 147.733 2.91463V16.1066C147.733 17.229 146.924 18.1408 145.927 18.1408ZM17.9505 14.0723H144.122V4.94889H17.9505V14.0723Z" fill="#F7F7F7"/>
</g>
</g>
</g>
<g id="Clip path group_2">
<mask id="mask1_198_20073" style="mask-type:luminance" maskUnits="userSpaceOnUse" x="13" y="162" width="135" height="18">
<g id="614fd588d0">
<path id="Vector_7" d="M13.9922 162.219H147.734V179.88H13.9922V162.219Z" fill="white"/>
</g>
</mask>
<g mask="url(#mask1_198_20073)">
<g id="Group_2">
<path id="Vector_8" d="M145.927 179.88H16.1452C15.1481 179.88 14.3398 178.97 14.3398 177.846V164.654C14.3398 163.532 15.1481 162.62 16.1452 162.62H145.927C146.926 162.62 147.733 163.532 147.733 164.654V177.846C147.733 178.97 146.924 179.88 145.927 179.88ZM17.9505 175.812H144.122V166.688H17.9505V175.812Z" fill="#F7F7F7"/>
</g>
</g>
</g>
<g id="Clip path group_3">
<mask id="mask2_198_20073" style="mask-type:luminance" maskUnits="userSpaceOnUse" x="3" y="103" width="44" height="50">
<g id="69b5735f25">
<path id="Vector_9" d="M3.3623 103.03H46.6401V152.195H3.3623V103.03Z" fill="white"/>
</g>
</mask>
<g mask="url(#mask2_198_20073)">
<g id="Group_3">
<path id="Vector_10" d="M24.9684 151.749C24.185 151.749 23.4927 151.183 23.2509 150.344L18.6846 134.498L4.61307 129.358C3.86941 129.085 3.36426 128.304 3.36426 127.422C3.36426 126.54 3.86941 125.759 4.61307 125.487L18.6846 120.344L23.2509 104.501C23.4927 103.662 24.185 103.095 24.9684 103.095C25.7501 103.095 26.4424 103.662 26.6843 104.501L31.2505 120.344L45.322 125.487C46.0674 125.759 46.5709 126.54 46.5709 127.422C46.5709 128.304 46.0674 129.085 45.322 129.358L31.2505 134.498L26.6843 150.344C26.4424 151.183 25.7501 151.749 24.9684 151.749ZM11.0228 127.422L20.6737 130.95C21.2236 131.149 21.6559 131.636 21.8348 132.255L24.9667 143.129L28.1004 132.255C28.2792 131.636 28.7099 131.149 29.2614 130.95L38.9123 127.422L29.2614 123.894C28.7099 123.693 28.2792 123.208 28.1004 122.587L24.9667 111.715L21.8348 122.587C21.6559 123.208 21.2236 123.693 20.6737 123.894L11.0228 127.422Z" fill="#F7F7F7"/>
</g>
</g>
</g>
<path id="Vector_11" d="M104.917 75.3033C104.135 75.3033 103.441 74.7364 103.199 73.8974L99.7145 61.8037L88.9754 57.8787C88.2301 57.6065 87.7266 56.8253 87.7266 55.9433C87.7266 55.0632 88.2301 54.282 88.9737 54.0097L99.7145 50.0848L103.199 37.9911C103.441 37.152 104.135 36.5852 104.917 36.5852C105.7 36.5852 106.393 37.152 106.634 37.9911L110.119 50.0848L120.86 54.0097C121.604 54.282 122.109 55.0632 122.109 55.9433C122.109 56.8253 121.604 57.6065 120.86 57.8787L110.119 61.8037L106.634 73.8974C106.393 74.7364 105.7 75.3033 104.917 75.3033ZM95.3834 55.9433L101.704 58.2535C102.254 58.4549 102.686 58.9397 102.865 59.5606L104.917 66.6814L106.969 59.5606C107.148 58.9397 107.578 58.4549 108.13 58.2535L114.45 55.9433L108.13 53.635C107.58 53.4336 107.148 52.9469 106.969 52.3279L104.917 45.2052L102.865 52.3279C102.686 52.9469 102.255 53.4336 101.704 53.635L95.3834 55.9433Z" fill="#F7F7F7"/>
<path id="Vector_12" d="M61.6339 108.596C60.8505 108.596 60.1582 108.027 59.9164 107.19L56.6801 95.9592L46.7078 92.3158C45.9625 92.0436 45.459 91.2623 45.459 90.3804C45.459 89.4985 45.9625 88.7172 46.7078 88.4468L56.6801 84.8016L59.9164 73.5712C60.1582 72.734 60.8505 72.1653 61.6339 72.1653C62.4157 72.1653 63.1096 72.734 63.3498 73.5712L66.5861 84.8016L76.56 88.4468C77.3037 88.7191 77.8072 89.4985 77.8072 90.3804C77.8072 91.2623 77.3037 92.0436 76.56 92.3158L66.5861 95.9592L63.3498 107.19C63.1096 108.027 62.4157 108.596 61.6339 108.596ZM53.1175 90.3804L58.6709 92.4109C59.2208 92.6104 59.6514 93.0971 59.8303 93.7161L61.6339 99.9737L63.4376 93.7161C63.6165 93.0971 64.0471 92.6104 64.597 92.4109L70.1504 90.3804L64.597 88.3517C64.0471 88.1504 63.6165 87.6656 63.4376 87.0447L61.6339 80.7871L59.8303 87.0447C59.6514 87.6637 59.2208 88.1504 58.6709 88.3517L53.1175 90.3804Z" fill="#F7F7F7"/>
</g>
<defs>
<clipPath id="clip0_198_20073">
<rect width="159" height="179" fill="white" transform="translate(0 0.880371)"/>
</clipPath>
</defs>
</svg>
