<svg width="173" height="184" viewBox="0 0 173 184" fill="none" xmlns="http://www.w3.org/2000/svg">
<g id="10 5">
<path id="Vector" d="M9.247 172.97C0.7545 163.933 0.752708 149.306 9.247 140.268L64.6185 81.3557C65.8888 80.0042 67.9474 80.0042 69.2177 81.3557L95.3545 109.164C96.623 110.516 96.623 112.706 95.3545 114.057L39.983 172.97C31.4905 182.006 17.7413 182.008 9.247 172.97ZM66.919 88.6948L13.8462 145.162C7.89429 151.492 7.89429 161.744 13.8462 168.077C19.7981 174.409 29.4301 174.409 35.3838 168.077L88.4566 111.61L66.919 88.6948Z" fill="#1A5B9E"/>
<path id="Vector_2" d="M79.8671 125.64L53.732 97.8333C52.4617 96.4817 52.4617 94.2914 53.732 92.9399C55.0023 91.5884 57.0609 91.5884 58.3312 92.9399L84.4663 120.746C85.7366 122.098 85.7366 124.288 84.4663 125.64C83.196 126.991 81.1391 126.989 79.8671 125.64Z" fill="#1A5B9E"/>
<path id="Vector_3" d="M68.3728 137.872L42.2359 110.064C40.9656 108.714 40.9656 106.522 42.2359 105.17C43.5062 103.821 45.5648 103.821 46.8351 105.17L72.9702 132.979C74.2405 134.33 74.2405 136.521 72.9702 137.872C71.6999 139.224 69.6413 139.222 68.3728 137.872Z" fill="#1A5B9E"/>
<path id="Vector_4" d="M84.947 107.877L70.4273 92.429C69.157 91.0775 69.157 88.8872 70.4273 87.5357L124.901 29.578L127.562 21.0838C127.78 20.3899 128.198 19.7875 128.757 19.3625L149.085 3.9142C150.379 2.93058 152.151 3.08689 153.276 4.28211L167.795 19.7323C168.919 20.9275 169.066 22.8128 168.141 24.1891L153.622 45.8174C153.222 46.4121 152.656 46.8563 152.004 47.0869L144.02 49.9196L89.5462 107.877C88.2777 109.225 86.2209 109.231 84.947 107.877ZM77.3252 89.9814L87.2475 100.538L139.964 44.4487C140.32 44.0694 140.756 43.7834 141.236 43.6138L148.944 40.8802L161.249 22.5516L150.624 11.2475L133.397 24.3397L130.828 32.5404C130.669 33.0512 130.4 33.5145 130.043 33.8938L77.3252 89.9814Z" fill="#1A5B9E"/>
<path id="Vector_5" d="M120.961 171.012C113.189 162.741 110.72 150.242 114.574 139.399L84.9469 107.877C83.6766 106.528 83.6766 104.337 84.9469 102.986C86.2172 101.634 88.2758 101.634 89.5461 102.986L120.322 135.73C121.513 137.014 121.839 138.961 121.146 140.589C117.514 149.18 119.286 159.443 125.56 166.119C130.828 171.725 138.383 173.94 145.455 172.259L135.535 161.706C134.266 160.356 134.266 158.164 135.535 156.813L147.198 144.405C148.469 143.053 150.527 143.053 151.798 144.405L161.716 154.958C163.295 147.434 161.213 139.395 155.945 133.791C149.671 127.115 140.024 125.23 131.942 129.098C130.418 129.832 128.588 129.485 127.397 128.232L96.6052 95.4734C95.3367 94.1219 95.3367 91.9316 96.6052 90.5801C97.8755 89.2305 99.9342 89.2305 101.204 90.5801L130.831 122.102C141.026 118.001 152.772 120.628 160.544 128.898C168.912 137.802 171.108 151.422 166.011 162.789C165.049 164.935 162.368 165.437 160.777 163.746L149.497 151.744L142.434 159.26L153.713 171.26C155.297 172.945 154.842 175.799 152.815 176.828C142.085 182.28 129.296 179.88 120.961 171.012Z" fill="#1A5B9E"/>
<path id="Vector_6" d="M70.4252 92.429L40.8 60.9073C30.6036 65.0057 18.8592 62.3808 11.087 54.1115C2.7163 45.2055 0.519721 31.5854 5.6206 20.2203C6.5863 18.07 9.26664 17.5763 10.8541 19.2653L22.1344 31.2651L29.1971 23.7507L17.9186 11.7508C16.3348 10.0638 16.7898 7.21014 18.8162 6.18076C29.5017 0.757482 42.3014 3.09454 50.6703 11.9986C58.4443 20.268 60.9114 32.7672 57.0576 43.61L86.6846 75.1317C87.9548 76.4833 87.9548 78.6735 86.6846 80.0251C85.4143 81.3766 83.3556 81.3766 82.0854 80.0251L51.3099 47.2814C50.1184 45.9947 49.7924 44.0484 50.4839 42.4224C54.1192 33.8309 52.3455 23.5658 46.0711 16.8901C40.8036 11.2876 33.2481 9.07254 26.1764 10.752L36.0951 21.305C37.3653 22.6546 37.3653 24.8468 36.0951 26.1983L24.4331 38.6061C23.8221 39.2542 22.9962 39.6183 22.1344 39.6183C21.2708 39.6183 20.4431 39.2542 19.8339 38.6061L9.91522 28.0512C8.33497 35.5732 10.4169 43.6119 15.6862 49.2182C21.9606 55.8939 31.6069 57.781 39.6891 53.9114C41.2138 53.1774 43.0414 53.5244 44.2328 54.7768L75.0244 87.5357C76.2947 88.8872 76.2947 91.0775 75.0244 92.429C73.7541 93.7806 71.6973 93.7806 70.4252 92.429Z" fill="#1A5B9E"/>
</g>
</svg>
