<svg width="57" height="57" viewBox="0 0 57 57" fill="none" xmlns="http://www.w3.org/2000/svg">
<g id="game-icons:feather">
<path id="Vector" d="M51.9829 2.94507L40.772 6.20554L45.311 3.13319C42.4454 3.78069 38.8251 5.04726 34.2751 7.09148L26.8485 14.8341L29.4845 9.42554C26.936 10.843 24.2345 12.7013 21.6313 14.8779L19.9032 21.9107L19.5313 16.7044C16.961 19.0669 14.5438 21.6919 12.5423 24.4591C10.439 27.3576 8.79508 30.4201 7.97148 33.4716L4.89586 31.4154C5.17148 34.0076 6.02352 36.2607 7.42133 38.3279L3.74414 37.2013C4.57977 39.7716 5.94586 41.4341 8.25586 42.7794C6.96195 46.4216 6.35492 50.2279 5.70305 54.0232L7.71555 54.3623C10.0496 31.0982 26.5204 16.2669 41.4063 9.69569L42.161 11.5966C28.8501 17.5576 18.5032 27.6201 13.0891 42.1232C15.0688 42.1341 17.0048 41.8935 18.7985 41.4341L19.3345 34.7732L20.7673 40.8435C21.9595 40.406 23.0532 39.881 24.0266 39.2685L21.7626 34.5107L25.3501 38.3169C26.2251 37.6169 26.947 36.8294 27.4938 35.9654C30.8188 30.7701 34.297 25.6076 41.1438 21.2873L36.1454 19.5154L43.8126 19.7451C45.0595 19.1107 46.372 18.3341 47.3673 17.6013L41.9313 17.1638L50.1016 15.2388C50.736 14.6044 51.3266 13.9373 51.8626 13.2701C53.7548 10.8704 55.0345 8.37226 54.7282 6.10054C54.586 4.96413 53.9079 3.89554 52.8032 3.29726C52.5298 3.15507 52.2345 3.02929 51.9829 2.94507Z" fill="#0D4D8F"/>
</g>
</svg>
