<svg width="232" height="171" viewBox="0 0 232 171" fill="none" xmlns="http://www.w3.org/2000/svg">
<mask id="mask0_198_20133" style="mask-type:luminance" maskUnits="userSpaceOnUse" x="0" y="0" width="232" height="171">
<path d="M231.764 0.088623H0.218857V170.188H231.764V0.088623Z" fill="white"/>
</mask>
<g mask="url(#mask0_198_20133)">
<path d="M94.6597 110.398H81.1773V112.861H95.2432L94.6597 110.398ZM93.8163 105.589H81.1773V108.052H94.3268L93.8163 105.589ZM92.567 100.312H81.1773V102.776H93.0775L92.567 100.312ZM91.2954 95.2659H81.1773V97.7289H91.9074L91.2954 95.2659ZM6.66225 4.89466L7.22031 5.21577H76.8237V1.70178H186.985L188.463 6.85782H229.189V10.609H229.183C229.183 10.806 229.189 10.9994 229.189 11.1965C229.189 32.6198 225.54 53.3972 218.345 72.9632C211.398 91.8577 201.451 108.833 188.78 123.407C176.113 137.977 161.359 149.417 144.93 157.412C127.919 165.684 109.854 169.881 91.2289 169.881C89.4373 169.881 87.649 169.841 85.8669 169.76C85.1313 169.841 84.383 169.881 83.622 169.881H48.5809C53.0772 167.476 56.2036 162.232 56.2036 156.164C56.2036 147.822 50.3027 141.039 43.0541 141.039C42.886 141.039 42.7212 141.046 42.5531 141.054V39.9324L40.5143 36.1046C40.083 35.2981 40.3018 34.2399 41.0026 33.7437L41.4053 33.4627C42.106 32.9664 43.0256 33.2219 43.4568 34.0283L46.0093 38.8085V66.3001H76.0595C81.6814 66.3001 86.6914 70.3833 88.5558 76.4808L106.002 133.54C109.623 145.37 105.739 157.576 97.9035 164.4C97.374 164.863 97.6815 165.838 98.3443 165.794C169.435 161.517 226.092 93.4997 225.825 10.6126C225.822 10.6126 225.822 10.6126 225.822 10.609H189.535L202.278 55.167H163.134V15.7687H76.8237V12.251H7.22031L6.66225 12.5758L0.0415039 16.4146V1.05591L6.66225 4.89466Z" fill="#F6F6F6"/>
</g>
</svg>
