<svg width="56" height="57" viewBox="0 0 56 57" fill="none" xmlns="http://www.w3.org/2000/svg">
<g id="bx:wink-smile">
<path id="Vector" d="M28.0003 5.40112C15.1343 5.40112 4.66699 15.8685 4.66699 28.7345C4.66699 41.6005 15.1343 52.0678 28.0003 52.0678C40.8663 52.0678 51.3337 41.6005 51.3337 28.7345C51.3337 15.8685 40.8663 5.40112 28.0003 5.40112ZM28.0003 47.4011C17.708 47.4011 9.33366 39.0268 9.33366 28.7345C9.33366 18.4421 17.708 10.0678 28.0003 10.0678C38.2927 10.0678 46.667 18.4421 46.667 28.7345C46.667 39.0268 38.2927 47.4011 28.0003 47.4011Z" fill="#F7931E"/>
<path id="Vector_2" d="M34.599 35.333C33.3111 36.6244 31.6721 37.5088 29.8856 37.8763C28.6412 38.126 27.3595 38.126 26.115 37.8763C25.5165 37.7521 24.9313 37.5708 24.3673 37.335C23.8137 37.0985 23.2833 36.811 22.783 36.4763C21.791 35.8 20.9346 34.9437 20.2583 33.9517L16.3896 36.558C16.8913 37.3023 17.4676 38.0023 18.1 38.6323C19.3983 39.9351 20.9409 40.9688 22.6394 41.6743C24.3379 42.3798 26.159 42.7431 27.9982 42.7436C29.8374 42.744 31.6586 42.3815 33.3575 41.6768C35.0563 40.9721 36.5994 39.9391 37.8983 38.637C38.533 38.0047 39.1116 37.3047 39.611 36.558L35.7423 33.9517C35.4086 34.444 35.026 34.9083 34.599 35.333Z" fill="#F7931E"/>
<path id="Vector_3" d="M19.833 28.7344C21.766 28.7344 23.333 27.1674 23.333 25.2344C23.333 23.3014 21.766 21.7344 19.833 21.7344C17.9 21.7344 16.333 23.3014 16.333 25.2344C16.333 27.1674 17.9 28.7344 19.833 28.7344Z" fill="#F7931E"/>
<path id="Vector_4" d="M36.1663 24.0676C31.4997 24.0676 30.333 28.7343 30.333 28.7343H41.9997C41.9997 28.7343 40.8307 24.0676 36.1663 24.0676Z" fill="#F7931E"/>
</g>
</svg>
