<svg aria-hidden="true" style="position: absolute; width: 0; height: 0; overflow: hidden;" version="1.1" xmlns="http://www.w3.org/2000/svg" xmlns:xlink="http://www.w3.org/1999/xlink">
<defs>
<symbol id="icon-phone" viewBox="0 0 30 32">
<path d="M30.476 28.724v0.99c0 0.404-0.161 0.792-0.446 1.078s-0.673 0.446-1.078 0.446h-3.048c-6.87 0-13.459-2.729-18.317-7.587s-7.587-11.447-7.587-18.317v-3.048c0-0.404 0.161-0.792 0.446-1.077s0.673-0.446 1.078-0.446h6.095c0.404 0 0.792 0.161 1.077 0.446s0.446 0.673 0.446 1.077v6.095c0 0.853-0.472 1.996-1.067 2.59l-3.261 3.261c2.316 5.486 6.705 9.874 12.19 12.19l3.23-3.23c0.61-0.61 1.752-1.082 2.59-1.082h6.126c0.402 0.004 0.785 0.166 1.068 0.452s0.441 0.671 0.441 1.072v5.105l0.015-0.015z"></path>
</symbol>
<symbol id="icon-service-icon1" viewBox="0 0 31 32">
<path stroke-linejoin="round" stroke-linecap="round" stroke-miterlimit="4" stroke-width="2.8070" d="M15.719 4.424c-5.064 0-9.17 4.286-9.17 9.17v13.099c0 0.347 0.138 0.681 0.384 0.926s0.579 0.384 0.926 0.384h15.719c0.347 0 0.681-0.138 0.926-0.384s0.384-0.579 0.384-0.926v-13.099c0-4.883-4.105-9.17-9.17-9.17zM15.719 4.424v23.579M6.55 17.523h18.339"></path>
</symbol>
<symbol id="icon-service-icon2" viewBox="0 0 31 32">
<path stroke-linejoin="miter" stroke-linecap="butt" stroke-miterlimit="10" stroke-width="2.8070" d="M24.561 20.143c0 5.426-3.416 8.842-8.842 8.842s-8.842-3.416-8.842-8.842c0-5.823 6.339-13.684 8.283-15.958 0.069-0.081 0.155-0.146 0.252-0.19s0.202-0.067 0.308-0.067c0.106 0 0.211 0.023 0.308 0.067s0.182 0.109 0.252 0.19c1.943 2.274 8.282 10.135 8.282 15.958z"></path>
<path stroke-linejoin="round" stroke-linecap="round" stroke-miterlimit="4" stroke-width="2.8070" d="M21.123 20.635c0 1.173-0.466 2.297-1.295 3.126s-1.954 1.295-3.126 1.295"></path>
</symbol>
<symbol id="icon-service-icon3" viewBox="0 0 31 32">
<path d="M9.17 10.659v11.121h5.345l0.786-1.192c1.52-2.345 4.257-3.393 6.275-3.393 0.694 0 1.284 0.118 1.729 0.327 1.192 0.537 1.52 1.546 1.585 2.279 0.105 1.48-0.655 3-1.965 3.891-1.179 0.812-4.008 1.69-7.375 1.69-2.292 0-5.58-0.406-8.842-2.227 0.38-3.209 1.153-8.41 2.463-12.497zM9.17 4.424c-3.93 5.358-5.24 20.095-5.24 20.095 3.799 2.581 7.964 3.484 11.619 3.484 3.917 0 7.231-1.035 8.868-2.148 3.93-2.672 4.323-8.711 0-10.715-0.838-0.38-1.808-0.563-2.843-0.563-3.013 0-6.51 1.585-8.475 4.585h-1.31v-9.379h2.62l1.31-4.048-6.55-1.31z"></path>
</symbol>
<symbol id="icon-service-icon4" viewBox="0 0 32 32">
<path d="M29.183 1.653l-6.294 1.83 2.548-1.725c-1.609 0.364-3.641 1.075-6.196 2.222l-4.169 4.347 1.48-3.036c-1.431 0.796-2.947 1.839-4.409 3.061l-0.97 3.948-0.209-2.923c-1.443 1.326-2.8 2.8-3.924 4.354-1.181 1.627-2.104 3.347-2.566 5.060l-1.727-1.154c0.155 1.455 0.633 2.72 1.418 3.881l-2.064-0.632c0.469 1.443 1.236 2.376 2.533 3.132-0.726 2.045-1.067 4.182-1.433 6.312l1.13 0.19c1.31-13.061 10.557-21.387 18.914-25.076l0.424 1.067c-7.473 3.347-13.282 8.996-16.321 17.138 1.111 0.006 2.198-0.129 3.205-0.387l0.301-3.739 0.804 3.408c0.669-0.246 1.283-0.54 1.83-0.884l-1.271-2.671 2.014 2.137c0.491-0.393 0.896-0.835 1.203-1.32 1.867-2.917 3.819-5.815 7.663-8.24l-2.806-0.995 4.304 0.129c0.7-0.356 1.437-0.792 1.996-1.204l-3.052-0.246 4.587-1.081c0.356-0.356 0.688-0.731 0.989-1.105 1.062-1.347 1.781-2.75 1.609-4.025-0.080-0.638-0.461-1.238-1.081-1.574-0.154-0.080-0.319-0.15-0.461-0.198z"></path>
</symbol>
<symbol id="icon-service-icon5" viewBox="0 0 32 32">
<path d="M1.965 16.145c0-0.304 0.102-0.571 0.317-0.787 0.216-0.203 0.482-0.304 0.761-0.304h2.588c0.292 0 0.533 0.101 0.736 0.317 0.19 0.216 0.292 0.469 0.292 0.774s-0.089 0.558-0.279 0.774c-0.19 0.216-0.444 0.317-0.736 0.317h-2.588c-0.292 0-0.546-0.101-0.761-0.317-0.105-0.1-0.189-0.22-0.245-0.353s-0.085-0.277-0.085-0.421zM5.593 24.937c0-0.292 0.101-0.546 0.292-0.774l1.865-1.814c0.19-0.203 0.444-0.292 0.749-0.292s0.558 0.102 0.761 0.292 0.304 0.431 0.304 0.723c0 0.305-0.101 0.584-0.305 0.812l-1.802 1.802c-0.52 0.406-1.040 0.406-1.56 0-0.099-0.098-0.177-0.214-0.229-0.343s-0.078-0.267-0.075-0.406zM5.593 7.378c0-0.292 0.101-0.546 0.292-0.774 0.254-0.216 0.52-0.317 0.812-0.317 0.279 0 0.533 0.101 0.749 0.304l1.814 1.865c0.203 0.19 0.305 0.444 0.305 0.749s-0.101 0.558-0.305 0.761-0.457 0.305-0.761 0.305c-0.304 0-0.558-0.101-0.749-0.305l-1.852-1.814c-0.1-0.102-0.179-0.223-0.231-0.356s-0.077-0.275-0.073-0.418zM8.829 16.145c0-1.18 0.292-2.284 0.888-3.299s1.396-1.827 2.423-2.423c1.028-0.596 2.119-0.888 3.299-0.888 0.888 0 1.738 0.178 2.563 0.533 0.812 0.355 1.522 0.825 2.106 1.421 0.596 0.596 1.066 1.294 1.408 2.106s0.52 1.675 0.52 2.563c0 1.193-0.292 2.296-0.888 3.311s-1.396 1.814-2.411 2.411c-1.015 0.596-2.119 0.888-3.311 0.888s-2.296-0.292-3.311-0.888c-1.015-0.596-1.814-1.396-2.411-2.411-0.571-1.028-0.875-2.131-0.875-3.324zM14.36 26.015c0-0.304 0.101-0.558 0.317-0.761s0.469-0.305 0.761-0.305c0.305 0 0.571 0.102 0.774 0.305s0.304 0.457 0.304 0.761v2.525c0 0.305-0.102 0.571-0.317 0.787s-0.469 0.317-0.761 0.317-0.558-0.102-0.761-0.317c-0.104-0.103-0.185-0.225-0.24-0.361s-0.081-0.28-0.078-0.426v-2.525zM14.36 6.35v-2.588c0-0.292 0.101-0.546 0.317-0.761s0.469-0.33 0.774-0.33c0.304 0 0.546 0.102 0.761 0.317s0.317 0.469 0.317 0.761v2.601c0 0.292-0.102 0.533-0.317 0.736s-0.469 0.292-0.761 0.292-0.558-0.101-0.761-0.292c-0.203-0.19-0.33-0.444-0.33-0.736zM14.5 11.831c1.104 0.14 2.030 0.622 2.778 1.459s1.129 1.827 1.129 2.956c0 1.053-0.33 1.979-0.99 2.791-0.66 0.799-1.497 1.319-2.512 1.535 0.254 0.025 0.444 0.051 0.558 0.051 1.231 0 2.296-0.444 3.172-1.319s1.319-1.928 1.319-3.172c0-1.218-0.444-2.258-1.319-3.134-0.875-0.863-1.928-1.294-3.172-1.294-0.342 0.025-0.66 0.063-0.964 0.127zM21.363 23.072c0-0.292 0.102-0.533 0.292-0.71 0.19-0.203 0.431-0.292 0.71-0.292 0.305 0 0.558 0.102 0.761 0.292l1.852 1.814c0.203 0.216 0.304 0.482 0.304 0.774s-0.102 0.546-0.304 0.749c-0.508 0.393-1.015 0.393-1.522 0l-1.802-1.802c-0.195-0.23-0.298-0.523-0.292-0.825zM21.363 9.217c0-0.317 0.102-0.571 0.292-0.749l1.802-1.865c0.2-0.196 0.469-0.305 0.749-0.304 0.305 0 0.558 0.101 0.761 0.317 0.216 0.216 0.317 0.469 0.317 0.761 0 0.317-0.102 0.584-0.304 0.787l-1.852 1.814c-0.228 0.203-0.482 0.304-0.761 0.304-0.292 0-0.52-0.101-0.71-0.305s-0.292-0.457-0.292-0.761zM24.231 16.145c0-0.304 0.102-0.558 0.305-0.787 0.203-0.203 0.444-0.304 0.723-0.304h2.563c0.292 0 0.546 0.114 0.761 0.33s0.33 0.469 0.33 0.761c0 0.292-0.114 0.546-0.33 0.761s-0.469 0.317-0.761 0.317h-2.563c-0.292 0-0.546-0.101-0.736-0.317s-0.292-0.457-0.292-0.761z"></path>
</symbol>
<symbol id="icon-service-icon6" viewBox="0 0 32 32">
<path d="M14.69 27.934v-15.719h-9.726c-0.327 0-0.535-0.153-0.622-0.458s0-0.546 0.262-0.72l10.643-7.467c0.24-0.175 0.491-0.262 0.753-0.262s0.513 0.087 0.753 0.262l10.643 7.467c0.262 0.175 0.349 0.415 0.262 0.72s-0.295 0.458-0.622 0.458h-9.726v15.719c0 0.371-0.126 0.683-0.377 0.934s-0.562 0.377-0.933 0.376c-0.371 0-0.682-0.126-0.934-0.377s-0.377-0.562-0.376-0.933zM16 9.595v0zM4.211 27.934v-5.567l-0.819-4.487c-0.066-0.371 0-0.699 0.196-0.982s0.48-0.459 0.851-0.524c0.349-0.066 0.672 0.006 0.967 0.213s0.475 0.486 0.54 0.834l0.753 3.963h4.061c0.371 0 0.682 0.126 0.934 0.377s0.377 0.562 0.376 0.933v5.24c0 0.371-0.126 0.683-0.377 0.934s-0.562 0.377-0.933 0.376c-0.371 0-0.682-0.126-0.934-0.377s-0.377-0.562-0.376-0.933v-3.93h-2.62v3.93c0 0.371-0.126 0.683-0.377 0.934s-0.562 0.377-0.933 0.376c-0.371 0-0.682-0.126-0.934-0.377s-0.377-0.562-0.376-0.933zM19.93 27.934v-5.24c0-0.371 0.126-0.683 0.377-0.934s0.562-0.377 0.933-0.376h4.061l0.753-3.963c0.065-0.349 0.24-0.628 0.524-0.836s0.611-0.279 0.982-0.212c0.371 0.065 0.655 0.24 0.851 0.524s0.262 0.611 0.197 0.982l-0.819 4.487v5.567c0 0.371-0.126 0.683-0.377 0.934s-0.562 0.377-0.933 0.376c-0.371 0-0.683-0.126-0.934-0.377s-0.377-0.562-0.376-0.933v-3.93h-2.62v3.93c0 0.371-0.126 0.683-0.377 0.934s-0.562 0.377-0.933 0.376c-0.371 0-0.683-0.126-0.934-0.377s-0.377-0.562-0.376-0.933zM11.219 9.595h9.563l-4.781-3.34-4.781 3.34z"></path>
</symbol>
<symbol id="icon-service-icon7" viewBox="0 0 32 32">
<path d="M26.667 8c0.773 0 1.4 0.267 1.893 0.787 0.507 0.547 0.773 1.147 0.773 1.88v14.667c0 0.733-0.267 1.333-0.773 1.88-0.493 0.52-1.12 0.787-1.893 0.787h-21.333c-0.773 0-1.4-0.267-1.893-0.787-0.507-0.547-0.773-1.147-0.773-1.88v-14.667c0-0.733 0.267-1.333 0.773-1.88 0.493-0.52 1.12-0.787 1.893-0.787h5.333v-2.667c0-0.773 0.267-1.4 0.773-1.893 0.493-0.507 1.12-0.773 1.893-0.773h5.333c0.773 0 1.4 0.267 1.893 0.773 0.507 0.493 0.773 1.12 0.773 1.893v2.667h5.333zM5.334 10.667v14.667h21.333v-14.667h-21.333zM18.667 8v-2.667h-5.333v2.667h5.333z"></path>
</symbol>
<symbol id="icon-serviceBack1" viewBox="0 0 28 32">
<path d="M24.374 29.633h-19.935c-0.177 0-0.321-0.162-0.321-0.362v-2.886c0-0.199 0.144-0.361 0.321-0.361s0.321 0.162 0.321 0.361v2.524h19.294v-25.686h-19.294v15.695c0 0.2-0.144 0.362-0.321 0.362s-0.321-0.162-0.321-0.362v-16.056c0-0.2 0.144-0.361 0.321-0.361h19.936c0.177 0 0.321 0.162 0.321 0.361v26.409c-0 0.2-0.144 0.362-0.321 0.362z"></path>
<path d="M22.846 27.911h-16.878c-0.177 0-0.321-0.162-0.321-0.362v-4.073c0-0.2 0.144-0.362 0.321-0.362s0.321 0.162 0.321 0.362v3.711h16.237v-22.241h-16.237v16.882c0 0.199-0.144 0.362-0.321 0.362s-0.321-0.162-0.321-0.362v-17.243c0-0.2 0.144-0.361 0.321-0.361h16.878c0.177 0 0.321 0.162 0.321 0.361v22.964c0 0.199-0.144 0.362-0.321 0.362z"></path>
<path d="M14.407 27.911c-0.178 0-0.321-0.162-0.321-0.362v-22.964c0-0.2 0.143-0.361 0.321-0.361s0.321 0.162 0.321 0.361v22.964c0 0.199-0.144 0.362-0.321 0.362z"></path>
<path d="M22.846 16.429h-9.758c-0.177 0-0.321-0.162-0.321-0.362s0.144-0.362 0.321-0.362h9.758c0.177 0 0.321 0.162 0.321 0.362s-0.144 0.362-0.321 0.362zM8.827 16.429h-2.86c-0.177 0-0.321-0.162-0.321-0.362s0.144-0.362 0.321-0.362h2.86c0.177 0 0.321 0.162 0.321 0.362s-0.144 0.362-0.321 0.362z"></path>
<path d="M25.943 3.225h-23.072c-0.177 0-0.321-0.162-0.321-0.362v-2.345c0-0.2 0.144-0.362 0.321-0.362h23.072c0.178 0 0.321 0.162 0.321 0.362v2.345c0 0.2-0.144 0.362-0.321 0.362zM3.191 2.502h22.431v-1.622h-22.43v1.622z"></path>
<path d="M25.943 31.979h-23.072c-0.177 0-0.321-0.162-0.321-0.362v-2.345c0-0.199 0.144-0.362 0.321-0.362h23.072c0.178 0 0.321 0.162 0.321 0.362v2.345c0 0.2-0.144 0.362-0.321 0.362zM3.191 31.255h22.431v-1.622h-22.43v1.622z"></path>
<path d="M4.439 26.978c-0.139 0-0.262-0.101-0.305-0.25l-0.812-2.817-2.502-0.914c-0.132-0.049-0.222-0.187-0.222-0.344s0.090-0.296 0.222-0.344l2.502-0.914 0.812-2.817c0.043-0.149 0.166-0.25 0.305-0.25s0.262 0.101 0.305 0.25l0.812 2.817 2.502 0.914c0.133 0.048 0.222 0.187 0.222 0.344s-0.089 0.296-0.222 0.344l-2.502 0.914-0.812 2.817c-0.043 0.149-0.166 0.25-0.305 0.25zM1.96 22.653l1.716 0.627c0.098 0.035 0.175 0.122 0.206 0.232l0.557 1.933 0.557-1.933c0.032-0.11 0.108-0.197 0.206-0.232l1.716-0.627-1.716-0.627c-0.098-0.036-0.175-0.122-0.206-0.232l-0.557-1.933-0.557 1.933c-0.032 0.11-0.109 0.197-0.206 0.232l-1.716 0.627z"></path>
<path d="M18.652 13.387c-0.139 0-0.262-0.101-0.305-0.25l-0.619-2.15-1.909-0.698c-0.133-0.048-0.222-0.187-0.222-0.344s0.089-0.295 0.222-0.344l1.909-0.698 0.619-2.15c0.043-0.149 0.166-0.25 0.305-0.25s0.262 0.101 0.305 0.25l0.62 2.15 1.91 0.698c0.132 0.048 0.222 0.187 0.222 0.344s-0.090 0.296-0.222 0.344l-1.91 0.698-0.62 2.15c-0.043 0.149-0.166 0.25-0.305 0.25zM16.957 9.945l1.124 0.411c0.098 0.036 0.175 0.122 0.206 0.232l0.365 1.266 0.365-1.266c0.032-0.11 0.108-0.197 0.206-0.232l1.124-0.411-1.124-0.41c-0.098-0.036-0.175-0.122-0.206-0.232l-0.365-1.266-0.365 1.266c-0.032 0.11-0.108 0.197-0.206 0.232l-1.124 0.41z"></path>
<path d="M10.957 19.306c-0.139 0-0.262-0.101-0.305-0.25l-0.575-1.997-1.773-0.648c-0.133-0.048-0.222-0.187-0.222-0.344s0.089-0.296 0.222-0.344l1.773-0.648 0.575-1.996c0.043-0.149 0.166-0.25 0.305-0.25s0.262 0.101 0.305 0.25l0.575 1.996 1.773 0.648c0.132 0.048 0.222 0.187 0.222 0.344s-0.089 0.296-0.222 0.344l-1.773 0.648-0.575 1.997c-0.043 0.149-0.166 0.25-0.305 0.25zM9.443 16.068l0.987 0.361c0.098 0.035 0.174 0.122 0.206 0.232l0.321 1.112 0.321-1.112c0.032-0.11 0.108-0.197 0.206-0.232l0.987-0.361-0.987-0.361c-0.098-0.036-0.174-0.122-0.206-0.232l-0.321-1.112-0.321 1.112c-0.032 0.11-0.108 0.197-0.206 0.232l-0.987 0.361z"></path>
</symbol>
<symbol id="icon-serviceBack2" viewBox="0 0 33 32">
<path d="M17.868 10.606c0-0.196-0.159-0.354-0.354-0.354h-3.104c-0.195 0-0.354 0.158-0.354 0.354s0.159 0.354 0.354 0.354h3.104c0.195 0 0.354-0.158 0.354-0.354z"></path>
<path d="M24.402 10.606c0-0.196-0.158-0.354-0.354-0.354h-2.809c-0.195 0-0.354 0.158-0.354 0.354s0.158 0.354 0.354 0.354h2.809c0.196 0 0.354-0.158 0.354-0.354z"></path>
<path d="M10.687 10.96c0.195 0 0.354-0.158 0.354-0.354s-0.159-0.354-0.354-0.354h-3.312l-0.603-1.394h22.896l0.603 1.394h-2.466c-0.195 0-0.354 0.158-0.354 0.354s0.159 0.354 0.354 0.354h3.006c0.119 0 0.23-0.060 0.296-0.159s0.076-0.225 0.029-0.335l-0.909-2.102c-0-0.001-0.001-0.002-0.002-0.004-0.002-0.004-0.004-0.009-0.006-0.013s-0.003-0.007-0.005-0.010c-0.002-0.004-0.004-0.008-0.007-0.012s-0.004-0.007-0.006-0.010c-0.002-0.004-0.005-0.007-0.007-0.011s-0.005-0.007-0.008-0.011c-0.002-0.003-0.005-0.006-0.007-0.009s-0.006-0.008-0.009-0.011c-0.001-0.001-0.001-0.002-0.002-0.002l-5.853-6.632c-0.067-0.076-0.164-0.12-0.265-0.12h-23.668c-0.139 0-0.266 0.082-0.323 0.208s-0.035 0.276 0.057 0.38l5.816 6.59 0.887 2.050c0.056 0.129 0.184 0.213 0.325 0.213h3.544zM10.162 8.15l-1.489-1.763h1.325l1.489 1.763h-1.325zM12.426 8.15l-1.489-1.763h3.813l1.489 1.763h-3.812zM21.264 5.671h-2.819l-1.489-1.763h2.819l1.489 1.763zM20.712 3.908h1.325l1.489 1.763h-1.324l-1.489-1.763zM17.509 5.671h-3.813l-1.489-1.763h3.812l1.489 1.763zM12.758 5.671h-1.325l-1.489-1.763h1.325l1.489 1.763zM17.174 8.15l-1.489-1.763h2.818l1.489 1.763h-2.818zM20.93 8.15l-1.489-1.763h1.324l1.489 1.763h-1.324zM23.193 8.15l-1.489-1.763h3.822l1.489 1.763h-3.822zM29.117 8.15h-1.176l-1.489-1.763h1.109l1.556 1.763zM26.936 5.679l-2.472-0.008-1.489-1.763h2.398l1.563 1.771zM23.882 2.226l0.864 0.974h-3.917l-0.864-0.974h3.917zM19.009 2.226l0.864 0.974h-3.793l-0.865-0.974h3.793zM14.258 2.226l0.864 0.974h-1.305l-0.864-0.974h1.305zM11.996 2.226l0.864 0.974h-2.808l-0.864-0.974h2.808zM10.497 5.671h-2.828l-1.489-1.763h2.828l1.489 1.763zM8.141 2.226l0.864 0.974h-3.802l-0.864-0.974h3.802zM1.165 2.226h2.215l0.864 0.974h-2.22l-0.86-0.974zM2.65 3.908h2.604l1.489 1.763h-2.537l-1.556-1.763zM4.902 6.379l2.835 0.008 1.489 1.763h-2.828l-1.496-1.771z"></path>
<path d="M9.226 11.615c-0.116 0-0.224 0.057-0.29 0.152-0.008 0.012-0.203 0.292-0.401 0.628-0.39 0.663-0.435 0.941-0.435 1.092 0 0.604 0.505 1.095 1.126 1.095s1.126-0.491 1.126-1.095c0-0.151-0.045-0.428-0.435-1.092-0.197-0.336-0.392-0.616-0.401-0.628-0.066-0.095-0.175-0.152-0.291-0.152zM9.226 13.873c-0.23 0-0.418-0.173-0.418-0.386 0-0.007 0.008-0.174 0.339-0.736 0.026-0.045 0.053-0.089 0.079-0.132 0.026 0.043 0.052 0.087 0.079 0.132 0.329 0.56 0.339 0.728 0.339 0.736 0 0.213-0.188 0.386-0.418 0.386z"></path>
<path d="M12.595 9.89c-0.116 0-0.224 0.057-0.291 0.152-0.008 0.012-0.203 0.292-0.401 0.628-0.389 0.663-0.435 0.94-0.435 1.092 0 0.604 0.505 1.095 1.126 1.095s1.126-0.491 1.126-1.095c0-0.151-0.045-0.428-0.435-1.092-0.197-0.336-0.392-0.616-0.401-0.628-0.066-0.095-0.175-0.152-0.29-0.152zM12.595 12.148c-0.231 0-0.418-0.173-0.418-0.386 0-0.007 0.008-0.174 0.339-0.736 0.027-0.045 0.053-0.089 0.079-0.132 0.025 0.041 0.051 0.084 0.077 0.128 0.332 0.563 0.341 0.732 0.341 0.74-0 0.213-0.188 0.386-0.418 0.386z"></path>
<path d="M15.96 11.615c-0.116 0-0.224 0.057-0.291 0.152-0.008 0.012-0.203 0.292-0.401 0.628-0.389 0.663-0.435 0.941-0.435 1.092 0 0.604 0.505 1.095 1.126 1.095s1.126-0.491 1.126-1.095c0-0.151-0.045-0.428-0.435-1.092-0.198-0.336-0.392-0.616-0.401-0.628-0.066-0.095-0.175-0.152-0.29-0.152zM15.96 13.873c-0.231 0-0.418-0.173-0.418-0.386 0-0.007 0.008-0.174 0.339-0.736 0.027-0.045 0.053-0.089 0.079-0.132 0.026 0.043 0.052 0.087 0.079 0.132 0.329 0.56 0.339 0.728 0.339 0.736-0 0.213-0.188 0.386-0.418 0.386z"></path>
<path d="M19.328 9.89c-0.116 0-0.224 0.057-0.29 0.152-0.008 0.012-0.203 0.292-0.401 0.628-0.39 0.663-0.435 0.94-0.435 1.092 0 0.604 0.505 1.095 1.126 1.095s1.126-0.491 1.126-1.095c0-0.151-0.045-0.428-0.434-1.092-0.198-0.336-0.393-0.616-0.401-0.628-0.066-0.095-0.174-0.152-0.29-0.152zM19.328 12.148c-0.23 0-0.418-0.173-0.418-0.386 0-0.007 0.008-0.174 0.339-0.736 0.026-0.045 0.053-0.089 0.079-0.132 0.026 0.042 0.052 0.087 0.079 0.132 0.33 0.56 0.338 0.728 0.339 0.736 0 0.213-0.187 0.386-0.418 0.386z"></path>
<path d="M22.554 11.615c-0.116 0-0.224 0.057-0.291 0.152-0.008 0.012-0.203 0.292-0.401 0.628-0.389 0.663-0.435 0.941-0.435 1.092 0 0.604 0.505 1.095 1.126 1.095s1.126-0.491 1.126-1.095c0-0.151-0.045-0.428-0.435-1.092-0.197-0.336-0.392-0.616-0.401-0.628-0.066-0.095-0.175-0.152-0.29-0.152zM22.554 13.873c-0.231 0-0.418-0.173-0.418-0.386 0-0.007 0.008-0.174 0.339-0.736 0.027-0.045 0.053-0.089 0.079-0.132 0.026 0.043 0.052 0.087 0.079 0.132 0.329 0.56 0.339 0.728 0.339 0.736-0 0.213-0.188 0.386-0.418 0.386z"></path>
<path d="M25.923 9.89c-0.116 0-0.224 0.057-0.29 0.152-0.008 0.012-0.203 0.292-0.4 0.628-0.39 0.663-0.435 0.94-0.435 1.092 0 0.604 0.505 1.095 1.126 1.095s1.126-0.491 1.126-1.095c0-0.151-0.045-0.428-0.435-1.092-0.198-0.336-0.392-0.616-0.401-0.628-0.066-0.095-0.175-0.152-0.291-0.152zM25.923 12.148c-0.23 0-0.418-0.173-0.418-0.386 0-0.007 0.008-0.174 0.339-0.736 0.026-0.045 0.053-0.089 0.079-0.132 0.026 0.042 0.052 0.087 0.079 0.132 0.329 0.56 0.339 0.728 0.339 0.736 0 0.213-0.188 0.386-0.418 0.386z"></path>
<path d="M29.287 11.615c-0.116 0-0.224 0.057-0.29 0.152-0.008 0.012-0.203 0.292-0.4 0.628-0.39 0.663-0.435 0.941-0.435 1.092 0 0.604 0.505 1.095 1.126 1.095s1.126-0.491 1.126-1.095c0-0.151-0.045-0.428-0.434-1.092-0.198-0.336-0.393-0.616-0.401-0.628-0.066-0.095-0.175-0.152-0.29-0.152zM29.287 13.873c-0.23 0-0.418-0.173-0.418-0.386 0-0.007 0.008-0.174 0.339-0.736 0.026-0.045 0.053-0.089 0.079-0.132 0.026 0.043 0.052 0.087 0.079 0.132 0.329 0.56 0.338 0.728 0.339 0.736-0 0.213-0.188 0.386-0.418 0.386z"></path>
<path d="M32.795 15.135h-19.768c-0.195 0-0.354 0.158-0.354 0.354 0 1.746-1.133 3.166-2.526 3.166-1.297 0-2.369-1.232-2.51-2.811h3.534c0.195 0 0.354-0.158 0.354-0.354s-0.159-0.354-0.354-0.354h-3.903c-0.094 0-0.184 0.037-0.25 0.104s-0.104 0.156-0.104 0.25c0 1.022 0.328 1.985 0.923 2.713 0.295 0.361 0.641 0.645 1.027 0.844 0.406 0.21 0.838 0.316 1.283 0.316h15.116v2.857l-2.671 3.122c-0 0-0.044 0.049-0.064 0.103-0.022 0.060-0.021 0.125-0.021 0.126l-0.012 5.996c0 0.196 0.159 0.354 0.354 0.354s0.354-0.158 0.354-0.354v-3.014h2.507v3.014c0 0.196 0.159 0.354 0.354 0.354s0.354-0.158 0.354-0.354l-0.001-4.705 2.667-3.126c0 0 0.016-0.018 0.022-0.025 0.014-0.017 0.040-0.050 0.055-0.091 0.020-0.055 0.017-0.125 0.017-0.125v-4.131h0.735c0.446 0 0.878-0.106 1.283-0.316 0.386-0.2 0.731-0.484 1.027-0.844 0.596-0.728 0.923-1.691 0.923-2.713 0-0.196-0.159-0.354-0.354-0.354zM21.633 18.654h-9.619c0.158-0.134 0.307-0.285 0.444-0.453 0.526-0.643 0.844-1.47 0.91-2.359h10.774c-0.141 1.58-1.213 2.812-2.51 2.812zM28.473 23.364l-2.513 2.947-0.221-0.080c-0.184-0.066-0.387 0.029-0.453 0.213s0.029 0.387 0.213 0.453l0.212 0.076-0.004 0.871h-2.501l0.010-2.142 1.686-1.98c0.010-0.011 0.018-0.023 0.026-0.035l0.799-0.92 0.337 0.12c0.039 0.014 0.079 0.020 0.118 0.020 0.146 0 0.282-0.090 0.334-0.235 0.065-0.184-0.031-0.387-0.215-0.452l-0.328-0.116v-0.884h2.501v2.144h0zM28.473 20.512h-2.501v-1.291l1.843-0.978 0.657 0.883v1.386zM29.916 18.654h-0.911l-0.803-1.078c-0.105-0.14-0.296-0.183-0.45-0.101l-2.222 1.179h-2.031c0.158-0.134 0.306-0.285 0.444-0.453 0.526-0.643 0.843-1.47 0.91-2.359h7.573c-0.141 1.58-1.213 2.812-2.51 2.812z"></path>
</symbol>
<symbol id="icon-serviceBack3" viewBox="0 0 43 32">
<path d="M17.714 20.659h-2.523v0.461h2.632l-0.109-0.461zM17.556 19.759h-2.365v0.461h2.461l-0.096-0.461zM17.322 18.772h-2.131v0.461h2.227l-0.096-0.461zM17.085 17.828h-1.893v0.461h2.008l-0.115-0.461zM1.247 0.916l0.104 0.060h13.025v-0.658h20.615l0.277 0.965h7.621v0.702h-0.001c0 0.037 0.001 0.073 0.001 0.11 0 4.009-0.683 7.897-2.029 11.559-1.3 3.536-3.161 6.712-5.533 9.44s-5.131 4.867-8.206 6.364c-3.183 1.548-6.564 2.333-10.049 2.333-0.335 0-0.67-0.008-1.003-0.023-0.138 0.015-0.278 0.023-0.42 0.023h-6.557c0.841-0.45 1.426-1.431 1.426-2.567 0-1.561-1.104-2.83-2.461-2.83-0.031 0-0.062 0.001-0.094 0.003v-18.923l-0.382-0.716c-0.081-0.151-0.040-0.349 0.091-0.442l0.075-0.053c0.131-0.093 0.303-0.045 0.384 0.106l0.478 0.895v5.145h5.623c1.052 0 1.99 0.764 2.338 1.905l3.265 10.678c0.678 2.214-0.049 4.498-1.515 5.775-0.099 0.087-0.042 0.269 0.082 0.261 13.304-0.8 23.906-13.529 23.856-29.040-0.001 0-0.001 0-0.001-0.001h-6.791l2.385 8.338h-7.325v-7.373h-16.152v-0.658h-13.025l-0.104 0.061-1.239 0.718v-2.874l1.239 0.718z"></path>
</symbol>
<symbol id="icon-serviceBack4" viewBox="0 0 32 32">
<path d="M4.181 1.363c-0.078 0-0.155-0.030-0.214-0.089-0.118-0.118-0.118-0.309 0-0.427l0.575-0.574c0.118-0.117 0.309-0.117 0.427 0 0.118 0.118 0.118 0.309 0 0.427l-0.574 0.574c-0.059 0.059-0.136 0.089-0.214 0.089z"></path>
<path d="M2.533 1.363c-0.078 0-0.155-0.030-0.214-0.089l-0.574-0.574c-0.119-0.118-0.119-0.309 0-0.427 0.118-0.117 0.309-0.117 0.427 0l0.574 0.574c0.118 0.118 0.118 0.309 0 0.427-0.059 0.059-0.136 0.089-0.213 0.089z"></path>
<path d="M1.958 3.583c-0.077 0-0.155-0.029-0.213-0.088-0.119-0.118-0.119-0.309 0-0.427l0.574-0.573c0.119-0.118 0.31-0.118 0.428 0 0.118 0.117 0.118 0.309 0 0.427l-0.574 0.574c-0.059 0.059-0.136 0.088-0.214 0.088z"></path>
<path d="M4.756 3.583c-0.078 0-0.155-0.029-0.214-0.088l-0.575-0.574c-0.118-0.118-0.118-0.31 0-0.427s0.31-0.118 0.428 0l0.574 0.573c0.118 0.119 0.118 0.309 0 0.427-0.059 0.059-0.136 0.088-0.213 0.088z"></path>
<path d="M28.904 7.496c-0.077 0-0.155-0.029-0.213-0.088-0.119-0.118-0.119-0.309 0-0.427l0.456-0.456c0.118-0.117 0.309-0.117 0.427 0 0.119 0.118 0.119 0.31 0 0.427l-0.456 0.456c-0.059 0.059-0.136 0.088-0.214 0.088z"></path>
<path d="M27.594 7.496c-0.078 0-0.154-0.029-0.214-0.088l-0.456-0.456c-0.118-0.118-0.118-0.309 0-0.427 0.118-0.117 0.309-0.117 0.428 0l0.456 0.456c0.118 0.118 0.118 0.309 0 0.427-0.059 0.059-0.136 0.088-0.214 0.088z"></path>
<path d="M27.137 9.261c-0.077 0-0.155-0.030-0.214-0.088-0.118-0.118-0.118-0.309 0-0.427l0.456-0.456c0.118-0.119 0.309-0.119 0.428 0 0.118 0.117 0.118 0.308 0 0.427l-0.456 0.456c-0.059 0.059-0.137 0.088-0.214 0.088z"></path>
<path d="M29.36 9.261c-0.077 0-0.155-0.030-0.214-0.088l-0.456-0.456c-0.119-0.118-0.119-0.309 0-0.427 0.118-0.119 0.309-0.119 0.427 0l0.456 0.456c0.119 0.117 0.119 0.309 0 0.427-0.059 0.059-0.136 0.088-0.214 0.088z"></path>
<path d="M18.754 1.647c-0.396 0-0.717 0.322-0.717 0.718s0.322 0.717 0.717 0.717c0.396 0 0.718-0.321 0.718-0.717s-0.322-0.718-0.718-0.718zM18.754 3.686c-0.729 0-1.322-0.593-1.322-1.321s0.593-1.321 1.322-1.321c0.729 0 1.323 0.593 1.323 1.321s-0.594 1.321-1.323 1.321z"></path>
<path d="M21.135 7.263c-1.103 0-2.001 0.897-2.001 1.999s0.898 1.999 2.001 1.999c1.104 0 2.002-0.897 2.002-1.999s-0.898-1.999-2.002-1.999zM21.135 11.864c-1.436 0-2.605-1.168-2.605-2.603s1.169-2.603 2.605-2.603c1.437 0 2.606 1.167 2.606 2.603s-1.168 2.603-2.606 2.603z"></path>
<path d="M20.3 9.563c-0.168 0-0.302-0.135-0.302-0.302 0-0.627 0.51-1.136 1.137-1.136 0.168 0 0.302 0.135 0.302 0.302s-0.135 0.302-0.302 0.302c-0.293 0-0.533 0.238-0.533 0.532 0 0.167-0.135 0.302-0.302 0.302z"></path>
<path d="M26.975 16.615c-0.050 0-0.102-0.013-0.148-0.039-0.146-0.082-0.197-0.266-0.115-0.411 0.257-0.455 0.507-0.923 0.744-1.392 0.075-0.149 0.256-0.208 0.405-0.133s0.209 0.257 0.134 0.406c-0.241 0.477-0.495 0.954-0.757 1.416-0.055 0.099-0.158 0.154-0.264 0.154z"></path>
<path d="M8.036 31.95c-0.136 0-0.259-0.091-0.293-0.228-0.040-0.162 0.058-0.326 0.22-0.367 0.027-0.007 2.774-0.706 6.339-2.749 3.285-1.882 7.958-5.324 11.566-11.028 0.089-0.141 0.276-0.183 0.416-0.094 0.142 0.089 0.184 0.275 0.095 0.416-3.679 5.818-8.445 9.324-11.796 11.241-3.634 2.079-6.359 2.772-6.473 2.801-0.025 0.006-0.049 0.009-0.073 0.009z"></path>
<path d="M12.514 29.849c3.988 1.092 7.818-1.34 8.969-2.169-0.525-0.32-1.204-0.761-1.241-0.786-0.116-0.076-0.166-0.221-0.12-0.351 0.046-0.131 0.174-0.215 0.313-0.202 0.593 0.054 2.079-0.257 3.105-0.74 0.718-0.337 1.965-1.425 2.594-1.995-0.647-0.227-1.546-0.61-1.678-0.667-0.133-0.058-0.207-0.201-0.176-0.342s0.159-0.243 0.303-0.238c0.090 0.002 2.245 0.016 3.994-2.338 1.738-2.34 1.463-5.453 0.13-6.784-0.326-0.327-0.771-0.477-1.323-0.446-1.26 0.069-2.923 1.093-4.044 2.489-0.080 0.1-0.141 0.21-0.182 0.326-0.224 0.645-0.725 2.389-0.552 4.654 0.012 0.149-0.087 0.283-0.233 0.317s-0.293-0.043-0.349-0.181c-0.033-0.083-0.694-1.726-1.016-2.691-0.557 0.557-1.675 1.732-2.604 3.074-0.050 0.34-0.261 1.979 0.136 3.224 0.051 0.159-0.037 0.329-0.196 0.379-0.159 0.052-0.33-0.036-0.38-0.195-0.257-0.804-0.288-1.727-0.258-2.433-1.059 1.643-1.951 3.785-1.962 3.81-0.046 0.111-0.153 0.183-0.273 0.187-0.118 0.004-0.23-0.066-0.28-0.175-0.171-0.366-0.213-1.027-0.215-1.576-1.658 2.208-2.299 5-2.464 5.852zM14.624 30.73c-0.881 0-1.734-0.126-2.545-0.379-0.142-0.044-0.231-0.185-0.209-0.333 0.026-0.175 0.666-4.306 3.217-7.1 0.087-0.095 0.225-0.124 0.342-0.074 0.119 0.051 0.192 0.172 0.182 0.3-0.026 0.339-0.039 0.828-0.018 1.268 0.49-1.061 1.363-2.803 2.282-3.93 1.331-1.938 3.004-3.497 3.075-3.564 0.078-0.073 0.19-0.099 0.293-0.067s0.181 0.115 0.206 0.219c0.069 0.294 0.3 0.935 0.535 1.558 0.083-1.55 0.425-2.711 0.602-3.222 0.063-0.182 0.158-0.352 0.282-0.506 1.24-1.545 3.042-2.636 4.482-2.715 0.72-0.039 1.337 0.176 1.784 0.623 1.539 1.537 1.877 4.947-0.073 7.571-1.142 1.538-2.458 2.161-3.371 2.413 0.472 0.187 0.918 0.35 1.088 0.379 0.113 0.019 0.205 0.1 0.238 0.21 0.034 0.11 0.002 0.228-0.081 0.306-0.084 0.080-2.068 1.956-3.138 2.459-0.698 0.328-1.669 0.608-2.459 0.733 0.306 0.192 0.633 0.394 0.832 0.503 0.088 0.048 0.145 0.136 0.155 0.236s-0.030 0.197-0.107 0.261c-0.051 0.042-1.254 1.034-3.104 1.843-1.53 0.669-3.049 1.007-4.492 1.007z"></path>
<path d="M3.867 18.517c-0.021 0-0.042-0.002-0.063-0.007-0.163-0.035-0.267-0.194-0.232-0.358 0.068-0.32 0.159-0.667 0.27-1.031 0.048-0.16 0.218-0.249 0.377-0.201 0.16 0.049 0.25 0.218 0.201 0.377-0.106 0.347-0.192 0.677-0.256 0.98-0.031 0.142-0.156 0.239-0.296 0.239z"></path>
<path d="M4.574 16.239c-0.036 0-0.073-0.006-0.108-0.021-0.156-0.060-0.234-0.235-0.173-0.39 1.329-3.448 3.853-7.613 5.24-9.788 0.090-0.141 0.277-0.182 0.418-0.093s0.182 0.276 0.093 0.417c-1.374 2.157-3.876 6.283-5.186 9.682-0.047 0.119-0.161 0.193-0.283 0.193z"></path>
<path d="M10.583 27.717c-2.457 0-4.565-0.703-6.094-2.035-1.666-1.449-2.546-3.587-2.546-6.183 0-5.36 8.051-16.824 8.394-17.31 0.057-0.080 0.149-0.127 0.247-0.127 0.099 0 0.191 0.048 0.247 0.127 0.287 0.407 7.045 10.025 8.221 15.779 0.033 0.164-0.072 0.323-0.236 0.356s-0.324-0.072-0.357-0.235c-1.026-5.022-6.625-13.375-7.875-15.196-1.378 2.007-8.036 11.947-8.036 16.605 0 5.614 4.151 7.614 8.035 7.614 0.369 0 0.734-0.017 1.087-0.052 0.167-0.015 0.314 0.106 0.33 0.272s-0.106 0.313-0.272 0.329c-0.372 0.036-0.758 0.054-1.145 0.054z"></path>
</symbol>
<symbol id="icon-serviceBack5" viewBox="0 0 48 32">
<path d="M48.019 15.276l-9.359-14.773c-0.144-0.232-0.401-0.368-0.673-0.368h-25.53c-0.288 0-0.56 0.16-0.705 0.416s-0.128 0.569 0.024 0.817l1.161 1.833h-2.658c-0.016 0-0.032 0.008-0.040 0.008-0.056 0-0.112 0.008-0.168 0.024-0.016 0.008-0.032 0.016-0.040 0.016-0.048 0.016-0.104 0.040-0.152 0.064-0.008 0.008-0.024 0.016-0.032 0.024-0.048 0.032-0.096 0.064-0.136 0.104-0.008 0.008-0.016 0.016-0.024 0.032-0.032 0.032-0.064 0.064-0.088 0.104l-9.358 14.757c-0.16 0.248-0.168 0.56-0.024 0.816 0.136 0.256 0.408 0.417 0.696 0.417h3.322v11.53c0 0.44 0.36 0.8 0.801 0.8h36.537c0.441 0 0.8-0.36 0.8-0.8v-11.53h2.802c0.288 0 0.56-0.16 0.705-0.417s0.128-0.568-0.024-0.816l-1.161-1.834h2.65c0.288 0 0.56-0.16 0.705-0.416 0.136-0.248 0.128-0.561-0.032-0.809zM24.779 1.727l2.106 3.323h-4.483l-2.105-3.323h4.483zM31.159 1.727l2.105 3.323h-4.483l-2.105-3.323h4.483zM27.901 6.652l2.105 3.323h-4.483l-2.105-3.323h4.483zM23.626 9.983h-4.483l-2.105-3.323h4.483l2.105 3.323zM24.642 11.584l2.105 3.323h-4.483l-2.105-3.323h4.483zM28.645 14.9l-2.106-3.323h4.483l2.105 3.323h-4.483zM35.026 14.9l-2.105-3.323h4.483l2.105 3.323h-4.483zM31.904 9.983l-2.105-3.323h4.483l2.106 3.323h-4.483zM36.179 6.652h4.483l2.105 3.323h-4.483l-2.105-3.323zM39.653 5.051h-4.483l-2.106-3.323h4.484l2.105 3.323zM18.398 1.727l2.105 3.323h-4.483l-2.105-3.323h4.483zM10.281 5.483l1.113 1.754-6.797 10.729h-2.226l7.91-12.483zM5.838 18.999l6.508-10.265 6.501 10.265v11.298h-2.962v-8.696c0-0.44-0.36-0.8-0.801-0.8h-5.476c-0.44 0-0.8 0.36-0.8 0.8v8.696h-2.97v-11.298zM10.409 30.297v-7.895h3.875v7.895h-3.875zM40.766 30.297h-20.318v-10.729h20.318v10.729zM43.72 17.966h-23.632l-8.342-13.18h2.218l7.189 11.346c0.144 0.232 0.4 0.368 0.673 0.368h6.357c0.008 0 0.016 0 0.032 0 0.008 0 0.016 0 0.024 0h6.324c0.008 0 0.016 0 0.032 0 0.008 0 0.016 0 0.024 0h6.324c0.008 0 0.016 0 0.032 0 0.008 0 0.016 0 0.024 0h1.801l0.921 1.465zM41.406 14.9l-2.105-3.323h4.483l2.105 3.323h-4.483z"></path>
</symbol>
<symbol id="icon-serviceBack6" viewBox="0 0 30 32">
<path d="M1.608 30.082c-1.477-1.572-1.477-4.115 0-5.687l9.63-10.246c0.221-0.235 0.579-0.235 0.8 0l4.546 4.836c0.221 0.235 0.221 0.616 0 0.851l-9.63 10.246c-1.477 1.571-3.868 1.572-5.345 0zM11.638 15.425l-9.23 9.82c-1.035 1.101-1.035 2.884 0 3.985s2.71 1.101 3.746 0l9.23-9.82-3.746-3.985z"></path>
<path d="M13.89 21.85l-4.545-4.836c-0.221-0.235-0.221-0.616 0-0.851s0.579-0.235 0.8 0l4.545 4.836c0.221 0.235 0.221 0.616 0 0.851s-0.579 0.235-0.8 0z"></path>
<path d="M11.891 23.978l-4.546-4.836c-0.221-0.235-0.221-0.616 0-0.851s0.579-0.235 0.8 0l4.545 4.836c0.221 0.235 0.221 0.616 0 0.851s-0.579 0.235-0.8 0z"></path>
<path d="M14.773 18.761l-2.525-2.687c-0.221-0.235-0.221-0.616 0-0.851l9.474-10.080 0.463-1.477c0.038-0.121 0.111-0.225 0.208-0.299l3.535-2.687c0.225-0.171 0.533-0.144 0.729 0.064l2.525 2.687c0.195 0.208 0.221 0.536 0.060 0.775l-2.525 3.761c-0.070 0.103-0.168 0.181-0.281 0.221l-1.389 0.493-9.474 10.080c-0.221 0.234-0.578 0.235-0.8 0zM13.448 15.649l1.726 1.836 9.168-9.755c0.062-0.066 0.138-0.116 0.221-0.145l1.341-0.475 2.14-3.188-1.848-1.966-2.996 2.277-0.447 1.426c-0.028 0.089-0.074 0.169-0.137 0.235l-9.168 9.754z"></path>
<path d="M21.037 29.741c-1.352-1.438-1.781-3.612-1.111-5.498l-5.153-5.482c-0.221-0.235-0.221-0.616 0-0.851s0.579-0.235 0.8 0l5.352 5.695c0.207 0.223 0.264 0.562 0.143 0.845-0.632 1.494-0.323 3.279 0.768 4.44 0.916 0.975 2.23 1.36 3.46 1.068l-1.725-1.835c-0.221-0.235-0.221-0.616 0-0.851l2.028-2.158c0.221-0.235 0.579-0.235 0.8 0l1.725 1.835c0.275-1.309-0.087-2.707-1.004-3.681-1.091-1.161-2.769-1.489-4.174-0.816-0.265 0.128-0.583 0.067-0.79-0.151l-5.355-5.697c-0.221-0.235-0.221-0.616 0-0.851s0.579-0.235 0.8 0l5.153 5.482c1.773-0.713 3.816-0.256 5.167 1.182 1.455 1.549 1.837 3.917 0.951 5.894-0.167 0.373-0.634 0.461-0.91 0.166l-1.962-2.087-1.228 1.307 1.962 2.087c0.275 0.293 0.196 0.789-0.156 0.968-1.866 0.948-4.090 0.531-5.54-1.011z"></path>
<path d="M12.248 16.075l-5.152-5.482c-1.773 0.713-3.816 0.256-5.167-1.182-1.456-1.549-1.838-3.918-0.951-5.894 0.168-0.374 0.634-0.46 0.91-0.166l1.962 2.087 1.228-1.307-1.961-2.087c-0.275-0.293-0.196-0.79 0.156-0.969 1.858-0.943 4.084-0.537 5.54 1.012 1.352 1.438 1.781 3.612 1.111 5.498l5.153 5.482c0.221 0.235 0.221 0.616 0 0.851s-0.579 0.235-0.8 0l-5.352-5.695c-0.207-0.224-0.264-0.562-0.144-0.845 0.632-1.494 0.324-3.279-0.767-4.44-0.916-0.974-2.23-1.36-3.46-1.067l1.725 1.835c0.221 0.235 0.221 0.616 0 0.851l-2.028 2.158c-0.106 0.113-0.25 0.176-0.4 0.176s-0.294-0.063-0.4-0.176l-1.725-1.836c-0.275 1.308 0.087 2.706 1.004 3.681 1.091 1.161 2.769 1.489 4.174 0.816 0.265-0.128 0.583-0.067 0.79 0.15l5.355 5.697c0.221 0.235 0.221 0.616 0 0.851s-0.579 0.235-0.8 0z"></path>
</symbol>
<symbol id="icon-serviceBack7" viewBox="0 0 53 32">
<path d="M52.562 30.883h-1.475v-20.799c0-0.292-0.237-0.529-0.529-0.529h-13.393v-8.888c0-0.292-0.237-0.529-0.529-0.529h-13.922c-0.292 0-0.529 0.237-0.529 0.529v30.216h-1.474c-0.291 0-0.528 0.237-0.528 0.529s0.237 0.529 0.528 0.529h31.852c0.291 0 0.528-0.237 0.528-0.529s-0.238-0.529-0.529-0.529zM23.243 1.196h12.864v29.688h-12.864v-29.688zM37.165 30.883v-20.27h12.864v20.27h-12.864zM28.38 25.045h-2.528c-0.291 0-0.528 0.237-0.528 0.529v2.725c0 0.292 0.237 0.529 0.528 0.529h2.528c0.291 0 0.528-0.238 0.528-0.529v-2.725c0-0.292-0.237-0.529-0.528-0.529zM27.851 27.769h-1.469v-1.666h1.469v1.666zM28.38 3.252h-2.528c-0.291 0-0.528 0.237-0.528 0.529v2.724c0 0.292 0.237 0.529 0.528 0.529h2.528c0.291 0 0.528-0.237 0.528-0.529v-2.724c0-0.292-0.237-0.529-0.528-0.529zM27.851 5.976h-1.469v-1.666h1.469v1.666zM33.498 14.149h-2.527c-0.292 0-0.529 0.237-0.529 0.529v2.724c0 0.292 0.237 0.529 0.529 0.529h2.527c0.292 0 0.529-0.237 0.529-0.529v-2.724c0-0.292-0.237-0.529-0.529-0.529zM32.969 16.872h-1.469v-1.666h1.469v1.666zM28.38 8.7h-2.528c-0.291 0-0.528 0.238-0.528 0.529v2.725c0 0.292 0.237 0.529 0.528 0.529h2.528c0.291 0 0.528-0.237 0.528-0.529v-2.725c0-0.292-0.237-0.529-0.528-0.529zM27.851 11.425h-1.469v-1.666h1.469v1.666zM28.38 19.596h-2.528c-0.291 0-0.528 0.238-0.528 0.53v2.724c0 0.292 0.237 0.529 0.528 0.529h2.528c0.291 0 0.528-0.237 0.528-0.529v-2.724c0-0.292-0.237-0.53-0.528-0.53zM27.851 22.321h-1.469v-1.666h1.469v1.666zM28.38 14.149h-2.528c-0.291 0-0.528 0.237-0.528 0.529v2.724c0 0.292 0.237 0.529 0.528 0.529h2.528c0.291 0 0.528-0.237 0.528-0.529v-2.724c0-0.292-0.237-0.529-0.528-0.529zM27.851 16.872h-1.469v-1.666h1.469v1.666zM33.498 19.596h-2.527c-0.292 0-0.529 0.238-0.529 0.53v2.724c0 0.292 0.237 0.529 0.529 0.529h2.527c0.292 0 0.529-0.237 0.529-0.529v-2.724c0-0.292-0.237-0.53-0.529-0.53zM32.969 22.321h-1.469v-1.666h1.469v1.666zM33.498 8.7h-2.527c-0.292 0-0.529 0.238-0.529 0.529v2.725c0 0.292 0.237 0.529 0.529 0.529h2.527c0.292 0 0.529-0.237 0.529-0.529v-2.725c0-0.292-0.237-0.529-0.529-0.529zM32.969 11.425h-1.469v-1.666h1.469v1.666zM33.498 3.252h-2.527c-0.292 0-0.529 0.237-0.529 0.529v2.724c0 0.292 0.237 0.529 0.529 0.529h2.527c0.292 0 0.529-0.237 0.529-0.529v-2.724c0-0.292-0.237-0.529-0.529-0.529zM32.969 5.976h-1.469v-1.666h1.469v1.666zM33.498 25.045h-2.527c-0.292 0-0.529 0.237-0.529 0.529v2.725c0 0.292 0.237 0.529 0.529 0.529h2.527c0.292 0 0.529-0.238 0.529-0.529v-2.725c0-0.292-0.237-0.529-0.529-0.529zM32.969 27.769h-1.469v-1.666h1.469v1.666zM47.42 18.858h-2.528c-0.292 0-0.529 0.237-0.529 0.529v2.724c0 0.292 0.238 0.529 0.529 0.529h2.528c0.292 0 0.529-0.237 0.529-0.529v-2.724c0-0.292-0.237-0.529-0.529-0.529zM46.89 21.582h-1.469v-1.666h1.469v1.666zM47.42 13.409h-2.528c-0.292 0-0.529 0.237-0.529 0.529v2.725c0 0.292 0.238 0.529 0.529 0.529h2.528c0.292 0 0.529-0.237 0.529-0.529v-2.725c0-0.292-0.237-0.529-0.529-0.529zM46.89 16.133h-1.469v-1.665h1.469v1.665zM47.42 24.305h-2.528c-0.292 0-0.529 0.238-0.529 0.53v2.724c0 0.292 0.238 0.529 0.529 0.529h2.528c0.292 0 0.529-0.237 0.529-0.529v-2.724c0-0.292-0.237-0.53-0.529-0.53zM46.89 27.030h-1.469v-1.666h1.469v1.666zM42.302 24.305h-2.527c-0.292 0-0.529 0.238-0.529 0.53v2.724c0 0.292 0.237 0.529 0.529 0.529h2.527c0.292 0 0.529-0.237 0.529-0.529v-2.724c0-0.292-0.237-0.53-0.529-0.53zM41.773 27.030h-1.469v-1.666h1.469v1.666zM42.302 18.858h-2.527c-0.292 0-0.529 0.237-0.529 0.529v2.724c0 0.292 0.237 0.529 0.529 0.529h2.527c0.292 0 0.529-0.237 0.529-0.529v-2.724c0-0.292-0.237-0.529-0.529-0.529zM41.773 21.582h-1.469v-1.666h1.469v1.666zM42.302 13.409h-2.527c-0.292 0-0.529 0.237-0.529 0.529v2.725c0 0.292 0.237 0.529 0.529 0.529h2.527c0.292 0 0.529-0.237 0.529-0.529v-2.725c0-0.292-0.237-0.529-0.529-0.529zM41.773 16.133h-1.469v-1.665h1.469v1.665z"></path>
<path d="M0.324 31.295h0.902v-12.713c0-0.179 0.145-0.324 0.324-0.324h8.186v-5.433c0-0.179 0.145-0.324 0.324-0.324h8.51c0.179 0 0.324 0.145 0.324 0.324v18.47h0.901c0.178 0 0.323 0.145 0.323 0.323s-0.145 0.323-0.323 0.323h-19.47c-0.178 0-0.323-0.145-0.323-0.323s0.145-0.323 0.324-0.323zM18.245 13.148h-7.863v18.147h7.863v-18.147zM9.735 31.295v-12.39h-7.863v12.39h7.863zM15.105 27.726h1.545c0.178 0 0.323 0.145 0.323 0.323v1.666c0 0.178-0.145 0.323-0.323 0.323h-1.545c-0.178 0-0.323-0.145-0.323-0.323v-1.666c0-0.179 0.145-0.323 0.323-0.323zM15.428 29.391h0.898v-1.018h-0.898v1.018zM15.105 14.405h1.545c0.178 0 0.323 0.145 0.323 0.324v1.665c0 0.179-0.145 0.324-0.323 0.324h-1.545c-0.178 0-0.323-0.145-0.323-0.324v-1.665c0-0.179 0.145-0.324 0.323-0.324zM15.428 16.070h0.898v-1.018h-0.898v1.018zM11.976 21.066h1.545c0.179 0 0.324 0.145 0.324 0.323v1.665c0 0.179-0.145 0.324-0.324 0.324h-1.545c-0.179 0-0.323-0.145-0.323-0.324v-1.665c0-0.179 0.145-0.323 0.323-0.323zM12.3 22.73h0.898v-1.018h-0.898v1.018zM15.105 17.735h1.545c0.178 0 0.323 0.145 0.323 0.324v1.666c0 0.179-0.145 0.324-0.323 0.324h-1.545c-0.178 0-0.323-0.145-0.323-0.324v-1.666c0-0.178 0.145-0.324 0.323-0.324zM15.428 19.401h0.898v-1.018h-0.898v1.018zM15.105 24.396h1.545c0.178 0 0.323 0.145 0.323 0.324v1.665c0 0.179-0.145 0.323-0.323 0.323h-1.545c-0.178 0-0.323-0.145-0.323-0.323v-1.665c0-0.179 0.145-0.324 0.323-0.324zM15.428 26.061h0.898v-1.018h-0.898v1.018zM15.105 21.066h1.545c0.178 0 0.323 0.145 0.323 0.323v1.665c0 0.179-0.145 0.324-0.323 0.324h-1.545c-0.178 0-0.323-0.145-0.323-0.324v-1.665c0-0.179 0.145-0.323 0.323-0.323zM15.428 22.73h0.898v-1.018h-0.898v1.018zM11.976 24.396h1.545c0.179 0 0.324 0.145 0.324 0.324v1.665c0 0.179-0.145 0.323-0.324 0.323h-1.545c-0.179 0-0.323-0.145-0.323-0.323v-1.665c0-0.179 0.145-0.324 0.323-0.324zM12.3 26.061h0.898v-1.018h-0.898v1.018zM11.976 17.735h1.545c0.179 0 0.324 0.145 0.324 0.324v1.666c0 0.179-0.145 0.324-0.324 0.324h-1.545c-0.179 0-0.323-0.145-0.323-0.324v-1.666c0-0.178 0.145-0.324 0.323-0.324zM12.3 19.401h0.898v-1.018h-0.898v1.018zM11.976 14.405h1.545c0.179 0 0.324 0.145 0.324 0.324v1.665c0 0.179-0.145 0.324-0.324 0.324h-1.545c-0.179 0-0.323-0.145-0.323-0.324v-1.665c0-0.179 0.145-0.324 0.323-0.324zM12.3 16.070h0.898v-1.018h-0.898v1.018zM11.976 27.726h1.545c0.179 0 0.324 0.145 0.324 0.323v1.666c0 0.178-0.145 0.323-0.324 0.323h-1.545c-0.179 0-0.323-0.145-0.323-0.323v-1.666c0-0.179 0.145-0.323 0.323-0.323zM12.3 29.391h0.898v-1.018h-0.898v1.018zM3.467 23.944h1.545c0.178 0 0.324 0.145 0.324 0.323v1.665c0 0.179-0.145 0.323-0.324 0.323h-1.545c-0.178 0-0.323-0.145-0.323-0.323v-1.665c0-0.179 0.145-0.323 0.323-0.323zM3.79 25.609h0.898v-1.018h-0.898v1.018zM3.467 20.614h1.545c0.178 0 0.324 0.145 0.324 0.323v1.666c0 0.179-0.145 0.323-0.324 0.323h-1.545c-0.178 0-0.323-0.145-0.323-0.323v-1.666c0-0.179 0.145-0.323 0.323-0.323zM3.79 22.278h0.898v-1.018h-0.898v1.018zM3.467 27.274h1.545c0.178 0 0.324 0.145 0.324 0.324v1.665c0 0.179-0.145 0.323-0.324 0.323h-1.545c-0.178 0-0.323-0.145-0.323-0.323v-1.665c0-0.179 0.145-0.324 0.323-0.324zM3.79 28.94h0.898v-1.018h-0.898v1.018zM6.595 27.274h1.545c0.179 0 0.323 0.145 0.323 0.324v1.665c0 0.179-0.145 0.323-0.323 0.323h-1.545c-0.179 0-0.324-0.145-0.324-0.323v-1.665c0-0.179 0.145-0.324 0.324-0.324zM6.918 28.94h0.898v-1.018h-0.898v1.018zM6.595 23.944h1.545c0.179 0 0.323 0.145 0.323 0.323v1.665c0 0.179-0.145 0.323-0.323 0.323h-1.545c-0.179 0-0.324-0.145-0.324-0.323v-1.665c0-0.179 0.145-0.323 0.324-0.323zM6.918 25.609h0.898v-1.018h-0.898v1.018zM6.595 20.614h1.545c0.179 0 0.323 0.145 0.323 0.323v1.666c0 0.179-0.145 0.323-0.323 0.323h-1.545c-0.179 0-0.324-0.145-0.324-0.323v-1.666c0-0.179 0.145-0.323 0.324-0.323zM6.918 22.278h0.898v-1.018h-0.898v1.018z"></path>
</symbol>
</defs>
</svg>
