<svg width="56" height="57" viewBox="0 0 56 57" fill="none" xmlns="http://www.w3.org/2000/svg">
<g id="ic:round-timer">
<path id="Vector" d="M23.3331 7.71134H32.6664C33.9498 7.71134 34.9998 6.66134 34.9998 5.37801C34.9998 4.09468 33.9498 3.04468 32.6664 3.04468H23.3331C22.0498 3.04468 20.9998 4.09468 20.9998 5.37801C20.9998 6.66134 22.0498 7.71134 23.3331 7.71134ZM44.4031 17.9547L46.1531 16.2047C46.5846 15.7706 46.8267 15.1834 46.8267 14.5713C46.8267 13.9593 46.5846 13.3721 46.1531 12.938L46.1298 12.9147C45.6957 12.4832 45.1085 12.2411 44.4964 12.2411C43.8844 12.2411 43.2972 12.4832 42.8631 12.9147L41.1131 14.6647C37.3969 11.6741 32.7699 10.044 27.9998 10.0447C16.7998 10.0447 7.27978 19.2847 6.99978 30.4847C6.92432 33.2894 7.41178 36.0807 8.43335 38.6938C9.45492 41.307 10.9899 43.6888 12.9475 45.6987C14.9052 47.7085 17.2458 49.3056 19.8312 50.3956C22.4165 51.4856 25.1941 52.0463 27.9998 52.0447C31.9532 52.0468 35.8268 50.9322 39.1744 48.8293C42.5221 46.7263 45.2076 43.7205 46.9218 40.1581C48.636 36.5956 49.309 32.6215 48.8634 28.6933C48.4178 24.7651 46.8717 21.0426 44.4031 17.9547ZM30.3331 31.0447C30.3331 32.328 29.2831 33.378 27.9998 33.378C26.7164 33.378 25.6664 32.328 25.6664 31.0447V21.7113C25.6664 20.428 26.7164 19.378 27.9998 19.378C29.2831 19.378 30.3331 20.428 30.3331 21.7113V31.0447Z" fill="#F7931E"/>
</g>
</svg>
